<svg width="208" height="118" viewBox="0 0 208 118" fill="none" xmlns="http://www.w3.org/2000/svg">
<path fill-rule="evenodd" clip-rule="evenodd" d="M94.67 63.5314L85.3805 57.2486L127.212 29.0173L103.96 13.3234L92.3472 21.1841L101.664 27.413L80.7349 41.5556L62.1551 28.9899L103.96 0.785156L145.792 28.9899L94.67 63.5314V63.5314ZM80.7349 72.9425L71.4454 66.6596L62.1551 72.9425V85.4816L80.7349 72.9425ZM136.501 19.6063L127.212 13.3234L145.792 0.785156V13.3234L136.501 19.6063V19.6063Z" fill="#1E447F"/>
<path fill-rule="evenodd" clip-rule="evenodd" d="M115.6 65.0828L106.283 58.7726L127.185 44.6574L145.792 57.2487L103.96 85.4818L62.155 57.2487L113.25 22.7346L122.54 29.0175L80.7348 57.2487L103.96 72.9426L115.6 65.0828V65.0828ZM10.7965 117.348C13.0922 117.348 18.8201 117.135 18.8201 111.734C18.8201 108.846 17.8173 106.814 13.964 106.36V106.306C16.9201 105.852 18.3982 104.088 18.3982 101.629C18.3982 97.1104 14.9668 96.1476 10.8497 96.1476H1.21608V117.348H10.7965ZM6.62606 104.837V99.4102H9.97792C11.7984 99.4102 13.0922 100.56 13.0922 102.11C13.0922 104.168 11.456 104.811 10.2688 104.811H8.36882L6.62606 104.837V104.837ZM8.36882 108.072H9.7936C12.5392 108.072 13.3831 109.222 13.3831 111.093C13.3831 114.061 10.7965 114.087 9.66169 114.087H6.62693V108.098L8.36882 108.072V108.072ZM40.6723 117.376V104.676H40.7247L46.4518 117.376H52.2051V99.9978H48.5108V112.029H48.4313L42.8623 99.9978H36.9772V117.376H40.6723ZM61.3373 117.857C65.5331 117.857 67.8559 116.333 67.8559 111.602H63.3955C63.316 113.018 63.4217 115.21 61.3373 115.21C58.804 115.21 58.4607 113.259 58.4607 108.714C58.4607 104.168 58.804 102.217 61.3373 102.217C62.6564 102.217 63.1849 103.099 63.1849 105.452H67.6191C67.8035 101.655 65.9297 99.5704 61.3382 99.5704C53.8693 99.5704 53.8692 104.036 53.8692 108.714C53.8684 113.365 53.8684 117.857 61.3373 117.857V117.857ZM23.0159 117.376L24.2301 113.525H30.3005L31.4615 117.376H36.1333L30.38 99.9978H24.5201L18.6349 117.376H23.0159V117.376ZM29.3501 110.853H25.1011L27.133 103.34H27.2125L29.3501 110.853V110.853ZM76.4596 115.209C73.8992 115.209 73.583 113.258 73.583 108.713C73.583 104.168 73.8992 102.216 76.4596 102.216C78.9929 102.216 79.3362 104.168 79.3362 108.713C79.3362 113.258 78.9929 115.209 76.4596 115.209V115.209ZM76.4596 117.857C83.9286 117.857 83.9286 113.366 83.9286 108.714C83.9286 104.036 83.9286 99.5704 76.4596 99.5704C68.9906 99.5704 68.9906 104.036 68.9906 108.714C68.9906 113.365 68.9906 117.857 76.4596 117.857ZM193.113 117.376V99.9978H188.678V117.376H193.113ZM206.783 117.376V114.728H200.634V99.9978H196.2V117.376H206.783ZM135.288 117.348C137.584 117.348 143.312 117.135 143.312 111.761C143.312 108.847 142.309 106.815 138.455 106.36V106.306C141.411 105.852 142.863 104.088 142.863 101.629C142.863 97.1104 139.458 96.1476 135.34 96.1476H125.708V117.348H135.288V117.348ZM131.117 104.864V99.4359H134.469C136.29 99.4359 137.583 100.586 137.583 102.137C137.583 104.195 135.947 104.837 134.759 104.837H132.859L131.117 104.864V104.864ZM132.859 108.098H134.284C137.03 108.098 137.873 109.248 137.873 111.119C137.873 114.087 135.287 114.14 134.151 114.14H131.116V108.151L132.859 108.098V108.098ZM93.9833 102.645H96.2799C99.3941 102.645 99.3941 105.452 99.3941 108.66C99.3941 113.045 98.8665 114.702 96.148 114.702H93.9833V102.645V102.645ZM89.4975 117.348H96.8084C104.435 117.348 103.935 111.226 103.935 108.553C103.935 103.126 102.853 99.9438 96.9665 99.9438H89.4975V117.348V117.348ZM112.933 115.237C110.373 115.237 110.031 113.286 110.031 108.767C110.031 104.249 110.374 102.297 112.933 102.297C115.467 102.297 115.81 104.248 115.81 108.767C115.81 113.286 115.467 115.237 112.933 115.237ZM112.933 117.857C120.402 117.857 120.402 113.366 120.402 108.768C120.402 104.09 120.402 99.6509 112.933 99.6509C105.465 99.6509 105.465 104.09 105.465 108.768C105.465 113.365 105.465 117.857 112.933 117.857ZM168.673 111.012H164.424L166.456 103.527H166.509L168.673 111.012ZM180.603 117.376C183.823 117.376 187.068 116.975 187.068 112.484C187.068 107.03 178.597 107.805 178.597 104.516C178.597 103.314 179.388 102.672 180.761 102.672H186.516V99.9987H180.26C175.114 99.9987 173.847 102.084 173.847 104.811C173.847 109.971 182.345 109.65 182.345 112.778C182.345 113.954 181.633 114.729 180.208 114.729H174.586L169.704 99.9987H163.845L158.645 115.345L155.452 109.009C157.933 108.608 158.935 107.164 158.935 104.544C158.962 101.603 157.009 99.9987 153.974 99.9987H145.079V117.377H149.539V102.673H152.178C153.578 102.673 154.501 103.609 154.501 105.32C154.501 106.763 153.656 107.939 152.31 107.885H150.489L155.266 117.377H162.34L163.554 113.526H169.598L170.785 117.377H180.603V117.376V117.376Z" fill="#1E447F"/>
</svg>
