<svg width="258" height="28" viewBox="0 0 258 28" fill="none" xmlns="http://www.w3.org/2000/svg">
<path fill-rule="evenodd" clip-rule="evenodd" d="M82.243 6.39109L82.9768 2.16107C65.3476 -4.71269 50.5906 17.2305 65.9493 25.8227C69.8899 27.409 74.3633 27.0124 78.5035 26.1539L79.839 22.0561C56.1999 28.1353 64.3467 -0.946063 82.243 6.39109V6.39109ZM82.0434 26.6144L86.1836 1.10358H99.0048C106.617 1.30113 107.018 12.3395 96.6683 14.9833L101.343 26.6158H95.3988L90.9255 12.7361C95.3328 13.0005 98.8727 12.2074 99.2059 7.97735C99.473 4.47364 93.9312 5.00385 90.5923 5.06922L86.9864 26.5505L82.0434 26.6144V26.6144ZM108.019 1.10358L103.879 26.6144H121.774L122.441 22.319H109.62L111.023 15.3799H121.909L122.576 11.943H111.691L112.893 5.40041H125.447L126.181 1.10358H108.019ZM130.123 0.971383H144.212C155.764 1.56695 154.095 26.1524 137.737 26.4183H125.115L130.123 0.971383ZM134.061 5.26676L131.191 22.319H137.868C147.017 21.1961 149.287 5.9277 142.075 5.26676H134.061V5.26676ZM152.09 26.6812H157.835L161.708 1.10358H156.033L152.09 26.6812ZM236.431 0.971383H250.52C262.072 1.56695 260.403 26.1524 244.042 26.4183H231.42L236.431 0.971383ZM240.37 5.26676L237.498 22.319H244.177C253.323 21.1961 255.528 5.9277 248.385 5.26676H240.37V5.26676ZM209.986 26.6144L214.861 26.549L218.533 5.06775C221.872 5.00239 227.417 4.47364 227.15 7.97589C226.749 12.2059 223.274 12.999 218.868 12.7347L223.274 26.6144H229.285L224.609 14.9818C234.96 12.3381 234.492 1.30113 226.948 1.10212H214.127L209.986 26.6144V26.6144ZM195.695 1.8967L182.074 22.0546C158.635 28.0045 166.781 -0.94461 184.676 6.39109L185.344 2.16107C167.715 -4.71269 153.025 17.2305 168.383 25.8227C172.256 27.409 176.731 27.4758 180.872 26.6158L185.679 26.6827L190.887 17.3627H200.637L202.305 26.6158H208.251L202.305 1.8967H195.695V1.8967ZM193.159 13.4624L198.302 5.46577L200.106 13.4624H193.159ZM29.0898 6.58865C15.4672 -0.219753 2.97916 -1.73919 0.441627 2.29181C-1.42814 5.39896 3.24627 11.0162 11.4591 16.3705C3.24627 21.7234 -1.42814 26.2178 0.441627 27.5397C2.3789 28.8616 10.7914 26.35 20.9415 21.5898C34.4965 27.9348 47.5188 29.8523 50.0564 25.7544C51.9261 22.7127 46.584 17.6895 38.6382 11.9401C47.0507 6.52037 52.0612 1.76161 50.1914 0.43973C48.2541 -0.882148 39.7066 1.69479 29.4229 6.58574H32.6297C38.305 3.94199 42.7799 2.35573 44.1814 2.6201C45.7841 2.9513 42.9794 5.52824 37.3027 9.2295L35.8336 10.3524C34.432 11.4767 17.0699 20.4001 14.9991 21.1918C10.1236 23.3721 6.31802 24.6287 5.11603 24.3643C4.31471 23.5712 11.3256 19.2089 13.596 16.7642V8.43928C13.596 7.38178 14.3973 6.58865 15.3997 6.58865H29.0898V6.58865ZM21.8103 21.1961L37.1691 12.8683V19.3455C37.1691 20.4045 36.3003 21.1961 35.2993 21.1961H21.8103Z" fill="#33348E"/>
</svg>
