<svg width="194" height="29" viewBox="0 0 194 29" fill="none" xmlns="http://www.w3.org/2000/svg">
<path d="M34.1682 0.246338L27.9753 8.777H61.7279C63.4346 8.777 63.4133 9.42856 62.5791 10.5807C61.7321 11.7457 60.3148 13.7608 59.4507 14.9474C59.0123 15.5472 58.2206 16.6388 60.8425 16.6388H74.6458L78.7361 11.0035C81.2728 7.51272 78.9574 0.25065 69.8872 0.25065L34.1682 0.246338V0.246338Z" fill="#D80613"/>
<path d="M25.4684 28.0389L37.9096 10.8999H53.3472C55.054 10.8999 55.0327 11.5558 54.1985 12.7036L51.0488 17.0531C50.6104 17.6528 49.8187 18.7445 52.4406 18.7445H73.1178C71.4025 21.135 65.8182 28.0389 55.8074 28.0389H25.4684ZM96.7105 18.7402L89.9643 28.0389H72.1686L78.9149 18.7402H96.7105ZM123.968 16.6345H80.4472L92.3478 0.246338H110.135L103.316 9.64429H111.254L118.081 0.246338H135.869L123.968 16.6345ZM122.44 18.7402L115.694 28.0389H97.9066L104.653 18.7402H122.44ZM0.0794678 22.4079H26.2898L24.8597 24.3798H0.0794678V22.4079ZM0.0794678 18.7402H28.9543L27.5199 20.7121H0.0794678V18.7402ZM0.0794678 26.0756H23.6296L22.2038 28.0389H0.0794678V26.0756ZM193.925 24.3798H167.808L169.242 22.4079H193.925V24.3798ZM193.925 28.0389H165.156L166.578 26.0756H193.925V28.0389ZM171.903 18.7402H193.925V20.7164H170.472L171.903 18.7402ZM160.504 0.246338L148.604 16.6345H129.752L141.661 0.246338H160.504ZM128.229 18.7402C128.229 18.7402 126.93 20.5439 126.296 21.4068C124.066 24.4705 126.037 28.0346 133.328 28.0346H161.896L168.642 18.7402H128.229V18.7402Z" fill="#D80613"/>
</svg>
