<svg width="135" height="155" viewBox="0 0 135 155" fill="none" xmlns="http://www.w3.org/2000/svg">
<path d="M125.425 94.8907C126.502 95.5573 127.391 96.4879 128.007 97.5943C128.624 98.7007 128.948 99.9462 128.948 101.213V105.127H114.053V101.213C114.058 99.2366 114.845 97.3428 116.243 95.9454C117.64 94.5479 119.534 93.7606 121.51 93.7554C122.897 93.7524 124.255 94.1463 125.425 94.8907Z" fill="#B9EEFF"/>
<path d="M128.948 106.302H114.053C113.715 106.302 113.392 106.168 113.153 105.929C112.915 105.691 112.781 105.367 112.781 105.03V101.115C112.781 98.7999 113.7 96.5795 115.337 94.9423C116.975 93.3052 119.195 92.3855 121.51 92.3855C123.148 92.3843 124.751 92.853 126.13 93.736C127.385 94.5146 128.419 95.6014 129.135 96.8931C129.852 98.1847 130.225 99.6382 130.22 101.115V105.03C130.22 105.367 130.086 105.691 129.848 105.929C129.609 106.168 129.285 106.302 128.948 106.302ZM115.247 103.757H127.597V101.213C127.603 100.164 127.337 99.1324 126.826 98.2168C126.315 97.3012 125.576 96.5331 124.681 95.9869C123.712 95.3622 122.585 95.0293 121.432 95.0279C119.793 95.033 118.223 95.6863 117.064 96.8451C115.905 98.0039 115.252 99.5741 115.247 101.213V103.757Z" fill="#1078FF"/>
<path d="M128.948 105.049H133.489V120.395C133.484 121.073 133.212 121.722 132.732 122.202C132.253 122.682 131.603 122.953 130.925 122.959H111.919C111.284 122.953 110.677 122.698 110.23 122.247C109.782 121.796 109.532 121.186 109.532 120.551V105.049H128.948Z" fill="#B9EEFF"/>
<path d="M130.925 124.231H111.92C110.947 124.226 110.016 123.836 109.33 123.146C108.644 122.457 108.259 121.524 108.259 120.551V105.049C108.264 104.713 108.4 104.393 108.638 104.155C108.875 103.918 109.196 103.782 109.532 103.777H133.489C133.825 103.782 134.146 103.918 134.383 104.155C134.621 104.393 134.756 104.713 134.761 105.049V120.395C134.741 121.406 134.331 122.37 133.616 123.085C132.9 123.8 131.936 124.211 130.925 124.231ZM110.804 106.302V120.532C110.804 120.829 110.921 121.115 111.129 121.328C111.338 121.54 111.622 121.662 111.92 121.667H130.925C131.266 121.662 131.592 121.524 131.833 121.283C132.074 121.042 132.212 120.716 132.217 120.375V106.302H110.804Z" fill="#1078FF"/>
<path d="M63.7303 73.6539L67.9972 106.713H67.9385L68.2125 108.396H59.2676L59.5416 106.713H59.4829L63.7303 73.6539Z" fill="#A9EAFF"/>
<path d="M68.2516 109.668H59.2676C59.0845 109.668 58.9037 109.627 58.738 109.55C58.5723 109.472 58.4257 109.359 58.3084 109.218C58.1893 109.08 58.1014 108.917 58.0507 108.741C58 108.566 57.9878 108.381 58.0149 108.2L58.2301 106.85C58.2106 106.753 58.2106 106.653 58.2301 106.556L62.4579 73.4973C62.5003 73.1894 62.6523 72.9071 62.886 72.7021C63.1196 72.4972 63.4194 72.3834 63.7302 72.3816C64.04 72.3798 64.3395 72.4928 64.5708 72.6988C64.8022 72.9049 64.949 73.1893 64.9829 73.4973L69.2693 106.556C69.2889 106.653 69.2889 106.753 69.2693 106.85L69.4455 107.887C69.508 108.05 69.5412 108.222 69.5434 108.396C69.5434 108.565 69.5098 108.732 69.4447 108.888C69.3795 109.043 69.2841 109.184 69.1639 109.303C69.0436 109.421 68.901 109.514 68.7444 109.577C68.5878 109.64 68.4203 109.671 68.2516 109.668ZM60.7551 107.124H66.7249V106.909C66.7052 106.792 66.7052 106.673 66.7249 106.556L63.7693 83.6362L60.8334 106.556C60.8531 106.673 60.8531 106.792 60.8334 106.909L60.7551 107.124Z" fill="#1078FF"/>
<path d="M68.2125 108.396L67.9973 106.713H76.1397V114.699H51.3013V106.713H59.4829L59.2676 108.396H68.2125Z" fill="#A9EAFF"/>
<path d="M76.1397 115.971H51.3014C50.964 115.971 50.6404 115.837 50.4018 115.598C50.1632 115.36 50.0292 115.036 50.0292 114.699V106.713C50.0292 106.376 50.1632 106.052 50.4018 105.813C50.6404 105.575 50.964 105.441 51.3014 105.441H59.483C59.6641 105.439 59.8434 105.477 60.0089 105.55C60.1745 105.624 60.3224 105.732 60.4428 105.867C60.5633 106.002 60.6534 106.162 60.7073 106.334C60.7612 106.507 60.7775 106.69 60.7552 106.87V107.124H66.8033V106.87C66.7854 106.691 66.8039 106.51 66.8577 106.338C66.9116 106.167 66.9996 106.008 67.1165 105.871C67.2356 105.734 67.3831 105.625 67.5487 105.551C67.7143 105.476 67.8941 105.439 68.0756 105.441H76.218C76.5572 105.441 76.8829 105.574 77.1246 105.812C77.3663 106.05 77.5047 106.374 77.5098 106.713V114.699C77.5075 114.874 77.4697 115.046 77.3988 115.206C77.3278 115.366 77.2252 115.509 77.0971 115.628C76.969 115.747 76.8181 115.839 76.6536 115.898C76.489 115.957 76.3142 115.982 76.1397 115.971ZM52.652 113.427H74.9457V107.985H69.524V108.259C69.5495 108.437 69.5364 108.618 69.4857 108.79C69.4351 108.962 69.348 109.122 69.2304 109.257C69.1082 109.391 68.96 109.497 68.7952 109.571C68.6303 109.645 68.452 109.685 68.2713 109.688H59.3264C59.147 109.687 58.9698 109.647 58.8066 109.573C58.6435 109.498 58.498 109.389 58.3797 109.255C58.2614 109.12 58.1729 108.961 58.1202 108.79C58.0675 108.618 58.0516 108.437 58.0737 108.259V108.005H52.5933L52.652 113.427Z" fill="#1078FF"/>
<path d="M95.9086 32.9416V1.27216H96.2022L125.425 32.3152V32.7654H124.857L95.9086 32.9416Z" fill="#5CD8FF"/>
<path d="M95.9085 34.2139C95.5711 34.2139 95.2475 34.0799 95.0089 33.8413C94.7703 33.6027 94.6362 33.2791 94.6362 32.9417V1.27225C94.6362 0.934822 94.7703 0.611222 95.0089 0.372627C95.2475 0.134033 95.5711 0 95.9085 0H96.2021C96.3781 0.00298206 96.5517 0.0408464 96.713 0.111401C96.8743 0.181956 97.02 0.283799 97.1416 0.411035L126.364 31.4345C126.582 31.6758 126.701 31.9903 126.697 32.3153V32.7655C126.697 32.9326 126.664 33.098 126.6 33.2524C126.536 33.4067 126.443 33.547 126.325 33.6651C126.206 33.7833 126.066 33.877 125.912 33.9409C125.757 34.0049 125.592 34.0378 125.425 34.0378H124.857L95.9085 34.2139ZM97.1808 4.16908V31.5716L122.92 31.415L97.1808 4.16908Z" fill="#1078FF"/>
<path d="M40.399 63.0843L48.6393 85.1237H32.1783L40.399 63.0843Z" fill="#F4FCFF"/>
<path d="M48.6786 86.396H32.1783C31.9721 86.3966 31.7688 86.3471 31.5859 86.2518C31.4031 86.1564 31.2461 86.018 31.1287 85.8485C31.0112 85.6791 30.9367 85.4835 30.9115 85.2788C30.8864 85.0742 30.9114 84.8664 30.9843 84.6735L39.2051 62.6341C39.3149 62.4112 39.4849 62.2234 39.6959 62.0921C39.907 61.9609 40.1505 61.8913 40.3991 61.8913C40.6476 61.8913 40.8912 61.9609 41.1022 62.0921C41.3132 62.2234 41.4832 62.4112 41.593 62.6341L49.6963 84.4191C49.8371 84.6271 49.9121 84.8726 49.9116 85.1237C49.9118 85.4545 49.7832 85.7723 49.553 86.0098C49.3228 86.2473 49.0091 86.3858 48.6786 86.396ZM34.0182 83.8515H46.7995L40.3991 66.7249L34.0182 83.8515Z" fill="#1078FF"/>
<path d="M86.2982 63.0843L94.5581 85.1237H78.0578L86.2982 63.0843Z" fill="#F4FCFF"/>
<path d="M94.5972 86.3959H78.0579C77.853 86.3979 77.651 86.3489 77.4698 86.2532C77.2887 86.1575 77.1343 86.0182 77.0205 85.8479C76.904 85.6782 76.8292 85.4834 76.802 85.2794C76.7748 85.0754 76.796 84.8678 76.8639 84.6735L85.1238 62.6341C85.2356 62.4163 85.4052 62.2335 85.6141 62.1059C85.8231 61.9783 86.0631 61.9108 86.3079 61.9108C86.5527 61.9108 86.7929 61.9783 87.0018 62.1059C87.2107 62.2335 87.3804 62.4163 87.4921 62.6341L95.6346 84.3995C95.7788 84.6143 95.8601 84.8651 95.8694 85.1237C95.8694 85.2907 95.8366 85.4562 95.7726 85.6105C95.7087 85.7649 95.615 85.9052 95.4968 86.0233C95.3787 86.1414 95.2384 86.2351 95.0841 86.2991C94.9297 86.363 94.7643 86.3959 94.5972 86.3959ZM79.8977 83.8514H92.7573L86.3373 66.7249L79.8977 83.8514Z" fill="#1078FF"/>
<path d="M48.6393 85.1237H53.7087C53.7087 88.6485 52.3085 92.0289 49.8162 94.5213C47.3238 97.0137 43.9434 98.4139 40.4186 98.4139C36.8938 98.4139 33.5134 97.0137 31.021 94.5213C28.5286 92.0289 27.1284 88.6485 27.1284 85.1237H48.6589H48.6393Z" fill="#50D5FF"/>
<path d="M40.399 99.7254C36.535 99.715 32.8331 98.1714 30.1064 95.4337C27.3796 92.6959 25.851 88.9878 25.8562 85.1238C25.8562 84.7864 25.9902 84.4628 26.2288 84.2242C26.4674 83.9856 26.791 83.8516 27.1284 83.8516H53.7088C54.0462 83.8516 54.3698 83.9856 54.6084 84.2242C54.847 84.4628 54.9811 84.7864 54.9811 85.1238C54.9811 88.993 53.4454 92.704 50.7113 95.4418C47.9772 98.1795 44.2682 99.7202 40.399 99.7254ZM28.4594 86.3961C28.7755 89.3447 30.1707 92.0722 32.3766 94.0542C34.5825 96.0362 37.4433 97.1326 40.4088 97.1326C43.3743 97.1326 46.2351 96.0362 48.441 94.0542C50.6468 92.0722 52.042 89.3447 52.3582 86.3961H28.4594Z" fill="#1078FF"/>
<path d="M78.0579 85.1237H99.5883C99.657 86.9132 99.3638 88.6982 98.7264 90.3717C98.0889 92.0453 97.1203 93.5729 95.8785 94.8633C94.6367 96.1536 93.1473 97.1801 91.4994 97.8812C89.8516 98.5824 88.0792 98.9438 86.2884 98.9438C84.4976 98.9438 82.7252 98.5824 81.0773 97.8812C79.4295 97.1801 77.94 96.1536 76.6982 94.8633C75.4564 93.5729 74.4879 92.0453 73.8504 90.3717C73.213 88.6982 72.9198 86.9132 72.9884 85.1237H78.0579Z" fill="#50D5FF"/>
<path d="M86.2982 99.7254C82.4324 99.715 78.7284 98.1721 75.9985 95.4349C73.2687 92.6977 71.7357 88.9896 71.7357 85.1238C71.7357 84.7864 71.8697 84.4628 72.1083 84.2242C72.3469 83.9856 72.6705 83.8516 73.008 83.8516H99.6079C99.9454 83.8516 100.269 83.9856 100.508 84.2242C100.746 84.4628 100.88 84.7864 100.88 85.1238C100.88 88.993 99.3445 92.704 96.6104 95.4418C93.8763 98.1795 90.1674 99.7202 86.2982 99.7254ZM74.3389 86.3961C74.6554 89.3497 76.0528 92.082 78.2623 94.0674C80.4718 96.0528 83.3374 97.1512 86.3079 97.1512C89.2784 97.1512 92.1441 96.0528 94.3536 94.0674C96.5631 92.082 97.9605 89.3497 98.277 86.3961H74.3389Z" fill="#1078FF"/>
<path d="M73.1841 24.7405V17.929H79.6629C80.8462 17.8281 82.0249 18.1698 82.9707 18.8881C83.3173 19.1835 83.5925 19.5536 83.7756 19.9706C83.9586 20.3875 84.0448 20.8406 84.0277 21.2956C84.033 21.9438 83.842 22.5784 83.4797 23.1159C83.1089 23.6972 82.5489 24.1328 81.8942 24.3491C80.9577 24.6426 79.9782 24.7749 78.9974 24.7405H73.1841Z" fill="#B9EEFF"/>
<path d="M79.056 26.0519H73.1841C72.8466 26.0519 72.523 25.9178 72.2844 25.6792C72.0458 25.4407 71.9118 25.1171 71.9118 24.7796V17.9682C71.9118 17.6307 72.0458 17.3071 72.2844 17.0685C72.523 16.83 72.8466 16.6959 73.1841 16.6959H79.6628C81.1627 16.5832 82.6504 17.0372 83.8319 17.9682C84.3065 18.3889 84.6836 18.9081 84.9372 19.4895C85.1907 20.071 85.3145 20.7006 85.2999 21.3347C85.3032 22.2309 85.0447 23.1085 84.5561 23.8597C84.0222 24.6638 83.2379 25.2692 82.3248 25.5821C81.2708 25.9277 80.1646 26.0867 79.056 26.0519ZM74.515 23.5074H79.056C79.8835 23.5444 80.7112 23.4385 81.5027 23.1942C81.9031 23.0737 82.2491 22.8177 82.4813 22.47C82.7001 22.1319 82.8157 21.7374 82.8141 21.3347C82.8281 21.0586 82.7789 20.7828 82.6704 20.5284C82.5618 20.2741 82.3968 20.0478 82.1877 19.8668C81.4628 19.3791 80.5913 19.1577 79.7215 19.2404H74.515V23.5074Z" fill="#1078FF"/>
<path d="M54.0219 25.4254V18.1052H59.2676C60.1133 18.0631 60.9609 18.1222 61.7925 18.2813C62.4861 18.4711 63.0939 18.8924 63.515 19.4753C63.9511 20.1366 64.1764 20.9146 64.1609 21.7066C64.1873 22.2154 64.1029 22.7239 63.9137 23.197C63.7244 23.6701 63.4348 24.0965 63.0648 24.4468C61.9668 25.2063 60.6356 25.5529 59.3067 25.4254H54.0219Z" fill="#B9EEFF"/>
<path d="M59.3068 26.6978H54.022C53.6846 26.6978 53.361 26.5638 53.1224 26.3252C52.8838 26.0866 52.7498 25.763 52.7498 25.4255V18.1052C52.7498 17.9381 52.7826 17.7727 52.8466 17.6183C52.9105 17.464 53.0042 17.3237 53.1224 17.2056C53.2405 17.0875 53.3808 16.9937 53.5351 16.9298C53.6895 16.8659 53.8549 16.833 54.022 16.833H59.2677C60.232 16.7825 61.1988 16.8548 62.1449 17.0483C63.1228 17.3148 63.9753 17.9179 64.5524 18.7511C65.1458 19.6209 65.4537 20.6539 65.4332 21.7067C65.4624 22.3924 65.3428 23.0764 65.0826 23.7116C64.8225 24.3468 64.4279 24.9181 63.926 25.3864C62.5981 26.3731 60.955 26.8395 59.3068 26.6978ZM55.2942 24.1533H59.3068C60.3241 24.2762 61.3529 24.0483 62.2232 23.5074C62.46 23.2749 62.6425 22.9928 62.7575 22.6815C62.8726 22.3702 62.9173 22.0373 62.8886 21.7067C62.9079 21.1742 62.7645 20.6485 62.4776 20.1995C62.2314 19.8566 61.8702 19.6135 61.4598 19.5145C60.7366 19.3867 60.0012 19.3407 59.2677 19.3775H55.353L55.2942 24.1533Z" fill="#1078FF"/>
<path d="M41.1429 18.5163C42.2384 18.9772 43.1432 19.7992 43.707 20.8455C44.5145 22.3657 44.887 24.0792 44.7835 25.7975C44.8062 27.123 44.6213 28.4439 44.2354 29.7122C43.9548 30.6864 43.4447 31.5791 42.7479 32.3154C42.2183 32.8114 41.5823 33.1796 40.8884 33.392C39.857 33.6788 38.7874 33.8042 37.7176 33.7639H33.3724V18.1052H37.6589C38.835 18.0472 40.0126 18.1861 41.1429 18.5163Z" fill="#B9EEFF"/>
<path d="M37.7175 35.0555H33.3723C33.0491 35.0568 32.7371 34.937 32.498 34.7195C32.2588 34.5021 32.1098 34.203 32.0804 33.8811V18.2226C32.0856 17.8834 32.224 17.5599 32.4657 17.3218C32.7074 17.0838 33.033 16.9504 33.3723 16.9504H37.6588C38.9822 16.8846 40.307 17.0502 41.5735 17.4397C42.9182 17.9795 44.0515 18.9411 44.803 20.1799C45.7274 21.9023 46.1608 23.8455 46.0558 25.7974C46.0852 27.2688 45.8803 28.7356 45.4489 30.1426C45.0955 31.2987 44.4792 32.3572 43.6482 33.2352C42.9762 33.8644 42.1744 34.3388 41.2994 34.6249C40.1342 34.9493 38.9264 35.0945 37.7175 35.0555ZM34.6445 32.511H37.7175C38.6481 32.5481 39.5788 32.4425 40.4774 32.1978C40.9961 32.0505 41.4723 31.7822 41.8671 31.4149C42.4055 30.8207 42.8006 30.1109 43.0219 29.3401C43.3748 28.1933 43.54 26.997 43.5112 25.7974C43.6045 24.3156 43.3004 22.8358 42.6304 21.5109C42.2118 20.6933 41.5189 20.0489 40.6731 19.6906C39.6925 19.421 38.674 19.3152 37.6588 19.3774H34.6445V32.511Z" fill="#1078FF"/>
<path d="M48.6394 85.1237L40.3991 63.0843L32.1783 85.1237H27.1285C27.1285 88.6485 28.5287 92.0289 31.0211 94.5213C33.5135 97.0137 36.8939 98.4139 40.4187 98.4139C43.9435 98.4139 47.3238 97.0137 49.8162 94.5213C52.3086 92.0289 53.7088 88.6485 53.7088 85.1237H48.6394ZM66.6663 66.0398V60.1679H60.7944V66.0398H66.6663ZM65.3549 26.0518C66.4652 24.8429 67.0619 23.2496 67.0186 21.6087C67.0326 20.6457 66.818 19.6932 66.3923 18.8293C66.0297 18.0412 65.4619 17.3651 64.7481 16.872C63.9835 16.3816 63.1224 16.0612 62.2232 15.9325C61.1877 15.7685 60.1397 15.6964 59.0914 15.7172H51.3601V36.2299H54.0807V27.8721H59.3264C60.4021 27.9909 61.4906 27.8908 62.5266 27.578C63.5626 27.2652 64.5247 26.746 65.3549 26.0518ZM47.0931 29.9665C47.4702 28.6227 47.6547 27.2322 47.6412 25.8365C47.665 24.1708 47.3933 22.5141 46.8387 20.9432C46.3352 19.5908 45.5007 18.3863 44.4116 17.4396C43.5355 16.7213 42.5031 16.2185 41.3973 15.9716C40.1914 15.7424 38.9642 15.644 37.7372 15.678H30.7103V36.1907H37.9524C39.0587 36.2065 40.1629 36.0882 41.2407 35.8384C42.9973 35.4797 44.5433 34.4467 45.5468 32.9612C46.2108 32.0556 46.714 31.0426 47.0344 29.9665H47.0931ZM1.33099 1.27216H95.9674V32.9416L124.916 32.7654H125.484V94.8907C124.314 94.1463 122.956 93.7524 121.569 93.7555C119.593 93.7606 117.699 94.548 116.302 95.9454C114.904 97.3428 114.117 99.2366 114.112 101.213V105.127H109.59V120.629C109.59 121.265 109.841 121.874 110.289 122.325C110.736 122.776 111.343 123.032 111.978 123.037H125.484V153.806H1.27228V1.27216H1.33099ZM23.9772 31.9238C23.2114 32.5438 22.3527 33.0392 21.4327 33.3918C20.3399 33.8421 19.1697 34.0748 17.9878 34.0768C16.6289 34.1018 15.2846 33.7926 14.0732 33.1765C12.8898 32.5802 11.9292 31.6196 11.3329 30.4362C10.6598 28.9921 10.3378 27.4093 10.3934 25.817C10.3798 24.4104 10.639 23.0145 11.1567 21.7066C11.4772 20.9878 11.9137 20.3265 12.4486 19.7493C13.0637 19.1014 13.8115 18.5939 14.6408 18.2617C15.6599 17.8503 16.752 17.6505 17.8508 17.6745C18.8206 17.6542 19.783 17.848 20.6693 18.2421C21.4437 18.5139 22.1233 19.0032 22.6266 19.6514C23.1453 20.3968 23.5356 21.2238 23.7814 22.098L26.2281 21.4325C25.9326 20.2279 25.4076 19.0914 24.6818 18.0855C23.9174 17.2114 22.9493 16.5391 21.8633 16.1282C20.5815 15.6186 19.2102 15.3723 17.8312 15.404C15.9543 15.3653 14.0974 15.7959 12.429 16.6567C10.8369 17.5379 9.57326 18.9114 8.82753 20.5713C7.99404 22.3185 7.57221 24.2336 7.59444 26.1693C7.55694 28.0563 7.98019 29.9241 8.82753 31.6106C9.64541 33.2219 10.9547 34.5312 12.566 35.3491C14.2611 36.2177 16.142 36.6611 18.0465 36.6409C19.5367 36.645 21.0154 36.3797 22.4113 35.858C23.8925 35.2707 25.2779 34.4659 26.5217 33.47V25.8561H17.8508V28.244H23.8793L23.9772 31.9238ZM73.008 85.065C72.9393 86.8545 73.2325 88.6395 73.8699 90.313C74.5074 91.9865 75.476 93.5142 76.7178 94.8045C77.9596 96.0949 79.449 97.1214 81.0969 97.8225C82.7447 98.5237 84.5171 98.8851 86.308 98.8851C88.0988 98.8851 89.8712 98.5237 91.5191 97.8225C93.1669 97.1214 94.6563 96.0949 95.8981 94.8045C97.1399 93.5142 98.1086 91.9865 98.746 90.313C99.3835 88.6395 99.6766 86.8545 99.608 85.065H94.5581L86.2982 63.0256L78.0579 85.065H73.008ZM70.4635 15.6193V36.132H73.1842V27.0305H76.3159C76.8201 27.0195 77.3244 27.0523 77.823 27.1284C78.2627 27.2383 78.6799 27.4237 79.0561 27.6764C79.5937 28.0444 80.0582 28.509 80.4263 29.0465C81.1374 29.9438 81.7912 30.8852 82.3836 31.8651L85.1042 36.132H88.5099L84.9281 30.5928C84.3047 29.599 83.5619 28.6853 82.7163 27.8721C82.2175 27.4591 81.6643 27.1166 81.0722 26.8543C82.6999 26.7108 84.2313 26.021 85.4174 24.897C85.8827 24.4105 86.2469 23.8364 86.4888 23.2081C86.7307 22.5798 86.8456 21.9098 86.8267 21.2368C86.8528 20.1399 86.5605 19.0589 85.985 18.1247C85.4691 17.2286 84.6604 16.5374 83.6949 16.1674C82.357 15.731 80.9515 15.5388 79.5454 15.5997L70.4635 15.6193ZM76.1397 106.654H67.9973L63.7303 73.5951L59.4829 106.713H51.3014V114.699H76.1397V106.654Z" fill="#B9EEFF"/>
<path d="M125.425 155H1.27224C0.934821 155 0.611236 154.866 0.372642 154.627C0.134047 154.389 0 154.065 0 153.728V1.27224C0 0.934821 0.134047 0.611221 0.372642 0.372627C0.611236 0.134032 0.934821 0 1.27224 0H95.9085C96.2459 0 96.5696 0.134032 96.8082 0.372627C97.0467 0.611221 97.1808 0.934821 97.1808 1.27224V31.6498L125.425 31.4932C125.762 31.4932 126.086 31.6273 126.325 31.8659C126.563 32.1045 126.697 32.4281 126.697 32.7655V94.8907C126.696 95.1195 126.636 95.3442 126.523 95.5431C126.41 95.7419 126.247 95.9082 126.051 96.026C125.852 96.1411 125.626 96.2017 125.396 96.2017C125.165 96.2017 124.939 96.1411 124.74 96.026C123.774 95.4128 122.654 95.0869 121.51 95.0865C119.871 95.0917 118.301 95.7449 117.142 96.9038C115.984 98.0626 115.33 99.6328 115.325 101.272V105.186C115.325 105.524 115.191 105.847 114.953 106.086C114.714 106.324 114.39 106.459 114.053 106.459H110.804V120.688C110.804 120.986 110.921 121.272 111.129 121.484C111.338 121.696 111.622 121.818 111.919 121.823H125.425C125.762 121.823 126.086 121.957 126.325 122.196C126.563 122.435 126.697 122.758 126.697 123.096V153.865C126.663 154.178 126.514 154.467 126.279 154.677C126.044 154.887 125.74 155.002 125.425 155ZM2.54452 152.455H124.074V124.231H111.841C110.869 124.226 109.938 123.836 109.252 123.146C108.566 122.457 108.181 121.524 108.181 120.551V105.049C108.186 104.713 108.322 104.393 108.559 104.155C108.797 103.918 109.117 103.782 109.453 103.777H112.702V101.213C112.702 98.8976 113.622 96.6772 115.259 95.0401C116.896 93.403 119.117 92.4833 121.432 92.4833C122.329 92.4796 123.221 92.6183 124.074 92.8943V34.0378L95.8303 34.2139C95.6628 34.2163 95.4966 34.1846 95.3418 34.1206C95.187 34.0567 95.0468 33.9619 94.9299 33.842C94.6932 33.6019 94.5597 33.2788 94.558 32.9417V2.56408H2.56408L2.54452 152.455ZM76.1397 115.971H51.3013C50.9639 115.971 50.6403 115.837 50.4017 115.598C50.1631 115.36 50.0291 115.036 50.0291 114.699V106.713C50.0291 106.376 50.1631 106.052 50.4017 105.813C50.6403 105.575 50.9639 105.441 51.3013 105.441H58.3672L62.458 73.4973C62.5004 73.1894 62.6523 72.907 62.886 72.7021C63.1197 72.4972 63.4195 72.3834 63.7303 72.3816C64.0401 72.3797 64.3395 72.4928 64.5709 72.6988C64.8022 72.9049 64.9491 73.1893 64.9829 73.4973L69.1129 105.441H76.1397C76.4789 105.441 76.8045 105.574 77.0462 105.812C77.2879 106.05 77.4264 106.374 77.4315 106.713V114.699C77.4264 115.038 77.2879 115.362 77.0462 115.6C76.8045 115.838 76.4789 115.971 76.1397 115.971ZM52.6519 113.427H74.9457V107.985H68.0755C67.7647 107.983 67.465 107.87 67.2313 107.665C66.9976 107.46 66.8456 107.177 66.8032 106.87L63.8085 83.6362L60.8334 106.87C60.795 107.179 60.6442 107.464 60.4097 107.67C60.1751 107.875 59.8731 107.988 59.5612 107.985H52.6519V113.427ZM86.3764 99.7253C82.5106 99.715 78.8067 98.172 76.0768 95.4348C73.347 92.6976 71.8139 88.9895 71.8139 85.1237C71.8139 84.7863 71.948 84.4627 72.1866 84.2241C72.4252 83.9855 72.7488 83.8515 73.0863 83.8515H77.0987L85.0454 62.6342C85.1572 62.4163 85.3269 62.2336 85.5358 62.1059C85.7447 61.9783 85.9848 61.9108 86.2296 61.9108C86.4744 61.9108 86.7145 61.9783 86.9234 62.1059C87.1323 62.2336 87.302 62.4163 87.4138 62.6342L95.3605 83.8515H99.5296C99.867 83.8515 100.191 83.9855 100.429 84.2241C100.668 84.4627 100.802 84.7863 100.802 85.1237C100.802 88.9794 99.277 92.6786 96.5598 95.4142C93.8426 98.1497 90.1537 99.6995 86.2981 99.7253H86.3764ZM74.4172 86.396C74.7337 89.3496 76.1311 92.0819 78.3406 94.0673C80.5501 96.0527 83.4157 97.1511 86.3862 97.1511C89.3567 97.1511 92.2223 96.0527 94.4318 94.0673C96.6413 92.0819 98.0387 89.3496 98.3552 86.396H94.6363C94.3772 86.3968 94.1241 86.3185 93.9108 86.1716C93.6974 86.0247 93.534 85.8162 93.4423 85.5739L86.3764 66.725L79.3301 85.5739C79.2384 85.8162 79.075 86.0247 78.8616 86.1716C78.6483 86.3185 78.3951 86.3968 78.1361 86.396H74.4172ZM40.4773 99.7253C36.6133 99.715 32.9114 98.1714 30.1846 95.4336C27.4579 92.6958 25.9293 88.9877 25.9345 85.1237C25.9345 84.7863 26.0685 84.4627 26.3071 84.2241C26.5457 83.9855 26.8693 83.8515 27.2067 83.8515H31.3758L39.2051 62.6342C39.3149 62.4112 39.4849 62.2235 39.6959 62.0922C39.9069 61.9609 40.1505 61.8914 40.399 61.8914C40.6475 61.8914 40.8911 61.9609 41.1021 62.0922C41.3132 62.2235 41.4831 62.4112 41.593 62.6342L49.5201 83.8515H53.7088C54.0462 83.8515 54.3698 83.9855 54.6084 84.2241C54.847 84.4627 54.9811 84.7863 54.9811 85.1237C54.9811 88.9929 53.4454 92.7039 50.7113 95.4417C47.9772 98.1795 44.2682 99.7201 40.399 99.7253H40.4773ZM28.5377 86.396C28.8539 89.3446 30.2491 92.0722 32.455 94.0541C34.6608 96.0361 37.5216 97.1325 40.4871 97.1325C43.4526 97.1325 46.3134 96.0361 48.5193 94.0541C50.7251 92.0722 52.1203 89.3446 52.4365 86.396H48.7176C48.4592 86.3941 48.2073 86.3148 47.9944 86.1682C47.7816 86.0217 47.6177 85.8147 47.5237 85.5739L40.4773 66.725L33.4506 85.5739C33.3566 85.8147 33.1926 86.0217 32.9798 86.1682C32.7669 86.3148 32.515 86.3941 32.2566 86.396H28.5377ZM66.7445 67.3121H60.8726C60.5351 67.3121 60.2115 67.1781 59.9729 66.9395C59.7343 66.7009 59.6003 66.3773 59.6003 66.0399V60.1679C59.6054 59.8339 59.7417 59.5153 59.9798 59.281C60.2178 59.0466 60.5385 58.9152 60.8726 58.9152H66.7445C67.0804 58.9151 67.4033 59.0458 67.6444 59.2797C67.8856 59.5135 68.0262 59.8321 68.0363 60.1679V66.0399C68.034 66.2147 67.9962 66.3872 67.9253 66.5469C67.8544 66.7067 67.7517 66.8504 67.6236 66.9693C67.4956 67.0883 67.3446 67.18 67.1801 67.2389C67.0155 67.2978 66.8407 67.3228 66.6663 67.3121H66.7445ZM62.1253 64.7676H65.3548V61.401H62.0078L62.1253 64.7676ZM18.1443 37.7958C16.0356 37.8204 13.9528 37.3299 12.0766 36.367C10.2374 35.4245 8.74375 33.924 7.80971 32.0804C6.8665 30.2126 6.38967 28.1441 6.42 26.0519C6.39904 23.9252 6.86785 21.8223 7.79011 19.9059C8.6461 18.0195 10.0968 16.4657 11.9201 15.4824C13.7736 14.5172 15.8397 14.0327 17.929 14.0731C19.4696 14.042 21.0007 14.3215 22.4309 14.8952C23.7199 15.3859 24.8643 16.1937 25.7583 17.244C26.6112 18.4171 27.2232 19.7476 27.559 21.1586C27.6428 21.483 27.5952 21.8273 27.4266 22.1168C27.258 22.4063 26.9821 22.6176 26.6587 22.7049L24.212 23.3704C23.8902 23.4615 23.5455 23.4222 23.2524 23.261C22.9594 23.0998 22.7416 22.8297 22.6461 22.5092C22.445 21.8086 22.1274 21.147 21.7066 20.5518C21.339 20.0944 20.8509 19.7486 20.2974 19.5536C18.6744 18.9164 16.8705 18.9164 15.2475 19.5536C14.5813 19.8203 13.9805 20.2276 13.4859 20.7475C13.0512 21.2342 12.7006 21.7898 12.4485 22.3917C11.9793 23.5473 11.7464 24.7852 11.7635 26.0323C11.7109 27.3831 11.9652 28.7282 12.5073 29.9665C12.9771 30.9069 13.7395 31.6693 14.6799 32.1392C15.6426 32.6178 16.6979 32.8815 17.7726 32.9119C18.8474 32.9423 19.9159 32.7388 20.9041 32.3153C21.5118 32.0628 22.095 31.7549 22.6461 31.3954V29.438H17.8899C17.5525 29.438 17.2288 29.304 16.9902 29.0654C16.7517 28.8268 16.6176 28.5032 16.6176 28.1658V25.7779C16.6176 25.4404 16.7517 25.1168 16.9902 24.8782C17.2288 24.6396 17.5525 24.5056 17.8899 24.5056H26.5608C26.8982 24.5056 27.2218 24.6396 27.4604 24.8782C27.699 25.1168 27.833 25.4404 27.833 25.7779V33.3918C27.8318 33.5795 27.789 33.7646 27.7078 33.9338C27.6266 34.103 27.5089 34.2521 27.3633 34.3705C26.0267 35.459 24.5274 36.3309 22.9202 36.9542C21.3917 37.5193 19.7739 37.8044 18.1443 37.7958ZM24.5839 27.011C24.7835 27.1216 24.9502 27.2831 25.0671 27.4791C25.184 27.6751 25.2469 27.8985 25.2494 28.1266V32.0413C25.2514 32.2228 25.2139 32.4026 25.1396 32.5682C25.0652 32.7338 24.9557 32.8813 24.8188 33.0004C24.1336 33.5768 23.3689 34.0514 22.5483 34.4096C23.5376 33.9715 24.4761 33.4268 25.3473 32.7851V27.0697L24.5839 27.011ZM12.0179 18.4575C11.1967 19.1614 10.5303 20.0277 10.0606 21.002C9.30108 22.5756 8.91906 24.3047 8.94492 26.0519C8.9157 27.7344 9.29167 29.3993 10.041 30.906C10.5152 31.8439 11.1822 32.671 11.9984 33.3331C11.2817 32.6987 10.6908 31.9351 10.2564 31.0822C9.49746 29.4541 9.12885 27.6713 9.17982 25.8757C9.16273 24.3009 9.45535 22.738 10.041 21.276C10.4067 20.4015 10.9161 19.5944 11.5482 18.8881C11.7243 18.7511 11.8613 18.5945 12.0179 18.4575ZM23.2333 18.3009C23.4184 18.4757 23.5886 18.6656 23.7423 18.8685C24.1218 19.39 24.4372 19.9551 24.6818 20.5518C24.4526 19.9357 24.1362 19.3556 23.7423 18.8294C23.5971 18.6078 23.4263 18.4042 23.2333 18.2226V18.3009ZM88.5099 37.4631H85.1041C84.8904 37.4603 84.6806 37.4054 84.493 37.303C84.3054 37.2007 84.1457 37.054 84.0276 36.8759L81.3265 32.6089C80.4262 31.1996 79.7998 30.358 79.3692 29.8882C79.0706 29.4683 78.7072 29.0983 78.2927 28.7921C78.0286 28.6206 77.7374 28.4949 77.4315 28.4203C77.0339 28.3948 76.6351 28.3948 76.2375 28.4203H74.2802V36.2495C74.2802 36.587 74.1462 36.9105 73.9076 37.1491C73.669 37.3877 73.3454 37.5218 73.0079 37.5218H70.2872C69.9498 37.5218 69.6263 37.3877 69.3877 37.1491C69.1491 36.9105 69.015 36.587 69.015 36.2495V15.6781C69.015 15.3407 69.1491 15.0171 69.3877 14.7785C69.6263 14.5399 69.9498 14.4059 70.2872 14.4059H79.3692C80.9433 14.3403 82.5159 14.5659 84.0081 15.0713C85.2253 15.5412 86.2468 16.4108 86.9049 17.5375C87.5894 18.6702 87.9421 19.9723 87.9227 21.2956C87.96 22.9792 87.3345 24.61 86.1807 25.8366C85.5157 26.5028 84.7236 27.0286 83.8515 27.3829C84.5926 28.1519 85.2488 28.9984 85.8088 29.9078L89.3711 35.5057C89.4864 35.7015 89.5472 35.9245 89.5472 36.1517C89.5472 36.3788 89.4864 36.6019 89.3711 36.7976C89.2846 36.9645 89.1628 37.1105 89.014 37.2254C88.8653 37.3404 88.6932 37.4215 88.5099 37.4631ZM85.8088 34.9185H86.1807L83.8515 31.2779C83.31 30.3736 82.6519 29.5444 81.8942 28.8117H81.7963C82.2856 29.4772 82.8728 30.3384 83.4991 31.3171L85.8088 34.9185ZM71.7357 34.9185H71.9118V27.0893C71.9118 26.7518 72.0459 26.4282 72.2845 26.1896C72.5231 25.951 72.8467 25.817 73.1841 25.817H76.3158C76.9118 25.8044 77.5078 25.8437 78.097 25.9345C78.6845 26.0917 79.2452 26.3358 79.7607 26.6587C79.8078 26.3891 79.9394 26.1415 80.1364 25.9515C80.3334 25.7616 80.5857 25.6391 80.8568 25.6017C82.1912 25.5127 83.4582 24.9825 84.4583 24.0946C85.1553 23.3401 85.5279 22.3419 85.4956 21.3152C85.5182 20.4609 85.2939 19.6182 84.8497 18.8881C84.475 18.2355 83.8877 17.7311 83.186 17.4593C81.9923 17.0752 80.7392 16.9094 79.4867 16.9699H71.6574L71.7357 34.9185ZM54.0219 37.4631H51.3013C50.9639 37.4631 50.6403 37.329 50.4017 37.0904C50.1631 36.8518 50.0291 36.5282 50.0291 36.1908V15.6781C50.0291 15.3407 50.1631 15.0171 50.4017 14.7785C50.6403 14.5399 50.9639 14.4059 51.3013 14.4059H59.0327C60.153 14.3871 61.273 14.4657 62.3797 14.6407C63.4612 14.7954 64.4962 15.1827 65.4135 15.776C66.308 16.4117 67.0227 17.2681 67.4883 18.2618C67.9954 19.2967 68.2503 20.4369 68.2321 21.5892C68.2949 23.5447 67.5927 25.4476 66.2748 26.8935C65.328 27.7218 64.2205 28.3458 63.0215 28.7264C61.8225 29.107 60.5579 29.236 59.3067 29.1053H55.3921V36.1908C55.3926 36.3664 55.3567 36.5403 55.2868 36.7014C55.2168 36.8625 55.1143 37.0074 54.9855 37.1269C54.8568 37.2464 54.7048 37.3379 54.5389 37.3958C54.3731 37.4537 54.1971 37.4766 54.0219 37.4631ZM52.5735 34.9185H52.7497V27.8331C52.7497 27.4956 52.8837 27.172 53.1223 26.9334C53.3609 26.6948 53.6845 26.5608 54.0219 26.5608H59.2676C61.0797 26.7719 62.9033 26.274 64.3566 25.1711C64.8028 24.6907 65.15 24.1272 65.3784 23.5126C65.6068 22.898 65.7119 22.2444 65.6876 21.5892C65.7065 20.8294 65.5385 20.0766 65.1983 19.397C64.9354 18.7954 64.5164 18.275 63.9847 17.8899C63.3909 17.509 62.7243 17.2557 62.0274 17.1461C61.0628 16.9959 60.087 16.9304 59.111 16.9504H52.6519L52.5735 34.9185ZM38.0307 37.4631H30.6516C30.3141 37.4631 29.9906 37.329 29.752 37.0904C29.5134 36.8518 29.3793 36.5282 29.3793 36.1908V15.6781C29.3793 15.3407 29.5134 15.0171 29.752 14.7785C29.9906 14.5399 30.3141 14.4059 30.6516 14.4059H37.6783C38.9915 14.3705 40.3046 14.4821 41.593 14.7386C42.8902 15.034 44.1023 15.6233 45.1358 16.461C46.389 17.5478 47.3453 18.9353 47.9151 20.4931C48.5369 22.2049 48.8419 24.0156 48.8155 25.8366C48.8331 27.3587 48.6287 28.8753 48.2087 30.3384C47.8728 31.5512 47.3298 32.6967 46.6038 33.7246C46.0238 34.5625 45.2938 35.2858 44.4507 35.858C43.5806 36.4343 42.6119 36.8456 41.593 37.0716C40.3999 37.3501 39.1773 37.4816 37.9524 37.4631H38.0307ZM31.9239 34.9185H37.9524C38.9594 34.9303 39.9643 34.8252 40.9471 34.6054C41.6398 34.4298 42.3004 34.1458 42.9044 33.7637C43.5025 33.3447 44.0197 32.8208 44.4311 32.2174C44.9907 31.421 45.4079 30.5336 45.6642 29.5946C46.0079 28.3721 46.1727 27.1063 46.1535 25.8366C46.1794 24.3242 45.9342 22.8194 45.4293 21.3935C45.0415 20.2454 44.3679 19.2148 43.472 18.3988C42.7449 17.817 41.8948 17.4087 40.9862 17.2048C39.8759 17.0034 38.7476 16.9182 37.6196 16.9504H31.8652L31.9239 34.9185Z" fill="#1078FF"/>
<path d="M70.4634 36.1907V15.6779H79.5454C80.9514 15.617 82.3569 15.8093 83.6949 16.2456C84.6604 16.6157 85.4691 17.3068 85.985 18.2029C86.5604 19.1372 86.8528 20.2181 86.8266 21.3151C86.8455 21.988 86.7307 22.6581 86.4888 23.2864C86.2469 23.9147 85.8827 24.4887 85.4174 24.9753C84.2312 26.0992 82.6999 26.789 81.0721 26.9326C81.6642 27.1949 82.2174 27.5374 82.7163 27.9504C83.5618 28.7636 84.3046 29.6773 84.928 30.6711L88.5099 36.269H85.1042L82.3835 31.9238C81.7911 30.9439 81.1374 30.0026 80.4262 29.1052C80.0582 28.5677 79.5936 28.1031 79.0561 27.7351C78.6799 27.4824 78.2626 27.297 77.823 27.187C77.3244 27.1109 76.8201 27.0782 76.3159 27.0892H73.1841V36.1907H70.4634ZM73.1841 17.9289V24.7404H79.0561C80.0369 24.7748 81.0164 24.6424 81.9529 24.3489C82.6076 24.1327 83.1676 23.6971 83.5384 23.1158C83.9006 22.5783 84.0917 21.9437 84.0864 21.2955C84.1035 20.8404 84.0173 20.3874 83.8343 19.9704C83.6512 19.5534 83.376 19.1834 83.0294 18.888C82.0836 18.1697 80.9049 17.8279 79.7216 17.9289H73.1841Z" fill="#1078FF"/>
<path d="M66.3334 18.8099C66.7591 19.6738 66.9738 20.6264 66.9598 21.5893C67.0241 23.2288 66.4486 24.8291 65.3548 26.052C64.523 26.7428 63.5603 27.2584 62.5244 27.5678C61.4884 27.8773 60.4006 27.9742 59.3263 27.8527H54.0806V36.2105H51.36V15.6782H59.0913C60.1396 15.6575 61.1876 15.7295 62.2231 15.8935C63.1223 16.0222 63.9834 16.3426 64.748 16.833C65.4429 17.3393 65.9901 18.0217 66.3334 18.8099ZM54.0219 18.1053V25.4257H59.3067C60.6356 25.5531 61.9667 25.2065 63.0647 24.447C63.4347 24.0967 63.7243 23.6703 63.9136 23.1972C64.1028 22.7241 64.1872 22.2156 64.1608 21.7068C64.1763 20.9148 63.951 20.1367 63.5149 19.4754C63.0938 18.8926 62.486 18.4713 61.7924 18.2815C60.9608 18.1224 60.1132 18.0632 59.2676 18.1053H54.0219Z" fill="#1078FF"/>
<path d="M47.5825 25.8366C47.596 27.2323 47.4115 28.6227 47.0344 29.9666C46.7381 31.0376 46.2615 32.0503 45.6252 32.9612C44.6216 34.4468 43.0756 35.4798 41.3191 35.8385C40.2412 36.0883 39.1371 36.2066 38.0308 36.1908H30.6517V15.6781H37.6784C38.9055 15.6441 40.1327 15.7425 41.3386 15.9717C42.4444 16.2186 43.4768 16.7214 44.3529 17.4397C45.442 18.3864 46.2765 19.5909 46.78 20.9433C47.3346 22.5142 47.6063 24.1709 47.5825 25.8366ZM43.6679 20.8454C43.1041 19.7991 42.1992 18.9772 41.1037 18.5162C39.9734 18.1861 38.7958 18.0472 37.6197 18.1052H33.3332V33.7638H37.6784C38.7482 33.8041 39.8179 33.6787 40.8493 33.3919C41.5431 33.1795 42.1791 32.8113 42.7087 32.3153C43.4055 31.579 43.9157 30.6863 44.1963 29.7121C44.5821 28.4438 44.7671 27.1229 44.7444 25.7975C44.8599 24.0828 44.501 22.3695 43.707 20.8454H43.6679Z" fill="#1078FF"/>
<path d="M21.4326 33.4505C22.3527 33.0979 23.2114 32.6025 23.9772 31.9825V28.0679H17.9486V25.68H26.6195V33.2939C25.3757 34.2898 23.9903 35.0946 22.5092 35.6819C21.1133 36.2036 19.6346 36.4689 18.1444 36.4648C16.2398 36.485 14.3589 36.0416 12.6639 35.173C11.0526 34.3551 9.74329 33.0458 8.92541 31.4345C8.07807 29.7479 7.6548 27.8802 7.69229 25.9932C7.67007 24.0575 8.09192 22.1424 8.92541 20.3952C9.67114 18.7353 10.9348 17.3618 12.5269 16.4806C14.1952 15.6198 16.0521 15.1892 17.9291 15.2279C19.3081 15.1963 20.6793 15.4425 21.9611 15.9521C23.0472 16.3631 24.0153 17.0353 24.7797 17.9094C25.5054 18.9154 26.0304 20.0518 26.3259 21.2565L23.8793 21.9219C23.6335 21.0477 23.2432 20.2207 22.7245 19.4753C22.2211 18.8271 21.5415 18.3378 20.7672 18.066C19.8808 17.6719 18.9184 17.4781 17.9486 17.4984C16.8499 17.4744 15.7577 17.6742 14.7386 18.0856C13.9093 18.4178 13.1616 18.9253 12.5465 19.5732C12.0115 20.1504 11.5751 20.8117 11.2546 21.5305C10.7369 22.8384 10.4777 24.2342 10.4913 25.6408C10.4357 27.2331 10.7576 28.816 11.4308 30.2601C12.0271 31.4435 12.9877 32.404 14.171 33.0003C15.3825 33.6165 16.7267 33.9256 18.0857 33.9007C19.2197 33.9612 20.3549 33.8085 21.4326 33.4505Z" fill="#1078FF"/>
<path d="M40.399 99.7254C36.535 99.715 32.8331 98.1714 30.1064 95.4337C27.3796 92.6959 25.851 88.9878 25.8562 85.1238C25.8562 84.7864 25.9902 84.4628 26.2288 84.2242C26.4674 83.9856 26.791 83.8516 27.1284 83.8516H53.7088C54.0462 83.8516 54.3698 83.9856 54.6084 84.2242C54.847 84.4628 54.9811 84.7864 54.9811 85.1238C54.9811 88.993 53.4454 92.704 50.7113 95.4418C47.9772 98.1795 44.2682 99.7202 40.399 99.7254ZM28.4594 86.3961C28.7755 89.3447 30.1707 92.0722 32.3766 94.0542C34.5825 96.0362 37.4433 97.1326 40.4088 97.1326C43.3743 97.1326 46.2351 96.0362 48.441 94.0542C50.6468 92.0722 52.042 89.3447 52.3582 86.3961H28.4594Z" fill="#1078FF"/>
<path d="M47.5042 85.7501L40.3991 66.7249L33.3724 85.574L32.1197 85.2999L30.9257 84.8497V84.6736L39.1464 62.6341C39.2562 62.4112 39.4263 62.2234 39.6373 62.0921C39.8483 61.9609 40.0919 61.8913 40.3404 61.8913C40.5889 61.8913 40.8325 61.9609 41.0435 62.0921C41.2545 62.2234 41.4245 62.4112 41.5344 62.6341L49.8334 84.7715L48.6982 85.3978L47.5042 85.7501Z" fill="#1078FF"/>
<path d="M86.2982 99.7254C82.4324 99.715 78.7284 98.1721 75.9985 95.4349C73.2687 92.6977 71.7357 88.9896 71.7357 85.1238C71.7357 84.7864 71.8697 84.4628 72.1083 84.2242C72.3469 83.9856 72.6705 83.8516 73.008 83.8516H99.6079C99.9454 83.8516 100.269 83.9856 100.508 84.2242C100.746 84.4628 100.88 84.7864 100.88 85.1238C100.88 88.993 99.3445 92.704 96.6104 95.4418C93.8763 98.1795 90.1674 99.7202 86.2982 99.7254ZM74.3389 86.3961C74.6554 89.3497 76.0528 92.082 78.2623 94.0674C80.4718 96.0528 83.3374 97.1512 86.3079 97.1512C89.2784 97.1512 92.1441 96.0528 94.3536 94.0674C96.5631 92.082 97.9605 89.3497 98.277 86.3961H74.3389Z" fill="#1078FF"/>
<path d="M94.7147 86.5721C94.452 86.5774 94.1945 86.4985 93.9797 86.3471C93.7649 86.1957 93.6042 85.9797 93.5208 85.7305L86.3961 66.7249L79.3497 85.5739C79.2298 85.8983 78.9917 86.1653 78.6831 86.3214C78.3745 86.4775 78.0183 86.5111 77.686 86.4155C77.5282 86.3695 77.3818 86.2913 77.2556 86.186C77.1295 86.0807 77.0264 85.9504 76.9529 85.8034C76.8794 85.6564 76.837 85.4959 76.8285 85.3317C76.8199 85.1676 76.8453 85.0035 76.9031 84.8497V84.6735L85.163 62.6341C85.2747 62.4163 85.4445 62.2335 85.6534 62.1059C85.8623 61.9783 86.1024 61.9108 86.3472 61.9108C86.592 61.9108 86.8321 61.9783 87.041 62.1059C87.2499 62.2335 87.4196 62.4163 87.5313 62.6341L95.7521 84.7714V84.9671C95.8655 85.2838 95.8488 85.6325 95.7058 85.937C95.5627 86.2414 95.3049 86.4768 94.9888 86.5917C94.897 86.5965 94.8049 86.5899 94.7147 86.5721Z" fill="#1078FF"/>
<path d="M91.6613 64.3566H66.6663C66.3289 64.3566 66.0053 64.2226 65.7667 63.984C65.5281 63.7454 65.394 63.4218 65.394 63.0844C65.394 62.7469 65.5281 62.4234 65.7667 62.1848C66.0053 61.9462 66.3289 61.8121 66.6663 61.8121H91.6613C91.9987 61.8121 92.3223 61.9462 92.5609 62.1848C92.7995 62.4234 92.9335 62.7469 92.9335 63.0844C92.9335 63.4218 92.7995 63.7454 92.5609 63.984C92.3223 64.2226 91.9987 64.3566 91.6613 64.3566Z" fill="#1078FF"/>
<path d="M60.7748 64.3566H35.8189C35.4815 64.3566 35.1579 64.2226 34.9193 63.984C34.6807 63.7454 34.5467 63.4218 34.5467 63.0844C34.5467 62.7469 34.6807 62.4234 34.9193 62.1848C35.1579 61.9462 35.4815 61.8121 35.8189 61.8121H60.7748C61.1122 61.8121 61.4358 61.9462 61.6744 62.1848C61.913 62.4234 62.047 62.7469 62.047 63.0844C62.047 63.4218 61.913 63.7454 61.6744 63.984C61.4358 64.2226 61.1122 64.3566 60.7748 64.3566Z" fill="#1078FF"/>
<path d="M66.6664 67.3121H60.7944C60.457 67.3121 60.1334 67.1781 59.8948 66.9395C59.6562 66.7009 59.5221 66.3773 59.5221 66.0399V60.1679C59.5272 59.8339 59.6635 59.5153 59.9016 59.2809C60.1396 59.0466 60.4603 58.9152 60.7944 58.9152H66.6664C67.0023 58.9151 67.3251 59.0458 67.5662 59.2797C67.8074 59.5135 67.9479 59.8321 67.9581 60.1679V66.0399C67.953 66.3791 67.8146 66.7027 67.5729 66.9407C67.3312 67.1788 67.0056 67.3122 66.6664 67.3121ZM62.0471 64.7676H65.3549V61.401H62.0079L62.0471 64.7676Z" fill="#1078FF"/>
<path d="M68.2125 109.668C67.9005 109.671 67.5985 109.559 67.364 109.353C67.1294 109.147 66.9786 108.862 66.9402 108.553L63.7302 83.6362L60.5398 108.553C60.518 108.719 60.4639 108.879 60.3803 109.023C60.2967 109.168 60.1853 109.295 60.0526 109.397C59.9199 109.499 59.7684 109.574 59.6068 109.617C59.4452 109.66 59.2767 109.671 59.1109 109.649C58.9458 109.63 58.7863 109.578 58.6416 109.496C58.4968 109.414 58.3698 109.305 58.2677 109.174C58.1657 109.043 58.0908 108.893 58.0474 108.732C58.004 108.572 57.9929 108.404 58.0148 108.24L62.4579 73.4973C62.5003 73.1894 62.6523 72.9071 62.886 72.7021C63.1196 72.4972 63.4194 72.3834 63.7302 72.3816C64.04 72.3798 64.3395 72.4928 64.5708 72.6988C64.8022 72.9049 64.949 73.1893 64.9829 73.4973L69.4652 108.259C69.4871 108.424 69.476 108.591 69.4326 108.752C69.3892 108.912 69.3142 109.062 69.2122 109.193C69.1102 109.325 68.9832 109.434 68.8384 109.516C68.6937 109.597 68.5341 109.649 68.3691 109.668H68.2125Z" fill="#1078FF"/>
<path d="M76.1397 115.971H51.3014C50.964 115.971 50.6404 115.837 50.4018 115.598C50.1632 115.36 50.0292 115.036 50.0292 114.699V106.713C50.0292 106.376 50.1632 106.052 50.4018 105.813C50.6404 105.575 50.964 105.441 51.3014 105.441H59.483C59.6718 105.441 59.8584 105.481 60.0305 105.558C60.2027 105.636 60.3563 105.749 60.4812 105.891C60.6039 106.028 60.6954 106.19 60.7494 106.365C60.8035 106.541 60.8188 106.726 60.7944 106.909V107.124H66.7642V106.909C66.7371 106.728 66.7494 106.543 66.8 106.368C66.8507 106.192 66.9386 106.029 67.0578 105.891C67.1789 105.75 67.329 105.637 67.4979 105.559C67.6668 105.481 67.8505 105.441 68.0364 105.441H76.218C76.5572 105.441 76.8829 105.574 77.1246 105.812C77.3663 106.05 77.5047 106.374 77.5098 106.713V114.699C77.5075 114.874 77.4697 115.046 77.3988 115.206C77.3278 115.366 77.2252 115.509 77.0971 115.628C76.969 115.747 76.8181 115.839 76.6536 115.898C76.489 115.957 76.3142 115.982 76.1397 115.971ZM52.652 113.426H74.9457V107.985H69.5044V108.2C69.5315 108.381 69.5192 108.566 69.4686 108.741C69.4179 108.917 69.33 109.08 69.2108 109.218C69.0954 109.361 68.9492 109.476 68.783 109.554C68.6169 109.632 68.4353 109.671 68.2518 109.668H59.3068C59.1238 109.668 58.9431 109.628 58.7774 109.55C58.6117 109.472 58.465 109.359 58.3478 109.218C58.2286 109.08 58.1406 108.917 58.09 108.741C58.0393 108.566 58.0271 108.381 58.0541 108.2V107.985H52.5737L52.652 113.426Z" fill="#1078FF"/>
<path d="M125.425 155H1.27224C0.934821 155 0.611236 154.866 0.372642 154.627C0.134047 154.389 0 154.065 0 153.728V9.66912C0 9.3317 0.134047 9.00809 0.372642 8.76949C0.611236 8.5309 0.934821 8.39685 1.27224 8.39685C1.60967 8.39685 1.93328 8.5309 2.17188 8.76949C2.41047 9.00809 2.54452 9.3317 2.54452 9.66912V152.553H124.074V122.959C124.074 122.621 124.208 122.298 124.447 122.059C124.686 121.82 125.009 121.686 125.347 121.686C125.684 121.686 126.008 121.82 126.246 122.059C126.485 122.298 126.619 122.621 126.619 122.959V153.728C126.619 154.052 126.496 154.364 126.274 154.601C126.052 154.837 125.749 154.98 125.425 155Z" fill="#1078FF"/>
<path d="M125.425 96.1631C125.088 96.1631 124.764 96.029 124.525 95.7904C124.287 95.5518 124.153 95.2282 124.153 94.8908V32.8243L95.6541 2.56411H2.54452V9.68875C2.54452 10.0262 2.41047 10.3498 2.17188 10.5884C1.93328 10.827 1.60967 10.961 1.27224 10.961C0.934821 10.961 0.611236 10.827 0.372642 10.5884C0.134047 10.3498 0 10.0262 0 9.68875V1.29185C0 0.954429 0.134047 0.630829 0.372642 0.392234C0.611236 0.15364 0.934821 0.0195923 1.27224 0.0195923H96.2022C96.3782 0.0225743 96.5518 0.0604386 96.7131 0.130994C96.8744 0.201549 97.02 0.303406 97.1417 0.430642L126.364 31.4541C126.582 31.6954 126.701 32.0099 126.697 32.3349V94.9691C126.677 95.2928 126.534 95.5966 126.298 95.8185C126.062 96.0404 125.749 96.1637 125.425 96.1631Z" fill="#1078FF"/>
<path d="M95.9085 34.2139C95.5711 34.2139 95.2475 34.0799 95.0089 33.8413C94.7703 33.6027 94.6362 33.2791 94.6362 32.9417V1.27225C94.6362 0.934822 94.7703 0.611222 95.0089 0.372627C95.2475 0.134033 95.5711 0 95.9085 0C96.2459 0 96.5695 0.134033 96.8081 0.372627C97.0467 0.611222 97.1808 0.934822 97.1808 1.27225V31.6498L124.857 31.4933C125.191 31.4932 125.512 31.6246 125.75 31.8589C125.988 32.0933 126.124 32.4119 126.13 32.7459C126.13 33.0852 125.996 33.4109 125.758 33.6526C125.52 33.8943 125.196 34.0326 124.857 34.0378L95.9085 34.2139Z" fill="#1078FF"/>
<path d="M107.359 141.886H19.2796C18.9422 141.886 18.6186 141.752 18.38 141.513C18.1414 141.275 18.0073 140.951 18.0073 140.614C18.0073 140.276 18.1414 139.953 18.38 139.714C18.6186 139.475 18.9422 139.341 19.2796 139.341H107.359C107.696 139.341 108.02 139.475 108.258 139.714C108.497 139.953 108.631 140.276 108.631 140.614C108.631 140.951 108.497 141.275 108.258 141.513C108.02 141.752 107.696 141.886 107.359 141.886Z" fill="#1078FF"/>
<path d="M107.359 135.955H19.2795C18.9403 135.955 18.6146 135.822 18.3729 135.584C18.1312 135.346 17.9928 135.022 17.9877 134.683C17.9928 134.344 18.1312 134.02 18.3729 133.782C18.6146 133.544 18.9403 133.411 19.2795 133.411H107.359C107.696 133.411 108.02 133.545 108.258 133.783C108.497 134.022 108.631 134.346 108.631 134.683C108.631 135.02 108.497 135.344 108.258 135.583C108.02 135.821 107.696 135.955 107.359 135.955Z" fill="#1078FF"/>
<path d="M130.925 124.231H111.92C110.947 124.226 110.016 123.836 109.33 123.146C108.644 122.457 108.259 121.524 108.259 120.551V105.049C108.264 104.713 108.4 104.393 108.638 104.155C108.875 103.918 109.196 103.782 109.532 103.777H114.053C114.39 103.777 114.714 103.911 114.953 104.15C115.191 104.388 115.325 104.712 115.325 105.049C115.325 105.387 115.191 105.71 114.953 105.949C114.714 106.188 114.39 106.322 114.053 106.322H110.804V120.551C110.804 120.849 110.921 121.135 111.129 121.347C111.338 121.559 111.622 121.681 111.92 121.686H130.925C131.266 121.681 131.592 121.544 131.833 121.302C132.074 121.061 132.212 120.736 132.217 120.395V106.302H128.948C128.611 106.302 128.287 106.168 128.049 105.929C127.81 105.691 127.676 105.367 127.676 105.03C127.676 104.692 127.81 104.369 128.049 104.13C128.287 103.891 128.611 103.757 128.948 103.757H133.489C133.825 103.762 134.146 103.898 134.383 104.136C134.621 104.373 134.756 104.694 134.761 105.03V120.375C134.746 121.39 134.338 122.359 133.622 123.078C132.907 123.797 131.94 124.211 130.925 124.231Z" fill="#1078FF"/>
<path d="M128.948 106.302H114.053C113.715 106.302 113.392 106.168 113.153 105.929C112.915 105.691 112.781 105.367 112.781 105.03V101.115C112.781 98.7999 113.7 96.5795 115.337 94.9423C116.975 93.3052 119.195 92.3855 121.51 92.3855C123.148 92.3843 124.751 92.853 126.13 93.736C127.385 94.5146 128.419 95.6014 129.135 96.8931C129.852 98.1847 130.225 99.6382 130.22 101.115V105.03C130.22 105.367 130.086 105.691 129.848 105.929C129.609 106.168 129.285 106.302 128.948 106.302ZM115.247 103.757H127.597V101.213C127.603 100.164 127.337 99.1324 126.826 98.2168C126.315 97.3012 125.576 96.5331 124.681 95.9869C123.712 95.3622 122.585 95.0293 121.432 95.0279C119.793 95.033 118.223 95.6863 117.064 96.8451C115.905 98.0039 115.252 99.5741 115.247 101.213V103.757Z" fill="#1078FF"/>
<path d="M117.596 119.122C117.346 119.114 117.103 119.033 116.899 118.889C116.694 118.745 116.535 118.545 116.442 118.313C116.348 118.081 116.325 117.826 116.373 117.581C116.422 117.336 116.54 117.109 116.715 116.93L124.544 109.238C124.785 109.004 125.108 108.872 125.444 108.872C125.781 108.872 126.104 109.004 126.345 109.238C126.463 109.356 126.557 109.496 126.621 109.651C126.685 109.805 126.718 109.971 126.718 110.138C126.718 110.306 126.685 110.471 126.621 110.626C126.557 110.78 126.463 110.92 126.345 111.039L118.516 118.75C118.268 118.988 117.939 119.122 117.596 119.122Z" fill="#1078FF"/>
<path d="M125.405 119.142C125.241 119.144 125.078 119.112 124.926 119.048C124.774 118.984 124.638 118.889 124.525 118.77L116.695 110.941C116.577 110.823 116.483 110.682 116.419 110.528C116.355 110.373 116.322 110.208 116.322 110.04C116.322 109.873 116.355 109.708 116.419 109.553C116.483 109.399 116.577 109.258 116.695 109.14C116.936 108.906 117.259 108.775 117.596 108.775C117.932 108.775 118.255 108.906 118.496 109.14L126.325 116.871C126.444 116.99 126.537 117.13 126.602 117.284C126.666 117.439 126.699 117.605 126.699 117.772C126.699 117.939 126.666 118.105 126.602 118.259C126.537 118.414 126.444 118.554 126.325 118.672C126.092 118.943 125.761 119.111 125.405 119.142Z" fill="#1078FF"/>
<rect x="4" y="8" width="87" height="38" fill="#B9EEFF"/>
<path d="M18.6691 33.9822H27.7062V36.7439H15.2101V16.8377H18.6691V33.9822ZM44.7414 34.1599C44.0213 35.0987 43.0233 35.8097 41.7472 36.2927C40.4712 36.7758 39.022 37.0173 37.3996 37.0173C35.7316 37.0173 34.2551 36.6391 32.9699 35.8826C31.6847 35.1261 30.6913 34.046 29.9894 32.6423C29.2967 31.2296 28.9367 29.5844 28.9094 27.7068V26.1482C28.9094 23.1404 29.6294 20.7934 31.0695 19.1072C32.5096 17.4119 34.5194 16.5642 37.0988 16.5642C39.3137 16.5642 41.0728 17.1111 42.3762 18.2048C43.6795 19.2986 44.4634 20.8754 44.7277 22.9353H41.3371C40.9543 20.5382 39.5643 19.3396 37.1672 19.3396C35.6177 19.3396 34.4373 19.9002 33.6262 21.0212C32.8241 22.1332 32.4094 23.7693 32.382 25.9295V27.4607C32.382 29.6117 32.8332 31.2843 33.7355 32.4783C34.647 33.6632 35.9094 34.2556 37.5226 34.2556C39.2909 34.2556 40.5487 33.8546 41.2961 33.0525V29.156H37.1945V26.531H44.7414V34.1599ZM52.0012 29.3474V36.7439H48.5422V16.8377H56.1574C58.3814 16.8377 60.145 17.4164 61.4484 18.574C62.7609 19.7315 63.4172 21.2628 63.4172 23.1677C63.4172 25.1183 62.7746 26.6358 61.4894 27.7205C60.2134 28.8051 58.4224 29.3474 56.1164 29.3474H52.0012ZM52.0012 26.572H56.1574C57.3879 26.572 58.3267 26.2849 58.9738 25.7107C59.6209 25.1274 59.9445 24.2888 59.9445 23.1951C59.9445 22.1196 59.6164 21.2628 58.9601 20.6248C58.3039 19.9776 57.4015 19.6449 56.2531 19.6267H52.0012V26.572ZM66.4523 36.7439V16.8377H72.3312C74.0903 16.8377 75.6489 17.2296 77.007 18.0134C78.3742 18.7973 79.4315 19.9093 80.1789 21.3494C80.9263 22.7895 81.3 24.4392 81.3 26.2986V27.2966C81.3 29.1834 80.9217 30.8422 80.1652 32.2732C79.4178 33.7042 78.3469 34.8071 76.9523 35.5818C75.5669 36.3565 73.9764 36.7439 72.1808 36.7439H66.4523ZM69.9113 19.6267V33.9822H72.1672C73.981 33.9822 75.3709 33.4171 76.3371 32.2869C77.3123 31.1475 77.8091 29.516 77.8273 27.3923V26.2849C77.8273 24.1248 77.3579 22.475 76.4191 21.3357C75.4803 20.1964 74.1177 19.6267 72.3312 19.6267H69.9113Z" fill="#1078FF"/>
</svg>
