<svg width="105" height="124" viewBox="0 0 105 124" fill="none" xmlns="http://www.w3.org/2000/svg">
<path d="M50.4302 63.2446V66.8442H36.2659V63.2446C36.2659 61.3687 37.0111 59.5696 38.3375 58.2431C39.664 56.9166 41.4631 56.1714 43.339 56.1714C45.2149 56.1714 47.014 56.9166 48.3405 58.2431C49.667 59.5696 50.4122 61.3687 50.4122 63.2446H50.4302Z" fill="#50D5FF"/>
<path d="M50.4301 68.0681H36.2658C35.9555 68.0681 35.658 67.9449 35.4386 67.7255C35.2192 67.5061 35.0959 67.2085 35.0959 66.8983V63.2987C35.0959 61.1125 35.9644 59.0159 37.5102 57.47C39.0561 55.9241 41.1528 55.0557 43.339 55.0557C45.5252 55.0557 47.6218 55.9241 49.1677 57.47C50.7136 59.0159 51.582 61.1125 51.582 63.2987V66.8983C51.5821 67.2054 51.4613 67.5003 51.2458 67.7192C51.0303 67.9381 50.7373 68.0634 50.4301 68.0681ZM37.4537 65.7284H49.2603V63.2447C49.2603 61.6791 48.6383 60.1775 47.5312 59.0705C46.4242 57.9634 44.9226 57.3414 43.357 57.3414C41.7913 57.3414 40.2898 57.9634 39.1827 59.0705C38.0756 60.1775 37.4537 61.6791 37.4537 63.2447V65.7284Z" fill="#1078FF"/>
<path d="M31.9644 66.8984H54.7498V81.4946C54.7498 81.8137 54.6869 82.1296 54.5648 82.4244C54.4427 82.7192 54.2638 82.987 54.0381 83.2127C53.8125 83.4383 53.5446 83.6173 53.2499 83.7394C52.9551 83.8615 52.6392 83.9243 52.3201 83.9243H34.3221C33.7205 83.9197 33.1444 83.6798 32.7173 83.256C32.2901 82.8323 32.0457 82.2582 32.0364 81.6566L31.9644 66.8984Z" fill="#50D5FF"/>
<path d="M52.32 85.0942H34.3221C33.8668 85.0943 33.4159 85.0043 32.9955 84.8295C32.5751 84.6547 32.1934 84.3986 31.8722 84.0758C31.5511 83.753 31.297 83.3699 31.1244 82.9486C30.9518 82.5273 30.8641 82.076 30.8665 81.6207V66.8624C30.8665 66.5521 30.9897 66.2546 31.2091 66.0352C31.4285 65.8158 31.7261 65.6925 32.0364 65.6925H54.8217C55.1319 65.6925 55.4295 65.8158 55.6489 66.0352C55.8683 66.2546 55.9915 66.5521 55.9915 66.8624V81.4587C55.9964 81.9405 55.9046 82.4184 55.7213 82.8641C55.5381 83.3098 55.2673 83.7141 54.9249 84.0532C54.5825 84.3922 54.1754 84.6591 53.728 84.8379C53.2805 85.0167 52.8018 85.1039 52.32 85.0942ZM33.1343 68.0682V81.6207C33.139 81.9135 33.2586 82.1927 33.4674 82.3981C33.6761 82.6035 33.9573 82.7185 34.2501 82.7185H52.248C52.5821 82.7185 52.9025 82.5858 53.1388 82.3495C53.3751 82.1133 53.5078 81.7928 53.5078 81.4587V68.0323L33.1343 68.0682Z" fill="#1078FF"/>
<path d="M36.1399 20.4275C44.311 20.4395 52.2958 17.9869 59.0513 13.3903C66.8084 19.9595 77.5891 21.4893 90.3676 19.6175C90.3676 36.6616 90.9975 46.6145 90.3676 53.5257C90.2776 54.3536 90.1876 55.1455 90.0796 55.8834C90.0796 56.0814 90.0797 56.2434 89.9897 56.4414C89.8097 57.4133 89.6297 58.3311 89.3778 59.213C88.1539 63.5865 85.7781 66.9701 81.4227 71.3796C81.4227 71.0557 81.5846 70.7497 81.6566 70.4077C81.7286 70.0658 81.8726 69.4359 81.9626 68.9139V68.644C81.9626 68.374 82.0526 68.104 82.0706 67.834C82.0886 67.5641 82.0706 67.4561 82.1606 67.2581C82.1606 66.6822 82.2866 66.0882 82.3226 65.4583C82.3585 64.8284 82.3226 64.4145 82.4486 63.8745C82.8265 57.0173 82.2686 47.4064 82.2686 31.8201C69.508 33.6199 58.7453 32.1261 50.9702 25.5748C44.107 30.2439 35.9814 32.7054 27.6809 32.6301H27.3569C27.3569 28.7965 27.3569 24.531 27.3569 19.6715C29.9498 20.1693 32.582 20.4343 35.2221 20.4634H35.942L36.1399 20.4275Z" fill="#F4FCFF"/>
<path d="M81.4946 72.4776C81.2855 72.4794 81.0799 72.4233 80.9007 72.3156C80.6768 72.1884 80.502 71.99 80.4041 71.7518C80.3062 71.5137 80.291 71.2496 80.3608 71.0018V70.8398C80.3608 70.6058 80.5047 70.3538 80.5587 70.1019C80.6127 69.8499 80.7567 69.148 80.8467 68.6441V68.4641V68.1581V67.6902C80.8467 67.3842 80.8467 67.2402 80.9367 67.0782C80.9367 66.4843 81.0807 65.9264 81.1167 65.2784L81.2247 63.7486C81.4406 59.8431 81.3507 54.9836 81.2247 48.8103C81.2247 44.2748 81.0447 39.1814 81.0267 33.0441C68.1282 34.6999 58.0613 32.6601 50.8261 26.9248C43.995 31.3434 36.0324 33.6934 27.8968 33.692H27.6088C27.4293 33.7094 27.2485 33.7094 27.0689 33.692C26.7989 33.6378 26.5562 33.4915 26.3822 33.2781C26.2082 33.0647 26.1138 32.7975 26.115 32.5222C26.115 28.7066 26.115 24.4411 26.115 19.5817C26.1147 19.4096 26.1524 19.2395 26.2253 19.0836C26.2983 18.9278 26.4047 18.7899 26.5371 18.6799C26.6694 18.5699 26.8244 18.4904 26.991 18.4472C27.1576 18.4039 27.3317 18.398 27.5009 18.4298C30.0288 18.9128 32.5945 19.1718 35.168 19.2037H35.8699C43.8088 19.2075 51.5656 16.8246 58.1333 12.3645C58.3333 12.2068 58.5806 12.1211 58.8352 12.1211C59.0899 12.1211 59.3371 12.2068 59.5371 12.3645C66.5923 18.3398 76.5092 20.3016 89.9177 18.3398C90.0838 18.3194 90.2524 18.3328 90.4132 18.3792C90.574 18.4256 90.7238 18.504 90.8535 18.6098C90.9847 18.7159 91.0902 18.8504 91.1619 19.0032C91.2336 19.1559 91.2697 19.323 91.2675 19.4917C91.2675 26.1509 91.3575 31.6223 91.4475 36.4457C91.5735 43.8429 91.6635 49.1883 91.2855 53.4898C91.1955 54.3537 91.1055 55.1636 90.9975 55.9195C90.9975 56.2075 90.9975 56.3154 90.9975 56.4234C90.7996 57.5393 90.6196 58.3852 90.4216 59.1411C90.4299 59.2189 90.4299 59.2974 90.4216 59.3751C89.1977 63.7666 86.822 67.3122 82.1786 71.9737C82.0158 72.2158 81.7741 72.3939 81.4946 72.4776ZM82.3945 30.5784C82.6783 30.5803 82.9524 30.6823 83.1684 30.8663C83.2944 30.9759 83.395 31.1115 83.4634 31.2638C83.5317 31.4161 83.5662 31.5814 83.5644 31.7483C83.5644 38.4615 83.6724 43.9508 83.7624 48.8103C83.8704 55.0196 83.9604 59.915 83.7624 63.8566C83.7624 64.4685 83.7624 64.9905 83.6364 65.4944C83.5104 65.9984 83.5284 66.7363 83.4564 67.2942C83.4564 67.2942 83.4564 67.4202 83.4564 67.4922C85.6816 65.0723 87.3305 62.1805 88.2798 59.0332C88.2798 59.0332 88.2798 58.9071 88.2798 58.8352C88.5294 57.9535 88.7277 57.0581 88.8738 56.1535C88.8634 56.0097 88.8634 55.8653 88.8738 55.7215C88.9818 54.9116 89.0718 54.1377 89.1618 53.3278C89.5217 49.1703 89.4317 43.8609 89.3057 36.5357C89.2157 32.0183 89.1257 26.9608 89.1257 20.8955C76.1672 22.5513 66.1424 20.4996 58.8892 14.7582C52.1034 19.1881 44.1717 21.54 36.0679 21.5254H35.15C32.9729 21.4948 30.8012 21.3023 28.6527 20.9495C28.6527 24.7651 28.6527 28.1487 28.6527 31.3703C36.4255 31.2587 43.9957 28.875 50.4302 24.5131C50.6423 24.3738 50.8939 24.3073 51.1471 24.3235C51.4004 24.3398 51.6414 24.4379 51.834 24.6031C58.9072 30.5604 68.8241 32.5042 82.2145 30.5784H82.3945Z" fill="#1078FF"/>
<path d="M35.4919 7.43307C40.8914 8.55613 46.4614 8.58362 51.8717 7.51393C57.282 6.44423 62.4225 4.29914 66.9883 1.20581C74.7634 7.77505 85.5082 9.30486 98.2867 7.43307C98.2867 42.997 101.094 47.4245 89.4497 59.1411C89.6955 58.2414 89.8878 57.3279 90.0256 56.4054C90.0256 56.2074 90.0257 56.0454 90.1157 55.8475C90.2236 55.0916 90.3136 54.3176 90.4036 53.4897C90.9975 46.5065 90.4036 36.6257 90.4036 19.5817C77.625 21.3815 66.8443 19.9236 59.0872 13.3544C52.3256 17.9708 44.327 20.4362 36.1398 20.4276H35.4199C35.4559 16.558 35.4919 12.2925 35.4919 7.43307Z" fill="#B9EEFF"/>
<path d="M89.4496 60.3112C89.2491 60.3084 89.052 60.2591 88.8737 60.1671C88.6466 60.0428 88.468 59.8455 88.3667 59.6071C88.2655 59.3687 88.2476 59.1032 88.3158 58.8533C88.5466 57.9875 88.7328 57.1105 88.8737 56.2256C88.8603 56.07 88.8603 55.9134 88.8737 55.7577C88.9817 54.9298 89.0717 54.1738 89.1617 53.3639C89.5217 49.2064 89.4317 43.897 89.3057 36.5719C89.2157 32.0544 89.1257 26.997 89.1257 20.9317C76.1672 22.5875 66.1423 20.5357 58.8892 14.7944C52.1033 19.2242 44.1716 21.5762 36.0678 21.5616H35.2759C34.9783 21.5432 34.6988 21.4119 34.4948 21.1945C34.2907 20.977 34.1774 20.6899 34.178 20.3917C34.178 16.5762 34.178 12.3107 34.178 7.45122C34.1816 7.27908 34.2219 7.1097 34.2965 6.95448C34.371 6.79926 34.4778 6.66179 34.6099 6.55133C34.7422 6.44445 34.8955 6.36676 35.0599 6.32333C35.2243 6.27991 35.396 6.2717 35.5638 6.29933C40.8094 7.38096 46.2183 7.40319 51.4726 6.36469C56.7269 5.32619 61.7206 3.24794 66.1603 0.252048C66.3628 0.100174 66.6091 0.0180664 66.8622 0.0180664C67.1154 0.0180664 67.3617 0.100174 67.5642 0.252048C74.6194 6.22736 84.5362 8.1891 97.9447 6.22732C98.1108 6.20692 98.2794 6.22037 98.4402 6.26676C98.601 6.31315 98.7508 6.39158 98.8806 6.49733C99.003 6.60974 99.1012 6.7459 99.1693 6.89752C99.2374 7.04914 99.2739 7.21304 99.2765 7.37922C99.2765 14.0385 99.3845 19.4918 99.4565 24.3153C99.8344 45.1029 99.9245 50.0343 90.0976 59.9152C89.9335 60.1177 89.7047 60.2576 89.4496 60.3112ZM90.3675 18.412C90.6452 18.4181 90.9122 18.5198 91.1235 18.6999C91.2547 18.8061 91.3601 18.9406 91.4318 19.0933C91.5035 19.2461 91.5396 19.4131 91.5374 19.5818C91.5374 26.2411 91.6274 31.7125 91.7174 36.5359C91.8434 43.933 91.9334 49.2784 91.5554 53.5799C91.5554 54.2279 91.4294 54.8038 91.3574 55.3797C97.7107 47.9826 97.6207 42.5832 97.2968 24.4052C97.2968 19.9058 97.1348 14.8484 97.1168 8.78305C84.1942 10.4569 74.1514 8.38709 66.9162 2.64575C57.9718 8.44782 47.1642 10.653 36.6617 8.81903C36.6617 12.6346 36.6617 16.0182 36.6617 19.2218C44.441 19.1328 52.0217 16.7541 58.4572 12.3826C58.6572 12.225 58.9045 12.1393 59.1591 12.1393C59.4138 12.1393 59.661 12.225 59.861 12.3826C66.9162 18.358 76.8331 20.3017 90.2415 18.358L90.3675 18.412Z" fill="#1078FF"/>
<path d="M74.4573 43.825C61.6968 45.6247 50.916 44.1309 43.1589 37.5617C42.439 38.0296 41.7191 38.4975 40.9992 38.9115C38.5084 40.3911 35.8655 41.5979 33.1161 42.5111C31.8647 42.9398 30.5909 43.3003 29.3005 43.591C26.1175 44.3038 22.861 44.6361 19.5996 44.5809C19.5996 40.7653 19.5996 36.4638 19.5996 31.6404C22.2011 32.1204 24.8377 32.3853 27.4827 32.4323H27.8066C36.1072 32.5077 44.2327 30.0461 51.096 25.3771C58.8711 31.9283 69.6339 33.4581 82.3944 31.6224C82.3944 47.2086 82.9524 56.8195 82.5744 63.6767C82.5744 64.2166 82.5744 64.7565 82.4484 65.2605C82.3224 65.7644 82.3584 66.4844 82.2864 67.0603C82.2864 67.2403 82.2864 67.4383 82.1964 67.6362C82.1064 67.8342 82.1964 68.1761 82.0884 68.4461V68.7161C81.9984 69.238 81.8905 69.724 81.7825 70.2099C81.6745 70.6959 81.6205 70.8579 81.5485 71.1818C80.3247 75.5733 77.9489 78.9569 73.5934 83.3484C73.5934 83.1144 73.7194 82.8625 73.7914 82.6285L73.8814 82.2685C73.9894 81.7286 74.1153 81.1886 74.2053 80.5947C74.2953 80.0008 74.3493 79.6228 74.4033 79.1009C74.3923 79.0719 74.3923 79.0399 74.4033 79.0109C74.4873 78.267 74.5593 77.4931 74.6193 76.6892C75.0872 69.778 74.5113 60.0231 74.5113 43.771L74.4573 43.825Z" fill="#A9EAFF"/>
<path d="M73.5395 84.6442C73.3307 84.6433 73.1259 84.5874 72.9456 84.4822C72.7198 84.3484 72.5455 84.1425 72.4508 83.8977C72.3561 83.6528 72.3466 83.3833 72.4236 83.1323L72.6036 82.4305C72.642 82.3188 72.6721 82.2045 72.6936 82.0885V81.7645C72.6936 81.3685 72.8556 80.9726 72.9096 80.5406C72.9635 80.1087 73.0716 79.5867 73.1256 79.1188C73.1168 79.0712 73.1168 79.0224 73.1256 78.9748C73.2156 78.2549 73.2695 77.517 73.3235 76.7251C73.5935 72.6936 73.5215 67.7261 73.3235 60.8149C73.3235 56.3155 73.1615 51.276 73.1435 45.2287C70.3981 45.5866 67.6331 45.773 64.8645 45.7867C55.8656 45.7867 48.5224 43.5369 42.9251 39.0734L41.4312 39.9913C38.8683 41.5113 36.154 42.7599 33.3321 43.7169C32.0747 44.1459 30.795 44.5064 29.4986 44.7968H29.3546C26.3065 45.4814 23.1917 45.8255 20.0677 45.8227H19.3658C19.2121 45.8203 19.0604 45.7877 18.9194 45.7268C18.7784 45.6658 18.6507 45.5776 18.5438 45.4673C18.4368 45.357 18.3526 45.2268 18.296 45.0839C18.2394 44.9411 18.2115 44.7885 18.2139 44.6348C18.2139 40.8193 18.2139 36.5357 18.2139 31.7123C18.2151 31.5397 18.2544 31.3695 18.3291 31.214C18.4037 31.0584 18.5119 30.9213 18.6458 30.8124C18.7781 30.7055 18.9314 30.6278 19.0958 30.5844C19.2602 30.541 19.432 30.5328 19.5997 30.5605C22.1351 31.0344 24.7059 31.2933 27.2849 31.3344H27.8788C35.8483 31.3375 43.6354 28.9487 50.2322 24.4772C50.4443 24.3379 50.6959 24.2713 50.9492 24.2876C51.2024 24.3038 51.4435 24.4019 51.636 24.5671C58.7092 30.5244 68.6261 32.4682 82.0165 30.5424C82.1828 30.5124 82.3537 30.5212 82.516 30.568C82.6784 30.6148 82.8277 30.6984 82.9524 30.8124C83.0784 30.9219 83.179 31.0576 83.2474 31.2098C83.3157 31.3621 83.3502 31.5274 83.3484 31.6943C83.3484 38.4076 83.4563 43.8969 83.5463 48.7563C83.6543 54.9656 83.7443 59.8611 83.5463 63.8026C83.5463 64.4145 83.5464 64.9365 83.4204 65.4404C83.2944 65.9444 83.3124 66.6823 83.2404 67.2402C83.2404 67.4382 83.2404 67.6541 83.2404 67.8881C83.25 68.068 83.25 68.2482 83.2404 68.4281L83.1324 69.004C83.1324 69.4719 82.9524 69.9759 82.8444 70.4798C82.7365 70.9838 82.7005 71.0737 82.6285 71.3617C81.3686 75.8972 79.0289 79.4608 74.3314 84.2122C74.1345 84.4547 73.85 84.6099 73.5395 84.6442ZM75.5013 79.4248V79.6768C77.7802 77.2042 79.4504 74.2337 80.3787 71.0018C80.4867 70.6058 80.5587 70.3538 80.6127 70.1019C80.6667 69.8499 80.8106 69.13 80.9006 68.6441V68.4641V68.1581V67.6902C80.9006 67.3842 80.9007 67.2222 80.9907 67.0602C80.9907 66.4843 81.1346 65.9264 81.1706 65.2604L81.2786 63.7306C81.4946 59.8251 81.4046 54.9656 81.2786 48.7924C81.2786 44.2569 81.0986 39.1635 81.0806 33.0262C68.1581 34.682 58.1153 32.6302 50.8801 26.9069C44.049 31.3254 36.0864 33.6754 27.9508 33.6741H27.2668C25.097 33.6212 22.9327 33.4288 20.7876 33.0982C20.7876 36.8957 20.7876 40.2973 20.7876 43.4829C23.5416 43.4442 26.2849 43.1307 28.9767 42.5471H29.1206C30.3742 42.2728 31.6119 41.9304 32.8282 41.5212C35.4956 40.5892 38.059 39.3828 40.4773 37.9216C41.1792 37.5076 41.8812 37.0577 42.5831 36.6077C42.7952 36.4685 43.0468 36.402 43.3 36.4182C43.5533 36.4344 43.7943 36.5325 43.9869 36.6978C51.0421 42.6551 60.959 44.6168 74.3674 42.673C74.5335 42.6583 74.7007 42.6771 74.8593 42.7284C75.0179 42.7797 75.1646 42.8624 75.2906 42.9716C75.4165 43.0808 75.5192 43.2142 75.5925 43.3639C75.6658 43.5136 75.7083 43.6765 75.7173 43.8429C75.7173 50.4662 75.8072 55.9195 75.8972 60.725C76.0232 67.6722 76.1132 72.6936 75.8972 76.8331C75.8972 77.661 75.8252 78.4529 75.6812 79.2088C75.6812 79.2088 75.5193 79.3708 75.5013 79.4248Z" fill="#1078FF"/>
<path d="M43.1591 37.6335C50.9163 44.2028 61.697 45.7326 74.4576 43.8968C74.4576 60.095 75.0515 69.9038 74.5836 76.815C74.5836 77.631 74.5116 78.4049 74.3676 79.1368C74.3565 79.1658 74.3565 79.1978 74.3676 79.2268C74.3676 79.7488 74.2416 80.2347 74.1696 80.7206C74.0976 81.2066 73.9536 81.8545 73.8456 82.3944C73.8093 82.5127 73.7792 82.6329 73.7556 82.7544C73.7556 82.9884 73.6297 83.2403 73.5577 83.4743C71.038 92.5633 63.6408 97.3147 43.1772 115.961C7.68525 83.7982 11.6988 95.029 11.6988 43.9688C14.294 44.4506 16.9248 44.7155 19.5639 44.7607C22.8261 44.8349 26.0848 44.5024 29.2647 43.7709C30.5564 43.485 31.8305 43.1244 33.0804 42.691C35.8298 41.7778 38.4727 40.571 40.9634 39.0914C41.6653 38.5694 42.4392 38.1015 43.1591 37.6335ZM36.266 66.8982H31.9465V81.6205C31.9559 82.2221 32.2002 82.7962 32.6274 83.22C33.0545 83.6438 33.6305 83.8837 34.2322 83.8883H52.2301C52.8745 83.8883 53.4925 83.6323 53.9482 83.1766C54.4038 82.721 54.6598 82.103 54.6598 81.4585V66.8622H50.3404V63.2626C50.3404 61.3867 49.5951 59.5876 48.2686 58.2611C46.9422 56.9346 45.1431 56.1894 43.2672 56.1894C41.3913 56.1894 39.5922 56.9346 38.2657 58.2611C36.9392 59.5876 36.194 61.3867 36.194 63.2626L36.266 66.8982Z" fill="#B9EEFF"/>
<path d="M43.159 117.131C42.8654 117.135 42.5815 117.025 42.3672 116.825C37.7237 112.613 33.8181 109.193 30.3625 106.188C10.3309 88.6938 10.1509 88.1899 10.4388 57.8273C10.4388 53.7598 10.4388 49.1523 10.4388 43.8969C10.4387 43.7241 10.4775 43.5535 10.5523 43.3978C10.6271 43.242 10.7359 43.105 10.8708 42.997C10.9983 42.8823 11.1514 42.7996 11.3173 42.7557C11.4832 42.7119 11.6571 42.7082 11.8247 42.745C14.3548 43.2128 16.9192 43.4716 19.4918 43.5189H20.3377C23.1955 43.5259 26.045 43.212 28.8327 42.583H28.9767C30.2315 42.3135 31.4694 41.9709 32.6843 41.5572C35.3516 40.6251 37.9151 39.4188 40.3334 37.9576C41.0353 37.5436 41.7372 37.0937 42.4571 36.6437C42.6654 36.503 42.9146 36.4354 43.1654 36.4517C43.4163 36.468 43.6546 36.5672 43.8429 36.7337C50.8981 42.691 60.815 44.6528 74.2234 42.709C74.3909 42.6889 74.5607 42.7042 74.7219 42.7538C74.8831 42.8034 75.0321 42.8862 75.1593 42.997C75.2852 43.1066 75.3859 43.2421 75.4543 43.3944C75.5227 43.5467 75.5571 43.712 75.5552 43.8789C75.5552 50.5561 75.6633 56.0455 75.7532 60.887C75.8612 67.7802 75.9512 72.7656 75.7532 76.8691C75.7532 77.697 75.6813 78.489 75.5373 79.2449C75.5373 79.2449 75.5373 79.3709 75.5373 79.4249V79.8928C75.5373 80.2348 75.5372 80.5767 75.3933 80.9187C75.2493 81.2606 75.2313 81.7826 75.1413 82.2145V82.6105L75.0513 82.9345L74.9433 83.3484L74.8353 83.7804C72.7476 91.2856 67.6362 95.821 55.3076 106.764C52.104 109.625 48.3964 112.919 44.1129 116.807C43.9896 116.93 43.8394 117.024 43.6739 117.08C43.5085 117.137 43.3322 117.154 43.159 117.131ZM12.8686 45.2827C12.8686 49.9802 12.8686 54.1377 12.8686 57.8813C12.5806 87.506 12.5806 87.506 31.9823 104.46C35.2579 107.304 38.9295 110.507 43.249 114.413C47.2086 110.813 50.6641 107.754 53.6878 105.072C65.6384 94.4352 70.6059 90.0437 72.5136 83.1864L72.6936 82.4665C72.7145 82.3621 72.7446 82.2597 72.7836 82.1605V81.8006C72.7836 81.4047 72.9456 81.0087 72.9996 80.5768C73.0638 80.2675 73.1118 79.9551 73.1435 79.6408V79.1009C73.1366 79.0713 73.1366 79.0405 73.1435 79.0109C73.1435 78.291 73.2875 77.5531 73.3415 76.7612C73.6115 72.7476 73.5215 67.7622 73.3415 60.995C73.2515 56.4595 73.1615 51.384 73.1435 45.2647C60.203 46.9205 50.1602 44.8508 42.943 39.1095L41.4492 40.0274C38.8864 41.5473 36.172 42.7959 33.3502 43.7529C32.0942 44.1866 30.8142 44.5471 29.5166 44.8328H29.3727C26.3858 45.5193 23.3304 45.8635 20.2657 45.8587H19.3658C17.1898 45.8085 15.0194 45.6161 12.8686 45.2827ZM52.338 85.0942H34.34C33.8832 85.0966 33.4305 85.0084 33.0079 84.8347C32.5854 84.661 32.2015 84.4052 31.8785 84.0822C31.5555 83.7591 31.2998 83.3753 31.126 82.9527C30.9523 82.5302 30.8641 82.0775 30.8665 81.6206V66.8623C30.8665 66.552 30.9897 66.2545 31.2091 66.0351C31.4285 65.8157 31.726 65.6924 32.0363 65.6924H35.1859V63.2087C35.1859 61.0225 36.0544 58.9259 37.6003 57.38C39.1462 55.8341 41.2428 54.9657 43.429 54.9657C45.6152 54.9657 47.7118 55.8341 49.2577 57.38C50.8036 58.9259 51.672 61.0225 51.672 63.2087V65.6924H54.8217C55.1319 65.6924 55.4295 65.8157 55.6489 66.0351C55.8683 66.2545 55.9915 66.552 55.9915 66.8623V81.4587C55.9964 81.9405 55.9046 82.4184 55.7213 82.8641C55.5381 83.3098 55.2673 83.7141 54.9249 84.0532C54.5825 84.3922 54.1755 84.6591 53.728 84.8379C53.2805 85.0167 52.8018 85.1039 52.32 85.0942H52.338ZM33.1522 68.0682V81.6206C33.1569 81.9134 33.2765 82.1927 33.4853 82.398C33.6941 82.6034 33.9752 82.7185 34.2681 82.7185H52.266C52.6001 82.7185 52.9206 82.5858 53.1568 82.3495C53.3931 82.1132 53.5258 81.7928 53.5258 81.4587V68.0322H50.3762C50.0659 68.0322 49.7683 67.9089 49.549 67.6895C49.3296 67.4701 49.2063 67.1725 49.2063 66.8623V63.2627C49.2063 61.697 48.5844 60.1955 47.4773 59.0884C46.3702 57.9813 44.8687 57.3594 43.303 57.3594C41.7374 57.3594 40.2358 57.9813 39.1288 59.0884C38.0217 60.1955 37.3997 61.697 37.3997 63.2627V66.8623C37.3997 67.1725 37.2764 67.4701 37.057 67.6895C36.8376 67.9089 36.5401 68.0322 36.2299 68.0322L33.1522 68.0682Z" fill="#1078FF"/>
<path d="M74.3675 80.3065H74.2415C74.0882 80.291 73.9395 80.2448 73.8044 80.1708C73.6692 80.0968 73.5502 79.9964 73.4546 79.8755C73.3589 79.7547 73.2885 79.6159 73.2474 79.4673C73.2064 79.3188 73.1956 79.1635 73.2156 79.0107C73.2156 78.2908 73.3596 77.5349 73.4136 76.743C73.6836 72.7115 73.6116 67.7441 73.4136 60.8329C73.3236 56.0454 73.2336 50.6281 73.2336 44.0589V43.8249C73.2312 43.6721 73.2592 43.5204 73.3161 43.3786C73.3729 43.2367 73.4573 43.1076 73.5645 42.9988C73.6717 42.8899 73.7995 42.8034 73.9405 42.7444C74.0814 42.6854 74.2327 42.655 74.3855 42.655C74.6974 42.655 74.9969 42.7777 75.2191 42.9966C75.4414 43.2154 75.5686 43.513 75.5734 43.8249C75.5734 50.4481 75.6634 55.9015 75.7533 60.7069C75.8793 67.6541 75.9693 72.6754 75.7533 76.8149C75.7533 77.6428 75.6814 78.4347 75.5374 79.1907C75.5192 79.49 75.3886 79.7714 75.1716 79.9783C74.9546 80.1853 74.6673 80.3025 74.3675 80.3065Z" fill="#1078FF"/>
<path d="M74.1515 81.8904H73.9356C73.7849 81.8644 73.6409 81.8087 73.512 81.7265C73.3831 81.6443 73.2718 81.5373 73.1847 81.4116C73.0976 81.286 73.0364 81.1442 73.0046 80.9947C72.9729 80.8451 72.9712 80.6908 72.9997 80.5406C72.9997 80.0906 73.1436 79.6047 73.1976 79.1368C73.202 78.976 73.2396 78.8179 73.3078 78.6723C73.3761 78.5267 73.4736 78.3967 73.5944 78.2905C73.7151 78.1843 73.8565 78.1041 74.0096 78.055C74.1627 78.0058 74.3244 77.9888 74.4844 78.0049C74.6444 78.021 74.7993 78.07 74.9396 78.1487C75.0798 78.2274 75.2024 78.3341 75.2995 78.4623C75.3966 78.5905 75.4663 78.7373 75.5041 78.8936C75.5419 79.0499 75.5471 79.2124 75.5194 79.3708C75.5194 79.9107 75.3934 80.4506 75.3034 80.9545C75.2462 81.2181 75.101 81.4544 74.8916 81.6245C74.6823 81.7946 74.4212 81.8883 74.1515 81.8904Z" fill="#1078FF"/>
<path d="M73.7375 83.9243H73.3955C73.1 83.833 72.8526 83.6283 72.7076 83.3551C72.5626 83.0819 72.5317 82.7624 72.6216 82.4665V82.3405C72.6297 82.2747 72.6297 82.2083 72.6216 82.1425C72.7027 81.8418 72.9 81.5856 73.17 81.4304C73.44 81.2751 73.7607 81.2335 74.0614 81.3146C74.3621 81.3957 74.6183 81.5931 74.7736 81.8631C74.9288 82.1331 74.9705 82.4537 74.8893 82.7545C74.8893 82.9524 74.8893 83.0424 74.7813 83.1324C74.7084 83.3548 74.5694 83.5498 74.3829 83.6913C74.1965 83.8327 73.9713 83.914 73.7375 83.9243Z" fill="#1078FF"/>
<path d="M43.159 117.13C42.8654 117.135 42.5816 117.025 42.3672 116.824C37.7237 112.613 33.8181 109.193 30.3625 106.188C10.3309 88.6936 10.1509 88.1897 10.4388 57.8272C10.4388 53.7597 10.4388 49.1523 10.4388 43.8969C10.4387 43.7241 10.4775 43.5535 10.5523 43.3977C10.6271 43.2419 10.7359 43.105 10.8708 42.997C10.9983 42.8822 11.1514 42.7995 11.3173 42.7557C11.4832 42.7119 11.6571 42.7082 11.8247 42.745C14.3548 43.2127 16.9192 43.4716 19.4918 43.5189C22.6628 43.5925 25.8307 43.2721 28.9227 42.565C29.0778 42.5118 29.2422 42.4918 29.4055 42.5063C29.5687 42.5207 29.7271 42.5693 29.8704 42.6489C30.0137 42.7285 30.1386 42.8373 30.2371 42.9682C30.3357 43.0992 30.4056 43.2495 30.4423 43.4092C30.4791 43.5689 30.4819 43.7346 30.4505 43.8954C30.4192 44.0563 30.3544 44.2088 30.2603 44.343C30.1663 44.4772 30.045 44.5902 29.9045 44.6746C29.764 44.7589 29.6073 44.8128 29.4446 44.8327C26.165 45.5913 22.8032 45.936 19.4378 45.8586C17.2077 45.8156 14.983 45.6232 12.7786 45.2827C12.7786 49.9801 12.7786 54.1377 12.7786 57.8812C12.4906 87.5058 12.4906 87.5058 31.8924 104.46C35.168 107.303 38.8395 110.507 43.159 114.413C47.1186 110.813 50.5742 107.753 53.5978 105.072C65.5485 94.435 70.5159 90.0435 72.4236 83.1863C72.5076 82.8882 72.7063 82.6356 72.9762 82.4838C73.2461 82.332 73.5652 82.2933 73.8635 82.3764C74.1616 82.4603 74.4142 82.659 74.566 82.9289C74.7178 83.1988 74.7564 83.5179 74.6734 83.8162C72.5856 91.3393 67.4742 95.8748 55.1456 106.818C51.942 109.679 48.2344 112.973 43.9509 116.86C43.731 117.048 43.4478 117.145 43.159 117.13Z" fill="#1078FF"/>
<path d="M29.2827 44.8508C29.0176 44.8489 28.7611 44.757 28.5551 44.5903C28.3491 44.4235 28.2059 44.1917 28.1488 43.9329C28.0843 43.6277 28.1426 43.3093 28.311 43.0466C28.4794 42.784 28.7444 42.598 29.0487 42.5291C30.3034 42.2595 31.5414 41.917 32.7562 41.5033C32.9003 41.4523 33.0532 41.4307 33.2057 41.4394C33.3583 41.4481 33.5076 41.4871 33.645 41.5541C33.7823 41.6211 33.905 41.7147 34.0058 41.8296C34.1066 41.9445 34.1835 42.0783 34.2321 42.2231C34.3297 42.5192 34.307 42.8417 34.169 43.1212C34.0309 43.4006 33.7885 43.6146 33.4942 43.717C32.196 44.157 30.8741 44.5235 29.5346 44.8148L29.2827 44.8508Z" fill="#1078FF"/>
<path d="M40.9992 40.2253C40.7953 40.2271 40.5945 40.1748 40.4174 40.0736C40.2403 39.9724 40.0933 39.826 39.9913 39.6493C39.8338 39.382 39.7889 39.0631 39.8666 38.7627C39.9442 38.4623 40.138 38.205 40.4053 38.0475C41.1072 37.6336 41.8091 37.1836 42.511 36.7336C42.6399 36.6485 42.7842 36.5897 42.9357 36.5603C43.0873 36.531 43.2432 36.5318 43.3944 36.5628C43.5457 36.5937 43.6893 36.6541 43.8172 36.7405C43.9451 36.827 44.0548 36.9378 44.1398 37.0666C44.2249 37.1954 44.2838 37.3397 44.3131 37.4913C44.3425 37.6429 44.3416 37.7987 44.3107 37.95C44.2798 38.1012 44.2194 38.2449 44.1329 38.3728C44.0465 38.5007 43.9357 38.6103 43.8069 38.6954C43.069 39.1634 42.331 39.6314 41.5931 40.0633C41.4128 40.1686 41.208 40.2244 40.9992 40.2253Z" fill="#1078FF"/>
<path d="M82.4487 66.5561H82.3407C82.1867 66.5405 82.0374 66.4944 81.9013 66.4206C81.7653 66.3468 81.6453 66.2467 81.5482 66.1262C81.4511 66.0057 81.3789 65.8671 81.3357 65.7185C81.2926 65.5698 81.2793 65.4141 81.2968 65.2603C81.2968 64.7924 81.2968 64.2885 81.4048 63.7845L83.7445 63.8746C83.7445 64.4685 83.7445 64.9904 83.6185 65.4943C83.5915 65.7855 83.4564 66.056 83.2399 66.2525C83.0234 66.4491 82.7411 66.5574 82.4487 66.5561Z" fill="#1078FF"/>
<path d="M82.1965 69.0221H81.9806C81.8292 68.994 81.6848 68.9362 81.5558 68.8522C81.4268 68.7682 81.3156 68.6595 81.2287 68.5325C81.1417 68.4054 81.0807 68.2624 81.0491 68.1117C81.0176 67.961 81.0161 67.8055 81.0447 67.6542C81.0447 67.4922 81.0447 67.3303 81.0447 67.1683C81.0557 67.0141 81.098 66.8639 81.1692 66.7267C81.2403 66.5896 81.3387 66.4684 81.4584 66.3706C81.578 66.2728 81.7164 66.2006 81.865 66.1583C82.0136 66.1159 82.1693 66.1044 82.3225 66.1244C82.4757 66.1378 82.6247 66.1818 82.7606 66.2537C82.8966 66.3256 83.0167 66.424 83.114 66.5431C83.2113 66.6622 83.2838 66.7996 83.3271 66.9471C83.3705 67.0947 83.3838 67.2495 83.3664 67.4023C83.3664 67.6362 83.3664 67.8522 83.3664 68.0862C83.3086 68.3528 83.1607 68.5914 82.9476 68.7618C82.7346 68.9323 82.4694 69.0241 82.1965 69.0221Z" fill="#1078FF"/>
<path d="M81.7286 71.5057H81.4946C81.3441 71.478 81.2008 71.4201 81.0734 71.3356C80.9459 71.251 80.8368 71.1416 80.7528 71.0138C80.6687 70.886 80.6114 70.7425 80.5842 70.5919C80.557 70.4414 80.5606 70.2869 80.5947 70.1378C80.7027 69.6699 80.7927 69.2019 80.8827 68.7159V68.536L82.0525 68.644L83.1864 68.878V69.1659C83.1864 69.6338 83.0064 70.1378 82.8984 70.6418C82.8267 70.895 82.6729 71.1173 82.4612 71.2737C82.2494 71.43 81.9917 71.5116 81.7286 71.5057Z" fill="#1078FF"/>
<path d="M73.5395 84.6442C73.3308 84.6433 73.1259 84.5874 72.9456 84.4822C72.7198 84.3484 72.5455 84.1425 72.4509 83.8977C72.3562 83.6528 72.3466 83.3833 72.4237 83.1323L72.6037 82.4305C72.6245 82.326 72.6546 82.2236 72.6936 82.1245V81.7645C72.6936 81.3685 72.8556 80.9726 72.9096 80.5406C72.9738 80.2314 73.0219 79.919 73.0536 79.6048V79.0648C73.0467 79.0352 73.0467 79.0044 73.0536 78.9748C73.0536 78.2549 73.1976 77.517 73.2516 76.7251C73.5215 72.7116 73.4315 67.7261 73.2516 60.9589C73.1616 56.4234 73.0716 51.348 73.0536 45.2288C60.0411 46.8846 50.1423 44.8868 42.8531 39.0915L41.3593 39.9914C38.7964 41.5113 36.082 42.7599 33.2602 43.7169C32.0028 44.146 30.7231 44.5064 29.4267 44.7968H29.2827C26.0057 45.5349 22.6524 45.8792 19.2939 45.8227C19.1402 45.8203 18.9886 45.7877 18.8475 45.7268C18.7065 45.6658 18.5788 45.5777 18.4719 45.4673C18.3649 45.357 18.2807 45.2268 18.2241 45.0839C18.1675 44.9411 18.1396 44.7885 18.142 44.6348C18.142 40.8193 18.142 36.5357 18.142 31.7123C18.1432 31.5397 18.1825 31.3695 18.2572 31.214C18.3318 31.0584 18.44 30.9213 18.5739 30.8124C18.7062 30.7055 18.8596 30.6278 19.0239 30.5844C19.1883 30.541 19.3601 30.5328 19.5278 30.5605C22.0632 31.0344 24.634 31.2933 27.2129 31.3344H27.4109C27.7277 31.3295 28.0337 31.4495 28.2627 31.6684C28.4917 31.8873 28.6254 32.1875 28.6348 32.5042C28.6421 32.6552 28.6187 32.8062 28.5659 32.9478C28.5131 33.0895 28.432 33.219 28.3277 33.3284C28.2233 33.4378 28.0978 33.5249 27.9588 33.5843C27.8197 33.6437 27.6701 33.6742 27.5189 33.6741H27.105C24.8868 33.6303 22.6741 33.4379 20.4817 33.0982C20.4817 36.8957 20.4817 40.2973 20.4817 43.483C23.2357 43.4442 25.979 43.1307 28.6708 42.5471H28.8147C30.0683 42.2728 31.3061 41.9304 32.5223 41.5212C35.1897 40.5892 37.7531 39.3829 40.1715 37.9216C40.8734 37.5077 41.5753 37.0577 42.2772 36.6077C42.4893 36.4685 42.7409 36.402 42.9941 36.4182C43.2473 36.4344 43.4884 36.5325 43.681 36.6978C50.7362 42.6551 60.671 44.6168 74.0615 42.673C74.2289 42.6529 74.3988 42.6682 74.56 42.7178C74.7212 42.7674 74.8702 42.8502 74.9973 42.961C75.1233 43.0705 75.224 43.2062 75.2924 43.3584C75.3607 43.5107 75.3951 43.676 75.3933 43.8429C75.3933 50.5202 75.5013 56.0095 75.5913 60.8509C75.6993 67.7441 75.7893 72.7296 75.5913 76.8331C75.5913 77.661 75.5193 78.4529 75.3753 79.2088C75.3753 79.2088 75.3753 79.3348 75.3753 79.3888V79.6407C77.6632 77.1649 79.3398 74.1878 80.2708 70.9478C80.3 70.7885 80.362 70.6371 80.4527 70.5031C80.5435 70.369 80.6612 70.2552 80.7982 70.169C80.9352 70.0827 81.0886 70.0259 81.2487 70.002C81.4088 69.9781 81.5722 69.9877 81.7284 70.0301C81.8847 70.0726 82.0304 70.1471 82.1564 70.2488C82.2823 70.3505 82.3858 70.4773 82.4602 70.621C82.5347 70.7648 82.5785 70.9225 82.5888 71.084C82.5992 71.2456 82.576 71.4076 82.5205 71.5597C81.3147 75.9332 79.0109 79.4968 74.2774 84.2482C74.0877 84.4654 73.8254 84.6061 73.5395 84.6442Z" fill="#1078FF"/>
<path d="M90.1156 57.0173H89.9536C89.6489 56.9727 89.3741 56.8098 89.1888 56.5638C89.0035 56.3179 88.9226 56.0087 88.9637 55.7035C89.0537 54.9476 89.1437 54.1917 89.2337 53.3818C89.2699 53.0728 89.426 52.7903 89.6683 52.5951C89.9107 52.3999 90.2199 52.3076 90.5296 52.338C90.8373 52.3741 91.1182 52.5307 91.3105 52.7737C91.5028 53.0166 91.591 53.326 91.5555 53.6338C91.4655 54.4617 91.3755 55.2536 91.2675 56.0095C91.2286 56.2878 91.0908 56.5429 90.8793 56.7279C90.6678 56.913 90.3967 57.0157 90.1156 57.0173Z" fill="#1078FF"/>
<path d="M81.4947 72.4775C81.2855 72.4793 81.08 72.4232 80.9007 72.3155C80.6768 72.1883 80.502 71.9899 80.4041 71.7517C80.3063 71.5136 80.291 71.2495 80.3608 71.0017C80.4688 70.6057 80.5408 70.3537 80.5948 70.1018C80.6488 69.8498 80.7928 69.1479 80.8827 68.6439V68.4639V68.158V67.69C80.8827 67.3841 80.8827 67.2221 80.9727 67.0781C80.9727 66.4842 81.1167 65.9263 81.1527 65.2783L81.2607 63.7485C81.4767 59.843 81.3867 54.9835 81.2607 48.8102C81.2607 44.2747 81.0807 39.1814 81.0627 33.0441C68.0682 34.7179 58.1513 32.7021 50.8621 26.9247C43.9307 31.3571 35.8723 33.7059 27.6448 33.692H27.3209C27.1672 33.692 27.0151 33.6617 26.8732 33.6029C26.7312 33.5442 26.6023 33.458 26.4936 33.3494C26.385 33.2407 26.2988 33.1118 26.24 32.9698C26.1812 32.8279 26.151 32.6758 26.151 32.5221C26.151 28.6706 26.151 24.4051 26.151 19.5457C26.1507 19.3735 26.1884 19.2035 26.2613 19.0476C26.3343 18.8917 26.4407 18.7538 26.5731 18.6438C26.7054 18.5338 26.8604 18.4544 27.027 18.4112C27.1936 18.3679 27.3677 18.362 27.5368 18.3938C30.0648 18.8767 32.6305 19.1357 35.204 19.1677H35.9059C36.2161 19.1677 36.5137 19.2909 36.7331 19.5103C36.9525 19.7297 37.0758 20.0273 37.0758 20.3376C37.0758 20.6478 36.9525 20.9453 36.7331 21.1647C36.5137 21.3841 36.2161 21.5074 35.9059 21.5074H35.1139C32.8948 21.4836 30.6807 21.2911 28.4907 20.9315C28.4907 24.747 28.4907 28.1306 28.4907 31.3523C36.2635 31.2407 43.8338 28.857 50.2682 24.4951C50.4803 24.3558 50.7319 24.2892 50.9852 24.3055C51.2384 24.3217 51.4795 24.4198 51.6721 24.585C58.7273 30.5244 68.6621 32.4861 82.0526 30.5604C82.2188 30.5303 82.3898 30.539 82.5521 30.5858C82.7145 30.6327 82.8638 30.7163 82.9885 30.8303C83.1144 30.9398 83.2151 31.0754 83.2835 31.2277C83.3518 31.38 83.3863 31.5453 83.3844 31.7122C83.3844 38.4254 83.4924 43.9148 83.5824 48.7742C83.6904 54.9835 83.7804 59.8789 83.5824 63.8205C83.5824 64.4324 83.5824 64.9543 83.4564 65.4583C83.3304 65.9622 83.3484 66.7001 83.2764 67.2581C83.2764 67.2581 83.2764 67.3841 83.2764 67.4561C85.5595 64.9766 87.2353 62.0007 88.1719 58.763C88.4044 57.9038 88.5907 57.0326 88.7298 56.1534C88.7785 55.8484 88.9459 55.575 89.1954 55.3929C89.4449 55.2109 89.7564 55.1348 90.0617 55.1815C90.2138 55.2033 90.3599 55.2554 90.4915 55.3346C90.6232 55.4138 90.7377 55.5185 90.8282 55.6426C90.9188 55.7667 90.9836 55.9077 91.0189 56.0573C91.0541 56.2068 91.0591 56.3618 91.0335 56.5133C90.8896 57.4852 90.6736 58.4391 90.4396 59.375C89.1978 63.7845 86.8401 67.3301 82.1786 72.0635C82.0016 72.2721 81.7615 72.4174 81.4947 72.4775Z" fill="#1078FF"/>
<path d="M89.4137 60.3291C89.2105 60.3285 89.0114 60.2725 88.8377 60.1671C88.6164 60.0412 88.4421 59.8466 88.3414 59.6128C88.2407 59.3789 88.2191 59.1185 88.2798 58.8712C88.5293 57.9895 88.7276 57.0941 88.8737 56.1895C88.8634 56.0457 88.8634 55.9014 88.8737 55.7576C88.9817 54.9477 89.0717 54.1738 89.1617 53.3639C89.5217 49.2063 89.4317 43.897 89.3057 36.5718C89.2157 32.0543 89.1257 26.9969 89.1257 20.9316C76.1672 22.5874 66.1423 20.5356 58.8892 14.7943C52.1033 19.2242 44.1716 21.5762 36.0678 21.5615H35.3478C35.0376 21.5615 34.7401 21.4383 34.5207 21.2189C34.3013 20.9995 34.178 20.702 34.178 20.3917C34.178 16.5581 34.178 12.2926 34.178 7.43315C34.1816 7.26101 34.2219 7.09163 34.2965 6.93641C34.371 6.78119 34.4778 6.64372 34.6099 6.53326C34.7422 6.42638 34.8955 6.34869 35.0599 6.30526C35.2243 6.26184 35.396 6.25369 35.5638 6.28132C40.8096 7.35887 46.2177 7.37901 51.4714 6.34063C56.7252 5.30226 61.7189 3.22619 66.1603 0.233982C66.3628 0.0821075 66.6091 0 66.8622 0C67.1154 0 67.3617 0.0821075 67.5642 0.233982C74.6194 6.20929 84.5542 8.17108 97.9447 6.20931C98.1108 6.18891 98.2794 6.2023 98.4402 6.24869C98.601 6.29508 98.7508 6.37352 98.8806 6.47927C99.003 6.59168 99.1013 6.72783 99.1693 6.87945C99.2374 7.03107 99.2739 7.19497 99.2765 7.36115C99.2765 14.0204 99.3845 19.4738 99.4565 24.2972C99.8344 45.0848 99.9245 50.0163 90.0976 59.8971C89.9261 60.1155 89.6846 60.2682 89.4137 60.3291ZM90.3675 18.4119C90.6452 18.418 90.9122 18.5197 91.1235 18.6999C91.2547 18.806 91.3601 18.9405 91.4318 19.0933C91.5035 19.246 91.5396 19.413 91.5374 19.5818C91.5374 26.241 91.6274 31.7124 91.7174 36.5358C91.8434 43.933 91.9334 49.2784 91.5554 53.5799C91.5554 54.2098 91.4294 54.8217 91.3574 55.3797C97.7107 47.9825 97.6207 42.5831 97.2968 24.4052C97.2968 19.9057 97.1348 14.8483 97.1168 8.783C84.1943 10.4568 74.1514 8.38704 66.9162 2.6457C57.9718 8.44777 47.1642 10.653 36.6617 8.81898C36.6617 12.6345 36.6617 16.0181 36.6617 19.2218C44.441 19.1328 52.0217 16.754 58.4572 12.3826C58.6572 12.2249 58.9045 12.1392 59.1591 12.1392C59.4138 12.1392 59.661 12.2249 59.861 12.3826C66.9162 18.3579 76.8331 20.3197 90.2415 18.3579L90.3675 18.4119Z" fill="#1078FF"/>
<path d="M52.32 85.0941H34.3221C33.8668 85.0941 33.4159 85.0042 32.9955 84.8294C32.5751 84.6546 32.1934 84.3984 31.8722 84.0756C31.5511 83.7529 31.297 83.3698 31.1244 82.9485C30.9518 82.5271 30.8641 82.0759 30.8665 81.6206V66.8623C30.8665 66.5521 30.9897 66.2546 31.2091 66.0352C31.4285 65.8158 31.7261 65.6925 32.0364 65.6925H36.2659C36.5761 65.6925 36.8737 65.8158 37.0931 66.0352C37.3125 66.2546 37.4357 66.5521 37.4357 66.8623C37.4357 67.1726 37.3125 67.4702 37.0931 67.6896C36.8737 67.909 36.5761 68.0322 36.2659 68.0322H33.1162V81.6206C33.121 81.9134 33.2406 82.1926 33.4494 82.398C33.6581 82.6034 33.9392 82.7184 34.2321 82.7184H52.23C52.5641 82.7184 52.8846 82.5857 53.1208 82.3494C53.3571 82.1131 53.4899 81.7927 53.4899 81.4586V68.0322H50.3402C50.03 68.0322 49.7324 67.909 49.513 67.6896C49.2936 67.4702 49.1704 67.1726 49.1704 66.8623C49.1704 66.5521 49.2936 66.2546 49.513 66.0352C49.7324 65.8158 50.03 65.6925 50.3402 65.6925H54.6597C54.97 65.6925 55.2676 65.8158 55.487 66.0352C55.7063 66.2546 55.8296 66.5521 55.8296 66.8623V81.4586C55.8393 82.4041 55.4767 83.3154 54.8199 83.9957C54.1632 84.676 53.2653 85.0705 52.32 85.0941Z" fill="#1078FF"/>
<path d="M50.4301 68.0681H36.2658C35.9555 68.0681 35.658 67.9449 35.4386 67.7255C35.2192 67.5061 35.0959 67.2085 35.0959 66.8983V63.2987C35.0959 61.1125 35.9644 59.0159 37.5102 57.47C39.0561 55.9241 41.1528 55.0557 43.339 55.0557C45.5252 55.0557 47.6218 55.9241 49.1677 57.47C50.7136 59.0159 51.582 61.1125 51.582 63.2987V66.8983C51.5821 67.2054 51.4613 67.5003 51.2458 67.7192C51.0303 67.9381 50.7373 68.0634 50.4301 68.0681ZM37.4537 65.7284H49.2603V63.2447C49.2603 61.6791 48.6383 60.1775 47.5312 59.0705C46.4242 57.9634 44.9226 57.3414 43.357 57.3414C41.7913 57.3414 40.2898 57.9634 39.1827 59.0705C38.0756 60.1775 37.4537 61.6791 37.4537 63.2447V65.7284Z" fill="#1078FF"/>
<path d="M39.6494 80.2528C39.331 80.2492 39.0269 80.1199 38.8035 79.8929C38.6947 79.7842 38.6084 79.6551 38.5495 79.5131C38.4905 79.371 38.4602 79.2187 38.4602 79.0649C38.4602 78.9111 38.4905 78.7589 38.5495 78.6168C38.6084 78.4747 38.6947 78.3457 38.8035 78.237L46.2547 70.8938C46.4766 70.6766 46.7758 70.5565 47.0863 70.5599C47.3969 70.5633 47.6933 70.6898 47.9105 70.9118C48.1277 71.1338 48.2478 71.433 48.2444 71.7435C48.2411 72.054 48.1144 72.3505 47.8925 72.5676L40.4414 79.9108C40.2306 80.1215 39.9473 80.2439 39.6494 80.2528Z" fill="#1078FF"/>
<path d="M47.0645 80.2526C46.7553 80.2474 46.4595 80.1252 46.2367 79.9107L38.8215 72.6216C38.7116 72.514 38.6239 72.3859 38.5635 72.2445C38.5031 72.1031 38.4712 71.9512 38.4696 71.7974C38.4679 71.6437 38.4965 71.491 38.5538 71.3484C38.6111 71.2057 38.696 71.0756 38.8035 70.9657C38.911 70.8558 39.0391 70.7682 39.1806 70.7078C39.322 70.6474 39.4739 70.6155 39.6277 70.6138C39.7814 70.6122 39.934 70.6408 40.0767 70.6981C40.2194 70.7554 40.3494 70.8402 40.4593 70.9478L47.8924 78.2909C48.0013 78.3995 48.0876 78.5286 48.1465 78.6706C48.2054 78.8127 48.2358 78.965 48.2358 79.1188C48.2358 79.2725 48.2054 79.4248 48.1465 79.5669C48.0876 79.709 48.0013 79.838 47.8924 79.9467C47.666 80.1512 47.3696 80.2608 47.0645 80.2526Z" fill="#1078FF"/>
<path d="M69.562 118.03H7.46917C7.1589 118.03 6.86133 117.907 6.64194 117.688C6.42255 117.468 6.29932 117.171 6.29932 116.86C6.29932 116.55 6.42255 116.253 6.64194 116.033C6.86133 115.814 7.1589 115.691 7.46917 115.691H69.562C69.8723 115.691 70.1699 115.814 70.3892 116.033C70.6086 116.253 70.7319 116.55 70.7319 116.86C70.7319 117.171 70.6086 117.468 70.3892 117.688C70.1699 117.907 69.8723 118.03 69.562 118.03Z" fill="#1078FF"/>
<path d="M79.4608 118.03H74.8893C74.5791 118.03 74.2815 117.907 74.0621 117.688C73.8427 117.468 73.7195 117.171 73.7195 116.86C73.7195 116.55 73.8427 116.253 74.0621 116.033C74.2815 115.814 74.5791 115.691 74.8893 115.691H79.4608C79.7711 115.691 80.0687 115.814 80.2881 116.033C80.5074 116.253 80.6307 116.55 80.6307 116.86C80.6307 117.171 80.5074 117.468 80.2881 117.688C80.0687 117.907 79.7711 118.03 79.4608 118.03Z" fill="#1078FF"/>
<path d="M62.8849 123.592H29.2468C28.9592 123.556 28.6945 123.416 28.5026 123.199C28.3107 122.982 28.2048 122.702 28.2048 122.413C28.2048 122.123 28.3107 121.843 28.5026 121.626C28.6945 121.409 28.9592 121.269 29.2468 121.234H62.8849C63.1725 121.269 63.4371 121.409 63.629 121.626C63.8209 121.843 63.9268 122.123 63.9268 122.413C63.9268 122.702 63.8209 122.982 63.629 123.199C63.4371 123.416 63.1725 123.556 62.8849 123.592Z" fill="#1078FF"/>
<path d="M26.403 123.592H23.9553C23.6677 123.556 23.403 123.416 23.2111 123.199C23.0192 122.982 22.9133 122.702 22.9133 122.413C22.9133 122.123 23.0192 121.843 23.2111 121.626C23.403 121.409 23.6677 121.269 23.9553 121.234H26.403C26.6906 121.269 26.9552 121.409 27.1471 121.626C27.339 121.843 27.4449 122.123 27.4449 122.413C27.4449 122.702 27.339 122.982 27.1471 123.199C26.9552 123.416 26.6906 123.556 26.403 123.592Z" fill="#1078FF"/>
<path d="M1.16985 101.418C0.859587 101.418 0.562017 101.295 0.342624 101.076C0.123232 100.856 0 100.559 0 100.248V23.3613C0 23.051 0.123232 22.7534 0.342624 22.534C0.562017 22.3146 0.859587 22.1914 1.16985 22.1914H19.1678C19.4781 22.1914 19.7756 22.3146 19.995 22.534C20.2144 22.7534 20.3376 23.051 20.3376 23.3613C20.3376 23.6715 20.2144 23.9691 19.995 24.1885C19.7756 24.4079 19.4781 24.5311 19.1678 24.5311H2.3937V100.32C2.37512 100.628 2.23625 100.915 2.00716 101.121C1.77808 101.326 1.47725 101.433 1.16985 101.418Z" fill="#1078FF"/>
<path d="M103.884 101.418H85.8863C85.576 101.418 85.2784 101.295 85.0591 101.076C84.8397 100.856 84.7164 100.559 84.7164 100.248C84.7164 99.9381 84.8397 99.6405 85.0591 99.4211C85.2784 99.2017 85.576 99.0785 85.8863 99.0785H102.66V23.3613C102.66 23.051 102.784 22.7534 103.003 22.534C103.222 22.3146 103.52 22.1914 103.83 22.1914C104.14 22.1914 104.438 22.3146 104.657 22.534C104.877 22.7534 105 23.051 105 23.3613V100.32C104.982 100.609 104.859 100.881 104.653 101.083C104.447 101.286 104.173 101.405 103.884 101.418Z" fill="#1078FF"/>
</svg>
