<svg width="142" height="142" viewBox="0 0 142 142" fill="none" xmlns="http://www.w3.org/2000/svg">
<path d="M103.265 93.1477V98.8421C103.365 100.616 102.761 102.357 101.584 103.688C100.407 105.019 98.7514 105.83 96.9786 105.947H44.3361C42.565 105.826 40.9126 105.013 39.7362 103.683C38.5599 102.354 37.954 100.615 38.0496 98.8421V56.2125H103.265V93.1826" fill="#B9EEFF"/>
<path d="M96.9789 106.818H44.3361C42.3308 106.705 40.4517 105.803 39.1103 104.308C37.7689 102.813 37.0744 100.848 37.1789 98.842V55.307H104.136V98.842C104.236 100.847 103.54 102.809 102.199 104.303C100.859 105.797 98.9825 106.701 96.9789 106.818ZM38.9203 57.0484V98.842C38.8196 100.385 39.332 101.906 40.3461 103.073C41.3602 104.24 42.7941 104.96 44.3361 105.076H96.9789C98.5208 104.96 99.9548 104.24 100.969 103.073C101.983 101.906 102.495 100.385 102.395 98.842V57.0484H38.9203Z" fill="#1078FF"/>
<path d="M96.9788 107.079H44.3362C42.2633 106.962 40.3205 106.031 38.9311 104.488C37.5417 102.945 36.818 100.916 36.9178 98.8421V56.2126C36.9178 55.9124 37.0371 55.6245 37.2493 55.4122C37.4616 55.1999 37.7495 55.0807 38.0497 55.0807H103.265C103.565 55.0807 103.853 55.1999 104.066 55.4122C104.278 55.6245 104.397 55.9124 104.397 56.2126V98.8769C104.487 100.945 103.76 102.965 102.371 104.5C100.983 106.035 99.0454 106.962 96.9788 107.079ZM39.2513 57.3097V98.8421C39.1556 100.326 39.6515 101.788 40.6305 102.907C41.6096 104.026 42.992 104.712 44.4755 104.815H97.1181C98.6016 104.712 99.984 104.026 100.963 102.907C101.942 101.788 102.438 100.326 102.342 98.8421V57.3097H39.2513Z" fill="#1078FF"/>
<path d="M70.5965 24.8673C76.076 24.8857 81.3256 27.0718 85.1986 30.948C89.0716 34.8243 91.2532 40.0757 91.267 45.5552V56.2125H49.9783V45.5377C49.9965 40.0702 52.173 34.8311 56.0342 30.9601C59.8955 27.0891 65.1291 24.8994 70.5965 24.8673Z" fill="#B9EEFF"/>
<path d="M92.2074 57.0483H49.1075V45.5028C49.0255 42.6213 49.5223 39.7527 50.5685 37.0665C51.6146 34.3804 53.1888 31.9313 55.198 29.8641C57.2072 27.797 59.6106 26.1539 62.2659 25.0318C64.9213 23.9098 67.7747 23.3317 70.6574 23.3317C73.5401 23.3317 76.3935 23.9098 79.0488 25.0318C81.7042 26.1539 84.1076 27.797 86.1168 29.8641C88.126 31.9313 89.7002 34.3804 90.7463 37.0665C91.7925 39.7527 92.2893 42.6213 92.2074 45.5028V57.0483ZM50.8489 55.3069H90.466V45.5028C90.5446 42.8521 90.0903 40.2126 89.1302 37.7407C88.1701 35.2687 86.7236 33.0146 84.8765 31.1118C83.0293 29.2091 80.8191 27.6964 78.3766 26.6635C75.9342 25.6305 73.3093 25.0983 70.6574 25.0983C68.0055 25.0983 65.3806 25.6305 62.9382 26.6635C60.4958 27.6964 58.2855 29.2091 56.4384 31.1118C54.5912 33.0146 53.1447 35.2687 52.1846 37.7407C51.2245 40.2126 50.7703 42.8521 50.8489 45.5028V55.3069Z" fill="#1078FF"/>
<path d="M91.3367 57.3098H49.9782C49.6764 57.3098 49.3866 57.1912 49.1716 56.9794C48.9565 56.7676 48.8334 56.4797 48.8289 56.1779V45.5031C48.8289 39.7161 51.1277 34.1661 55.2198 30.0741C59.3118 25.9821 64.8617 23.6832 70.6487 23.6832C76.4357 23.6832 81.9857 25.9821 86.0777 30.0741C90.1698 34.1661 92.4686 39.7161 92.4686 45.5031V56.2127C92.4553 56.5054 92.3308 56.782 92.1204 56.9859C91.91 57.1898 91.6297 57.3057 91.3367 57.3098ZM51.1101 55.046H90.2048V45.5031C90.2829 42.887 89.8351 40.2818 88.8879 37.842C87.9406 35.4022 86.5133 33.1773 84.6905 31.2992C82.8676 29.4212 80.6863 27.9281 78.2758 26.9085C75.8653 25.8889 73.2747 25.3635 70.6575 25.3635C68.0402 25.3635 65.4496 25.8889 63.0391 26.9085C60.6286 27.9281 58.4473 29.4212 56.6244 31.2992C54.8016 33.1773 53.3743 35.4022 52.4271 37.842C51.4798 40.2818 51.032 42.887 51.1101 45.5031V55.046Z" fill="#1078FF"/>
<path d="M56.1951 50.4312H85.1198V45.0328C84.9896 41.284 83.409 37.7322 80.711 35.1262C78.013 32.5202 74.4085 31.0636 70.6574 31.0636C66.9064 31.0636 63.3019 32.5202 60.6038 35.1262C57.9058 37.7322 56.3252 41.284 56.1951 45.0328V50.4312Z" fill="#F4FCFF"/>
<path d="M85.9904 51.3018H55.3243V45.0327C55.4584 41.0556 57.1325 37.2861 59.9934 34.5201C62.8543 31.754 66.678 30.2078 70.6573 30.2078C74.6367 30.2078 78.4604 31.754 81.3213 34.5201C84.1822 37.2861 85.8563 41.0556 85.9904 45.0327V51.3018ZM57.0657 49.5604H84.249V45.0327C84.1229 41.5122 82.6358 38.1779 80.1006 35.7319C77.5655 33.2858 74.1801 31.9189 70.6573 31.9189C67.1346 31.9189 63.7492 33.2858 61.2141 35.7319C58.6789 38.1779 57.1918 41.5122 57.0657 45.0327V49.5604Z" fill="#1078FF"/>
<path d="M85.1197 51.563H56.1951C55.8949 51.563 55.6069 51.4438 55.3947 51.2315C55.1824 51.0192 55.0631 50.7313 55.0631 50.4311V45.0327C55.4512 41.1665 57.2616 37.5823 60.1431 34.9756C63.0246 32.3688 66.7717 30.9254 70.6574 30.9254C74.543 30.9254 78.2901 32.3688 81.1716 34.9756C84.0531 37.5823 85.8635 41.1665 86.2516 45.0327V50.4311C86.2516 50.5797 86.2223 50.7269 86.1654 50.8643C86.1086 51.0016 86.0252 51.1264 85.9201 51.2315C85.815 51.3366 85.6902 51.42 85.5529 51.4768C85.4155 51.5337 85.2683 51.563 85.1197 51.563ZM57.2573 49.2992H83.9181V45.0327C83.7933 41.5806 82.3343 38.3116 79.848 35.9136C77.3617 33.5155 74.042 32.1755 70.5877 32.1755C67.1334 32.1755 63.8138 33.5155 61.3275 35.9136C58.8412 38.3116 57.3821 41.5806 57.2573 45.0327V49.2992Z" fill="#1078FF"/>
<path d="M81.6718 64.5016H37.3705C37.0703 64.5016 36.7825 64.3823 36.5702 64.17C36.3579 63.9577 36.2386 63.6698 36.2386 63.3696C36.2386 63.0694 36.3579 62.7815 36.5702 62.5692C36.7825 62.357 37.0703 62.2377 37.3705 62.2377H81.6718C81.972 62.2377 82.2599 62.357 82.4722 62.5692C82.6844 62.7815 82.8037 63.0694 82.8037 63.3696C82.8037 63.6698 82.6844 63.9577 82.4722 64.17C82.2599 64.3823 81.972 64.5016 81.6718 64.5016Z" fill="#1078FF"/>
<path d="M103.962 64.5016H95.2547C94.9545 64.5016 94.6666 64.3823 94.4543 64.17C94.242 63.9577 94.1228 63.6698 94.1228 63.3696C94.1228 63.0694 94.242 62.7815 94.4543 62.5692C94.6666 62.357 94.9545 62.2377 95.2547 62.2377H103.962C104.262 62.2377 104.55 62.357 104.762 62.5692C104.974 62.7815 105.094 63.0694 105.094 63.3696C105.094 63.6698 104.974 63.9577 104.762 64.17C104.55 64.3823 104.262 64.5016 103.962 64.5016Z" fill="#1078FF"/>
<path d="M90.1873 64.5016H87.6448C87.3446 64.5016 87.0567 64.3823 86.8445 64.17C86.6322 63.9577 86.5129 63.6698 86.5129 63.3696C86.5129 63.0694 86.6322 62.7815 86.8445 62.5692C87.0567 62.357 87.3446 62.2377 87.6448 62.2377H90.1873C90.4875 62.2377 90.7754 62.357 90.9877 62.5692C91.2 62.7815 91.3192 63.0694 91.3192 63.3696C91.3192 63.6698 91.2 63.9577 90.9877 64.17C90.7754 64.3823 90.4875 64.5016 90.1873 64.5016Z" fill="#1078FF"/>
<path d="M47.5576 68.8203H38.0497V74.271H47.5576V68.8203Z" fill="#50D5FF"/>
<path d="M48.4283 75.1416H37.179V67.9496H48.4283V75.1416ZM38.9203 73.4002H46.687V69.691H38.9203V73.4002Z" fill="#1078FF"/>
<path d="M47.5576 75.3682H38.0497C37.7495 75.3682 37.4616 75.2489 37.2494 75.0367C37.0371 74.8244 36.9178 74.5365 36.9178 74.2363V68.7856C36.9178 68.4854 37.0371 68.1975 37.2494 67.9852C37.4616 67.7729 37.7495 67.6537 38.0497 67.6537H47.5576C47.8578 67.6537 48.1457 67.7729 48.358 67.9852C48.5703 68.1975 48.6896 68.4854 48.6896 68.7856V74.2363C48.6896 74.5365 48.5703 74.8244 48.358 75.0367C48.1457 75.2489 47.8578 75.3682 47.5576 75.3682ZM39.1816 73.1043H46.4258V69.9175H39.2513L39.1816 73.1043Z" fill="#1078FF"/>
<path d="M47.5576 74.2709H38.0497V79.7214H47.5576V74.2709Z" fill="#50D5FF"/>
<path d="M48.4283 80.5923H37.179V73.4001H48.4283V80.5923ZM38.9203 78.8508H46.687V75.1416H38.9203V78.8508Z" fill="#1078FF"/>
<path d="M47.5576 80.8533H38.0497C37.7495 80.8533 37.4616 80.734 37.2494 80.5218C37.0371 80.3095 36.9178 80.0216 36.9178 79.7214V74.2709C36.9178 73.9707 37.0371 73.6828 37.2494 73.4705C37.4616 73.2583 37.7495 73.139 38.0497 73.139H47.5576C47.8578 73.139 48.1457 73.2583 48.358 73.4705C48.5703 73.6828 48.6896 73.9707 48.6896 74.2709V79.7214C48.6896 80.0216 48.5703 80.3095 48.358 80.5218C48.1457 80.734 47.8578 80.8533 47.5576 80.8533ZM39.1816 78.5895H46.4258V75.368H39.2513L39.1816 78.5895Z" fill="#1078FF"/>
<path d="M47.5576 79.7214H38.0497V85.1721H47.5576V79.7214Z" fill="#50D5FF"/>
<path d="M48.4283 86.0427H37.179V78.8508H48.4283V86.0427ZM38.9203 84.3013H46.687V80.5922H38.9203V84.3013Z" fill="#1078FF"/>
<path d="M47.5576 86.304H38.0497C37.7495 86.304 37.4616 86.1847 37.2494 85.9724C37.0371 85.7602 36.9178 85.4723 36.9178 85.1721V79.7215C36.9178 79.4213 37.0371 79.1334 37.2494 78.9211C37.4616 78.7088 37.7495 78.5896 38.0497 78.5896H47.5576C47.8578 78.5896 48.1457 78.7088 48.358 78.9211C48.5703 79.1334 48.6896 79.4213 48.6896 79.7215V85.1721C48.6896 85.4723 48.5703 85.7602 48.358 85.9724C48.1457 86.1847 47.8578 86.304 47.5576 86.304ZM39.2513 84.075H46.4954V80.8883H39.2513V84.075Z" fill="#1078FF"/>
<path d="M47.5576 85.1721H38.0497V90.6228H47.5576V85.1721Z" fill="#50D5FF"/>
<path d="M48.4283 91.4934H37.179V84.3014H48.4283V91.4934ZM38.9203 89.752H46.687V86.0428H38.9203V89.752Z" fill="#1078FF"/>
<path d="M47.5576 91.7546H38.0497C37.7495 91.7546 37.4616 91.6354 37.2494 91.4231C37.0371 91.2108 36.9178 90.9229 36.9178 90.6227V85.1721C36.9178 84.8719 37.0371 84.5839 37.2494 84.3717C37.4616 84.1594 37.7495 84.0402 38.0497 84.0402H47.5576C47.8578 84.0402 48.1457 84.1594 48.358 84.3717C48.5703 84.5839 48.6896 84.8719 48.6896 85.1721V90.6227C48.6896 90.9229 48.5703 91.2108 48.358 91.4231C48.1457 91.6354 47.8578 91.7546 47.5576 91.7546ZM39.1816 89.4908H46.4258V86.304H39.2513L39.1816 89.4908Z" fill="#1078FF"/>
<path d="M47.5576 90.6228H38.0497V96.0907H47.5576V90.6228Z" fill="#50D5FF"/>
<path d="M48.4283 96.9614H37.179V89.752H48.4283V96.9614ZM38.9203 95.22H46.687V91.4934H38.9203V95.22Z" fill="#1078FF"/>
<path d="M47.5576 97.2225H38.0497C37.7495 97.2225 37.4616 97.1033 37.2494 96.891C37.0371 96.6788 36.9178 96.3908 36.9178 96.0906V90.6227C36.9178 90.3225 37.0371 90.0346 37.2494 89.8223C37.4616 89.61 37.7495 89.4907 38.0497 89.4907H47.5576C47.8578 89.4907 48.1457 89.61 48.358 89.8223C48.5703 90.0346 48.6896 90.3225 48.6896 90.6227V96.0906C48.6896 96.3908 48.5703 96.6788 48.358 96.891C48.1457 97.1033 47.8578 97.2225 47.5576 97.2225ZM39.1816 94.9587H46.4258V91.7546H39.2513L39.1816 94.9587Z" fill="#1078FF"/>
<path d="M70.6487 2.82104L72.5468 8.63733H78.6417L73.6961 12.2072L75.5943 18.0061L70.6487 14.4014L65.7205 18.0061L67.6187 12.2072L62.6731 8.63733H68.7854L70.6487 2.82104Z" fill="#5CD8FF"/>
<path d="M64.0663 20.3047L66.5914 12.5381L59.974 7.76661H68.1412L70.6488 0L73.1739 7.76661H81.3236L74.7237 12.5381L77.2487 20.3047L70.5966 15.481L64.0663 20.3047ZM70.6488 13.3391L73.9226 15.7422L72.6688 11.8937L75.9427 9.52544H71.9026L70.5966 5.71178L69.3428 9.56025H65.3724L68.6462 11.9286L67.3924 15.7596L70.6488 13.3391Z" fill="#1078FF"/>
<path d="M75.5943 19.138C75.352 19.1384 75.1153 19.0655 74.9151 18.929L70.5964 15.8119L66.3474 18.929C66.153 19.0719 65.9181 19.1489 65.6769 19.1489C65.4357 19.1489 65.2009 19.0719 65.0065 18.929C64.8149 18.7856 64.6719 18.5867 64.5972 18.3593C64.5224 18.1319 64.5194 17.887 64.5885 17.6578L66.2429 12.6426L61.9591 9.54292C61.7668 9.40405 61.6231 9.20829 61.5481 8.98333C61.4731 8.75836 61.4706 8.51555 61.5411 8.28912C61.6149 8.06099 61.7592 7.86217 61.9532 7.72134C62.1473 7.5805 62.381 7.5049 62.6208 7.50547H67.845L69.4471 2.47286C69.5209 2.24473 69.6652 2.04591 69.8592 1.90508C70.0533 1.76424 70.287 1.68865 70.5268 1.68921C70.7665 1.68865 71.0003 1.76424 71.1943 1.90508C71.3884 2.04591 71.5327 2.24473 71.6064 2.47286L73.2434 7.50547H78.4676C78.7073 7.5049 78.9411 7.5805 79.1352 7.72134C79.3292 7.86217 79.4735 8.06099 79.5473 8.28912C79.6178 8.51555 79.6153 8.75836 79.5403 8.98333C79.4653 9.20829 79.3215 9.40405 79.1293 9.54292L75.0196 12.6774L76.6739 17.6926C76.7431 17.9218 76.7401 18.1667 76.6653 18.3941C76.5906 18.6215 76.4477 18.8204 76.256 18.9638C76.0574 19.0857 75.8272 19.1463 75.5943 19.138ZM70.5964 13.2695C70.8418 13.2669 71.0809 13.3466 71.2756 13.4959L73.3653 15.0283L72.5642 12.5555C72.4897 12.3267 72.4901 12.0801 72.5652 11.8515C72.6404 11.6229 72.7864 11.4243 72.9822 11.2843L75.0892 9.76926H72.4946C72.2541 9.77258 72.0191 9.69808 71.8245 9.55685C71.6299 9.41562 71.4863 9.21527 71.4149 8.98566L70.6139 6.51286L69.8128 8.98566C69.7345 9.21099 69.5891 9.4069 69.396 9.54702C69.203 9.68713 68.9716 9.76467 68.7331 9.76926H66.121L68.2281 11.2843C68.4239 11.4243 68.5699 11.6229 68.6451 11.8515C68.7202 12.0801 68.7206 12.3267 68.6461 12.5555L67.845 15.0283L69.9347 13.4959C70.1227 13.3466 70.3564 13.2667 70.5964 13.2695Z" fill="#1078FF"/>
<path d="M104.571 11.9114L103.283 17.8844L108.577 20.9319L102.499 21.5588L101.245 27.5144L98.7724 21.9419L92.6948 22.6037L97.2573 18.5287L94.7497 12.9562L100.044 16.0037L104.571 11.9114Z" fill="#5CD8FF"/>
<path d="M101.541 30.3352L98.2325 22.8819L90.1002 23.7527L96.1951 18.3021L92.869 10.9359L99.8347 15.0108L105.895 9.54285L104.153 17.5359L111.241 21.5933L103.126 22.4466L101.541 30.3352ZM99.3122 21.0187L100.949 24.7105L101.785 20.7575L105.808 20.3395L102.325 18.3369L103.178 14.3665L100.2 17.0657L96.7175 15.0456L98.4589 18.7548L95.2896 21.3844L99.3122 21.0187Z" fill="#1078FF"/>
<path d="M101.245 28.646C101.029 28.6455 100.817 28.583 100.634 28.4657C100.452 28.3484 100.308 28.1813 100.218 27.9842L98.0759 23.1258L92.8517 23.683C92.6141 23.7133 92.3732 23.665 92.1657 23.5455C91.9582 23.426 91.7954 23.2419 91.7023 23.0213C91.6015 22.8027 91.5742 22.5573 91.6244 22.3219C91.6746 22.0865 91.7997 21.8736 91.981 21.7152L95.9165 18.2325L93.7572 13.4088C93.6577 13.19 93.6305 12.9452 93.6794 12.7099C93.7284 12.4746 93.851 12.261 94.0294 12.1C94.2079 11.939 94.4329 11.839 94.672 11.8144C94.9111 11.7899 95.1518 11.8421 95.3593 11.9635L99.9217 14.6103L103.84 11.1276C104.018 10.9676 104.241 10.8679 104.479 10.8429C104.717 10.8179 104.956 10.8688 105.163 10.9883C105.373 11.1061 105.538 11.2885 105.636 11.5082C105.733 11.7278 105.757 11.9731 105.703 12.2073L104.589 17.4314L109.169 20.0435C109.377 20.1629 109.543 20.3447 109.643 20.5634C109.743 20.782 109.772 21.0265 109.726 21.2625C109.675 21.4964 109.552 21.7084 109.374 21.868C109.196 22.0275 108.971 22.1265 108.733 22.1506L103.509 22.7078L102.429 27.932C102.377 28.1648 102.253 28.3753 102.075 28.5345C101.897 28.6936 101.674 28.7934 101.437 28.8201L101.245 28.646ZM98.7724 20.8097C98.9934 20.8105 99.2096 20.8749 99.3949 20.9954C99.5802 21.1158 99.7268 21.2872 99.8173 21.4888L100.862 23.8572L101.402 21.3321C101.445 21.0964 101.564 20.881 101.74 20.7178C101.915 20.5547 102.139 20.4526 102.377 20.4266L104.972 20.1654L102.725 18.8768C102.515 18.7594 102.347 18.5779 102.247 18.3586C102.147 18.1394 102.119 17.8938 102.168 17.6578L102.725 15.098L100.792 16.8394C100.615 16.9994 100.391 17.099 100.153 17.1241C99.9156 17.1491 99.676 17.0982 99.469 16.9787L97.2226 15.6726L98.2848 18.0583C98.3802 18.2779 98.4046 18.5218 98.3547 18.756C98.3047 18.9901 98.1829 19.2028 98.0062 19.3644L96.0733 21.1057L98.6505 20.8271L98.7724 20.8097Z" fill="#1078FF"/>
<path d="M129.386 36.7264L125.294 41.2714L128.359 46.5478L122.786 44.0576L118.712 48.6027L119.356 42.5252L113.766 40.0524L119.756 38.7986L120.366 32.7212L123.413 38.015L129.386 36.7264Z" fill="#5CD8FF"/>
<path d="M117.614 51.1798L118.485 43.0649L111.032 39.7562L119.025 38.0148L119.843 29.8999L123.936 36.9874L131.911 35.246L126.321 41.3757L130.414 48.4458L122.96 45.1198L117.614 51.1798ZM116.657 40.3483L120.366 41.9852L119.93 46.0079L122.63 43.0127L126.321 44.6495L124.301 41.1667L127.001 38.1541L123.048 39.0074L121.027 35.5246L120.627 39.5472L116.657 40.3483Z" fill="#1078FF"/>
<path d="M118.711 49.7346C118.549 49.7334 118.389 49.6978 118.241 49.6301C118.024 49.5325 117.843 49.3689 117.724 49.1625C117.606 48.9562 117.555 48.7176 117.58 48.4808L118.137 43.2566L113.313 41.1146C113.094 41.0192 112.912 40.8561 112.793 40.6491C112.673 40.4422 112.624 40.2025 112.651 39.9653C112.675 39.7273 112.774 39.5029 112.934 39.3245C113.093 39.1462 113.305 39.0231 113.539 38.9727L118.764 37.8931L119.304 32.6688C119.322 32.4289 119.419 32.2017 119.58 32.0223C119.74 31.843 119.955 31.7213 120.192 31.6762C120.426 31.6228 120.671 31.6465 120.891 31.7438C121.11 31.841 121.293 32.0067 121.411 32.2161L124.04 36.796L129.264 35.6814C129.496 35.6321 129.737 35.6578 129.954 35.7548C130.17 35.8519 130.349 36.0153 130.466 36.2213C130.591 36.4267 130.645 36.6674 130.62 36.9066C130.595 37.1457 130.492 37.3699 130.327 37.5448L126.844 41.4629L129.491 46.0428C129.616 46.2482 129.67 46.489 129.645 46.7281C129.62 46.9673 129.517 47.1915 129.352 47.3663C129.193 47.5416 128.983 47.6626 128.752 47.7126C128.521 47.7626 128.28 47.7389 128.063 47.6449L123.239 45.4856L119.756 49.4038C119.623 49.5415 119.458 49.6439 119.276 49.7017C119.093 49.7595 118.899 49.7708 118.711 49.7346ZM117.44 40.4355L119.809 41.4977C120.029 41.5926 120.213 41.755 120.336 41.9616C120.458 42.1682 120.511 42.4082 120.488 42.6471L120.209 45.2418L121.95 43.3088C122.104 43.1266 122.314 43.0004 122.547 42.95C122.78 42.8996 123.024 42.9278 123.239 43.0302L125.625 44.0925L124.319 41.846C124.198 41.6363 124.146 41.3938 124.171 41.1531C124.196 40.9123 124.297 40.6855 124.458 40.5052L126.2 38.5722L123.657 39.1294C123.423 39.18 123.179 39.155 122.96 39.058C122.741 38.961 122.558 38.797 122.438 38.5896L121.132 36.3258L120.871 38.9031C120.849 39.1421 120.751 39.3678 120.591 39.5466C120.431 39.7255 120.218 39.8479 119.983 39.8957L117.44 40.4355Z" fill="#1078FF"/>
<path d="M138.476 70.6487L132.66 72.5119L132.677 78.6417L129.09 73.6787L123.291 75.5768L126.879 70.6487L123.291 65.7031L129.09 67.6186L132.677 62.6556L132.66 68.7679L138.476 70.6487Z" fill="#5CD8FF"/>
<path d="M133.548 81.3409L128.759 74.7062L120.993 77.2312L125.816 70.6487L120.993 64.0313L128.759 66.6609L133.548 60.0261V68.2108L141.332 70.7183L133.548 73.226V81.3409ZM129.421 72.6339L131.789 75.9252V71.8851L135.638 70.6487L131.789 69.4123V65.3548L129.421 68.6287L125.572 67.3749L127.958 70.6487L125.59 73.9051L129.421 72.6339Z" fill="#1078FF"/>
<path d="M132.678 79.7738C132.497 79.7745 132.32 79.7322 132.159 79.6504C131.999 79.5687 131.86 79.4498 131.755 79.3036L128.655 75.0197L123.64 76.6393C123.413 76.7156 123.167 76.7179 122.939 76.6459C122.71 76.5739 122.511 76.4314 122.368 76.2387C122.233 76.0414 122.16 75.8076 122.16 75.5682C122.16 75.3289 122.233 75.0951 122.368 74.8978L125.486 70.6487L122.368 66.3648C122.227 66.171 122.151 65.9373 122.151 65.6975C122.151 65.4576 122.227 65.2239 122.369 65.0302C122.51 64.8364 122.709 64.6927 122.938 64.6195C123.166 64.5464 123.412 64.5477 123.64 64.6234L128.655 66.2777L131.755 61.9939C131.898 61.8022 132.097 61.6593 132.324 61.5845C132.552 61.5097 132.797 61.5067 133.026 61.5759C133.254 61.6497 133.453 61.794 133.594 61.988C133.734 62.1821 133.81 62.4158 133.809 62.6556V67.8799L138.842 69.4994C139.072 69.5717 139.273 69.7154 139.415 69.9096C139.557 70.1037 139.634 70.3383 139.634 70.5791C139.634 70.8199 139.557 71.0544 139.415 71.2486C139.273 71.4428 139.072 71.5864 138.842 71.6587L133.809 73.2783V78.2762C133.818 78.3747 133.818 78.4737 133.809 78.5722C133.809 78.8724 133.69 79.1603 133.478 79.3726C133.266 79.5849 132.978 79.7041 132.678 79.7041V79.7738ZM129.09 72.5469C129.27 72.5476 129.447 72.5904 129.608 72.6721C129.768 72.7538 129.907 72.8719 130.013 73.0171L131.528 75.1242V72.5295C131.525 72.289 131.599 72.054 131.741 71.8594C131.882 71.6648 132.082 71.5211 132.312 71.4498L134.785 70.6487L132.312 69.8476C132.084 69.7739 131.885 69.6296 131.744 69.4356C131.603 69.2415 131.528 69.0077 131.528 68.768V66.1558L130.013 68.2804C129.869 68.471 129.669 68.612 129.442 68.6837C129.214 68.7555 128.969 68.7545 128.742 68.6809L126.321 67.8799L127.854 69.987C127.998 70.1775 128.076 70.4099 128.076 70.6487C128.076 70.8876 127.998 71.12 127.854 71.3105L126.321 73.4176L128.794 72.5991C128.89 72.5694 128.99 72.5518 129.09 72.5469Z" fill="#1078FF"/>
<path d="M129.386 104.554L123.413 103.265L120.366 108.559L119.756 102.482L113.766 101.228L119.356 98.7549L118.712 92.6774L122.786 97.2399L128.359 94.7497L125.294 100.026L129.386 104.554Z" fill="#5CD8FF"/>
<path d="M119.774 111.345L118.955 103.213L110.962 101.472L118.415 98.1631L117.545 90.0308L123.013 96.1257L130.466 92.7996L126.374 99.7652L131.842 105.843L123.866 104.101L119.774 111.345ZM116.587 100.897L120.557 101.733L120.958 105.756L122.978 102.273L126.931 103.126L124.232 100.113L126.252 96.6306L122.56 98.372L119.861 95.3594L120.296 99.3821L116.587 100.897Z" fill="#1078FF"/>
<path d="M120.366 109.709H120.139C119.904 109.661 119.691 109.538 119.531 109.36C119.371 109.181 119.273 108.955 119.251 108.716L118.711 103.492L113.487 102.412C113.253 102.362 113.041 102.239 112.882 102.06C112.722 101.882 112.623 101.658 112.599 101.419C112.572 101.182 112.621 100.943 112.74 100.736C112.86 100.529 113.042 100.366 113.261 100.27L118.137 98.0063L117.58 92.7821C117.556 92.5446 117.607 92.3056 117.727 92.0992C117.847 91.8929 118.029 91.7297 118.248 91.6332C118.466 91.5366 118.709 91.5115 118.943 91.5615C119.176 91.6114 119.388 91.7339 119.547 91.9114L123.03 95.847L127.854 93.6876C128.071 93.5936 128.312 93.57 128.543 93.6199C128.774 93.6699 128.984 93.791 129.142 93.9662C129.307 94.1411 129.41 94.3653 129.436 94.6044C129.461 94.8435 129.407 95.0843 129.282 95.2897L126.635 99.8522L130.118 103.614C130.265 103.718 130.385 103.856 130.466 104.017C130.548 104.178 130.59 104.356 130.588 104.537C130.588 104.837 130.469 105.125 130.256 105.337C130.044 105.549 129.756 105.669 129.456 105.669H129.195L123.97 104.554L121.341 109.134C121.239 109.304 121.097 109.445 120.926 109.545C120.756 109.646 120.563 109.702 120.366 109.709ZM117.44 100.845L119.983 101.385C120.219 101.43 120.434 101.551 120.595 101.731C120.755 101.91 120.852 102.137 120.871 102.377L121.097 104.972L122.403 102.708C122.523 102.501 122.706 102.337 122.925 102.24C123.144 102.143 123.388 102.118 123.622 102.168L126.165 102.708L124.423 100.775C124.263 100.598 124.164 100.374 124.139 100.136C124.114 99.8983 124.164 99.6587 124.284 99.4517L125.59 97.2053L123.204 98.2675C122.985 98.3656 122.741 98.3914 122.506 98.3413C122.271 98.2912 122.058 98.1678 121.898 97.9889L120.157 96.0559L120.435 98.6332C120.459 98.872 120.405 99.1121 120.283 99.3186C120.161 99.5252 119.977 99.6877 119.756 99.7825L117.44 100.845Z" fill="#1078FF"/>
<path d="M104.571 129.386L100.044 125.277L94.7497 128.342L97.2573 122.769L92.6948 118.694L98.7724 119.339L101.245 113.749L102.499 119.739L108.577 120.366L103.283 123.396L104.571 129.386Z" fill="#5CD8FF"/>
<path d="M105.982 131.842L99.9218 126.356L92.9562 130.449L96.2823 122.995L90.2048 117.545L98.3197 118.415L101.628 110.927L103.37 118.938L111.485 119.774L104.397 123.849L105.982 131.842ZM100.2 124.214L103.196 126.914L102.342 122.961L105.825 120.958L101.802 120.54L100.967 116.587L99.3297 120.279L95.3071 119.843L98.3197 122.543L96.5783 126.234L100.2 124.214Z" fill="#1078FF"/>
<path d="M104.571 130.518C104.288 130.517 104.015 130.412 103.805 130.222L99.8868 126.739L95.3244 129.352C95.1169 129.473 94.8762 129.525 94.6371 129.501C94.398 129.476 94.173 129.376 93.9945 129.215C93.8161 129.054 93.6935 128.84 93.6445 128.605C93.5956 128.37 93.6228 128.125 93.7223 127.906L95.8816 123.1L91.9461 119.617C91.7648 119.459 91.6397 119.246 91.5895 119.01C91.5392 118.775 91.5666 118.53 91.6674 118.311C91.7623 118.091 91.9247 117.906 92.1313 117.784C92.3379 117.662 92.5779 117.609 92.8168 117.632L98.041 118.207L100.183 113.365C100.28 113.147 100.444 112.965 100.651 112.845C100.858 112.725 101.098 112.674 101.336 112.7C101.574 112.725 101.798 112.825 101.976 112.985C102.153 113.145 102.275 113.358 102.325 113.592L103.404 118.816L108.629 119.356C108.868 119.384 109.093 119.486 109.271 119.648C109.449 119.811 109.572 120.025 109.621 120.261C109.665 120.497 109.635 120.741 109.535 120.959C109.435 121.177 109.271 121.359 109.064 121.48L104.484 124.093L105.546 129.003C105.626 129.16 105.667 129.333 105.668 129.508C105.673 129.66 105.647 129.811 105.591 129.951C105.534 130.092 105.45 130.22 105.342 130.326C105.234 130.432 105.105 130.515 104.963 130.569C104.822 130.623 104.67 130.648 104.519 130.64L104.571 130.518ZM100.044 124.145C100.322 124.145 100.589 124.251 100.792 124.441L102.725 126.182L102.168 123.64C102.116 123.404 102.142 123.157 102.243 122.937C102.343 122.717 102.513 122.536 102.725 122.421L104.972 121.132L102.377 120.853C102.14 120.831 101.917 120.733 101.741 120.572C101.565 120.412 101.446 120.199 101.402 119.965L100.862 117.423L99.8172 119.809C99.7124 120.024 99.5448 120.203 99.3365 120.321C99.1282 120.439 98.889 120.491 98.6504 120.47L96.0732 120.192L98.0061 121.933C98.1828 122.095 98.3046 122.307 98.3546 122.542C98.4045 122.776 98.3801 123.02 98.2847 123.239L97.2225 125.608L99.4689 124.301C99.6416 124.194 99.84 124.133 100.044 124.127V124.145Z" fill="#1078FF"/>
<path d="M70.6487 138.459L68.7854 132.643L62.6731 132.66L67.6187 129.09L65.7205 123.274L70.6487 126.879L75.5943 123.274L73.6961 129.09L78.6417 132.66L72.5468 132.643L70.6487 138.459Z" fill="#5CD8FF"/>
<path d="M70.5964 141.28L68.0888 133.513H59.9216L66.539 128.724L64.0139 120.958L70.5964 125.869L77.1963 121.062L74.6712 128.829L81.2886 133.618H73.1214L70.5964 141.28ZM69.36 131.772L70.6138 135.62L71.8502 131.772H75.8902L72.6687 129.351L73.9225 125.503L70.5964 127.941L67.34 125.572L68.5938 129.421L65.3722 131.789L69.36 131.772Z" fill="#1078FF"/>
<path d="M70.5965 139.591C70.3567 139.592 70.123 139.516 69.9289 139.375C69.7349 139.235 69.5906 139.036 69.5168 138.808L67.9147 133.775H62.6905C62.4507 133.776 62.217 133.7 62.0229 133.559C61.8289 133.418 61.6846 133.219 61.6108 132.991C61.5404 132.765 61.5428 132.522 61.6178 132.297C61.6928 132.072 61.8365 131.876 62.0287 131.737L66.3126 128.638L64.6583 123.605C64.5883 123.379 64.5912 123.136 64.6666 122.911C64.7419 122.686 64.886 122.491 65.0784 122.352C65.2708 122.214 65.5018 122.139 65.7388 122.139C65.9759 122.139 66.2071 122.213 66.3997 122.351L70.6487 125.451L74.9152 122.351C75.1078 122.213 75.3389 122.139 75.576 122.139C75.8131 122.139 76.0441 122.214 76.2365 122.352C76.4289 122.491 76.5729 122.686 76.6483 122.911C76.7237 123.136 76.7266 123.379 76.6566 123.605L75.0022 128.638L79.2861 131.737C79.4783 131.876 79.622 132.072 79.697 132.297C79.772 132.522 79.7745 132.765 79.704 132.991C79.6303 133.219 79.4859 133.418 79.2919 133.559C79.0979 133.7 78.8641 133.776 78.6243 133.775H73.4001L71.7632 138.808C71.6855 139.051 71.528 139.26 71.3162 139.402C71.1044 139.545 70.8508 139.611 70.5965 139.591ZM68.8551 131.511C69.0948 131.511 69.3286 131.586 69.5226 131.727C69.7166 131.868 69.861 132.067 69.9347 132.295L70.7358 134.768L71.5368 132.295C71.6082 132.065 71.7519 131.865 71.9465 131.724C72.1411 131.582 72.3761 131.508 72.6165 131.511H75.1938L73.1041 129.979C72.9084 129.839 72.7623 129.64 72.6871 129.411C72.612 129.183 72.6117 128.936 72.6862 128.707L73.5046 126.235L71.3975 127.767C71.2032 127.91 70.9683 127.987 70.7271 127.987C70.4859 127.987 70.251 127.91 70.0566 127.767L67.9496 126.235L68.768 128.707C68.8425 128.936 68.8422 129.183 68.767 129.411C68.6918 129.64 68.5458 129.839 68.35 129.979L66.2604 131.511H68.8551Z" fill="#1078FF"/>
<path d="M36.7436 129.386L38.0323 123.396L32.7384 120.366L38.8159 119.739L40.0697 113.749L42.5425 119.339L48.62 118.694L44.0749 122.769L46.5652 128.342L41.2887 125.277L36.7436 129.386Z" fill="#5CD8FF"/>
<path d="M35.3331 131.824L37.0745 123.849L29.9869 119.774L38.1193 118.938L39.8607 110.927L43.1694 118.415L51.2843 117.545L45.2068 122.995L48.5503 130.448L41.4802 126.356L35.3331 131.824ZM35.5072 120.958L38.99 122.96L38.1541 126.931L41.1493 124.214L44.6321 126.234L42.8907 122.543L45.9034 119.843L41.8807 120.279L40.2438 116.57L39.4079 120.54L35.5072 120.958Z" fill="#1078FF"/>
<path d="M36.7436 130.518C36.5471 130.518 36.3544 130.463 36.1864 130.361C35.977 130.244 35.8114 130.061 35.7141 129.842C35.6168 129.622 35.5931 129.377 35.6465 129.142L36.7436 123.918L32.1637 121.289C31.9577 121.172 31.7943 120.992 31.6973 120.776C31.6002 120.56 31.5745 120.319 31.6238 120.087C31.6734 119.851 31.7959 119.637 31.9741 119.474C32.1522 119.312 32.3769 119.209 32.6165 119.182L37.8407 118.642L38.9204 113.418C38.9697 113.183 39.092 112.971 39.2696 112.811C39.4472 112.65 39.6711 112.55 39.909 112.525C40.147 112.5 40.3868 112.551 40.594 112.671C40.8012 112.79 40.9652 112.973 41.0624 113.191L43.2043 118.032L48.4286 117.458C48.667 117.437 48.9059 117.491 49.1119 117.613C49.318 117.735 49.4809 117.918 49.5779 118.137C49.676 118.356 49.7018 118.601 49.6517 118.835C49.6016 119.07 49.4782 119.283 49.2993 119.443L45.3637 122.926L47.523 127.732C47.6225 127.951 47.6497 128.196 47.6008 128.431C47.5518 128.666 47.4292 128.88 47.2508 129.041C47.0723 129.202 46.8473 129.302 46.6082 129.326C46.3691 129.351 46.1284 129.299 45.9209 129.177L41.3584 126.53L37.4402 130.013C37.2822 130.265 37.0325 130.446 36.7436 130.518ZM36.3431 121.132L38.5895 122.421C38.7989 122.538 38.9645 122.721 39.0618 122.941C39.1591 123.16 39.1828 123.405 39.1294 123.64L38.5895 126.182L40.5225 124.441C40.7001 124.281 40.9239 124.181 41.1616 124.156C41.3994 124.131 41.639 124.182 41.846 124.301L44.0924 125.607L43.0302 123.239C42.9348 123.019 42.9104 122.776 42.9603 122.541C43.0103 122.307 43.1321 122.095 43.3088 121.933L45.2418 120.192L42.6645 120.47C42.428 120.492 42.1905 120.44 41.9847 120.322C41.7789 120.203 41.6149 120.024 41.5151 119.809L40.4529 117.423L39.913 119.965C39.8679 120.202 39.7463 120.417 39.5669 120.577C39.3875 120.738 39.1604 120.835 38.9204 120.853L36.3431 121.132Z" fill="#1078FF"/>
<path d="M11.9286 104.554L16.0209 100.026L12.956 94.7497L18.5285 97.2399L22.6034 92.6774L21.9591 98.7549L27.5316 101.228L21.5586 102.482L20.9491 108.559L17.9016 103.265L11.9286 104.554Z" fill="#5CD8FF"/>
<path d="M21.5411 111.345L17.4662 104.258L9.47314 105.999L14.9586 99.9218L10.8489 92.7821L18.3543 96.2649L23.805 90.1874L22.9343 98.3023L30.4049 101.611L22.4118 103.352L21.5411 111.345ZM18.3369 102.29L20.357 105.773L20.7575 101.75L24.7279 100.914L21.0187 99.2775L21.4541 95.2549L18.7549 98.2675L15.0631 96.6306L17.1005 100.113L14.3839 103.23L18.3369 102.29Z" fill="#1078FF"/>
<path d="M20.9491 109.709C20.7485 109.705 20.5522 109.65 20.3785 109.549C20.2049 109.449 20.0597 109.306 19.9565 109.134L17.327 104.554L12.1028 105.669C11.8689 105.719 11.6252 105.694 11.4065 105.597C11.1878 105.5 11.0055 105.336 10.8856 105.129C10.7656 104.922 10.7144 104.683 10.7391 104.445C10.7638 104.207 10.8632 103.983 11.0231 103.805L14.5059 99.8696L11.859 95.3071C11.7376 95.0996 11.6854 94.8589 11.7099 94.6198C11.7345 94.3807 11.8345 94.1557 11.9955 93.9772C12.1565 93.7988 12.3701 93.6762 12.6054 93.6272C12.8407 93.5783 13.0855 93.6055 13.3043 93.705L18.1106 95.8643L21.5934 91.9287C21.7518 91.7475 21.9646 91.6224 22.2001 91.5721C22.4355 91.5219 22.6808 91.5493 22.8994 91.6501C23.1166 91.7477 23.2974 91.9114 23.4162 92.1177C23.535 92.3241 23.5858 92.5626 23.5612 92.7994L22.9865 98.0237L27.8276 100.166C28.0447 100.263 28.2256 100.427 28.3444 100.633C28.4632 100.84 28.5139 101.078 28.4893 101.315C28.4627 101.552 28.3628 101.775 28.2037 101.953C28.0445 102.131 27.8339 102.255 27.6012 102.308L22.377 103.387L21.8372 108.612C21.8131 108.85 21.7141 109.074 21.5545 109.252C21.395 109.431 21.183 109.554 20.9491 109.604V109.709ZM17.9016 102.151C18.0986 102.151 18.2922 102.202 18.4632 102.3C18.6342 102.398 18.7768 102.538 18.8768 102.708L20.1828 104.972L20.444 102.377C20.4627 102.137 20.5597 101.91 20.7202 101.731C20.8807 101.551 21.0958 101.43 21.3322 101.385L23.8746 100.845L21.4889 99.7477C21.2717 99.6501 21.0909 99.4864 20.9721 99.2801C20.8533 99.0737 20.8026 98.8352 20.8272 98.5983L21.1058 96.021L19.3644 97.954C19.206 98.1353 18.9931 98.2604 18.7577 98.3106C18.5223 98.3609 18.2769 98.3335 18.0583 98.2327L15.7074 97.1704L17.0135 99.4168C17.133 99.6239 17.1839 99.8635 17.1589 100.101C17.1339 100.339 17.0342 100.563 16.8742 100.74L15.1328 102.673L17.6752 102.133L17.9016 102.151Z" fill="#1078FF"/>
<path d="M2.8385 70.6487L8.65474 68.7679L8.63734 62.6556L12.2072 67.6186L18.0234 65.7031L14.4188 70.6487L18.0234 75.5768L12.2072 73.6787L8.63734 78.6417L8.65474 72.5119L2.8385 70.6487Z" fill="#5CD8FF"/>
<path d="M7.76668 81.3411V73.1565L0 70.6488L7.76668 68.1412V59.9565L12.5556 66.5913L20.3223 64.0314L15.4985 70.6488L20.3223 77.2314L12.5556 74.7063L7.76668 81.3411ZM5.67699 70.6488L9.52549 71.8852V75.9427L11.8938 72.6514L15.7423 73.9053L13.3566 70.6488L15.7423 67.375L11.8938 68.6288L9.52549 65.3549V69.4124L5.67699 70.6488Z" fill="#1078FF"/>
<path d="M8.63727 79.7737C8.52179 79.7906 8.40447 79.7906 8.28899 79.7737C8.06086 79.6999 7.86204 79.5556 7.72121 79.3616C7.58037 79.1675 7.5048 78.9338 7.50537 78.694V73.4698L2.49012 71.8503C2.26042 71.778 2.05977 71.6343 1.91734 71.4402C1.7749 71.246 1.69812 71.0114 1.69812 70.7706C1.69812 70.5298 1.7749 70.2953 1.91734 70.1011C2.05977 69.9069 2.26042 69.7633 2.49012 69.6909L7.50537 68.0715V62.8472C7.50399 62.6066 7.57934 62.3718 7.72049 62.1769C7.86164 61.982 8.06123 61.8371 8.29029 61.7633C8.51936 61.6896 8.76595 61.6908 8.99431 61.7667C9.22267 61.8426 9.4209 61.9893 9.56021 62.1855L12.6425 66.4694L17.6752 64.815C17.9028 64.7394 18.1486 64.738 18.377 64.8112C18.6055 64.8843 18.8048 65.0281 18.9463 65.2219C19.0877 65.4156 19.1639 65.6492 19.1639 65.8891C19.164 66.129 19.0878 66.3627 18.9464 66.5564L15.8293 70.8403L18.9464 75.0893C19.0819 75.2866 19.1545 75.5204 19.1545 75.7598C19.1545 75.9991 19.0819 76.2329 18.9464 76.4302C18.8041 76.6228 18.6044 76.7654 18.376 76.8374C18.1475 76.9094 17.9022 76.907 17.6752 76.8307L12.6425 75.2112L9.64728 79.3035C9.5326 79.4611 9.37974 79.5869 9.20306 79.6692C9.02638 79.7514 8.83167 79.7874 8.63727 79.7737ZM6.53018 70.6488L9.00297 71.4498C9.2311 71.5236 9.4299 71.6679 9.57073 71.8619C9.71157 72.056 9.78717 72.2897 9.7866 72.5294V75.1241L11.319 73.017C11.4608 72.8234 11.6596 72.679 11.8875 72.604C12.1155 72.5291 12.3613 72.5273 12.5903 72.5991L15.063 73.4176L13.5306 71.3105C13.3865 71.12 13.3086 70.8876 13.3086 70.6488C13.3086 70.4099 13.3865 70.1775 13.5306 69.987L15.063 67.8799L12.5903 68.681C12.363 68.7546 12.1185 68.7556 11.8907 68.6838C11.6628 68.612 11.463 68.471 11.319 68.2804L9.7866 66.1559V68.768C9.78453 69.0071 9.70793 69.2397 9.56746 69.4332C9.427 69.6267 9.22968 69.7716 9.00297 69.8477L6.53018 70.6488Z" fill="#1078FF"/>
<path d="M11.9286 36.7264L17.9016 38.015L20.9491 32.7212L21.5586 38.7986L27.5316 40.0524L21.9591 42.5252L22.6034 48.6027L18.5285 44.0576L12.956 46.5478L16.0209 41.2714L11.9286 36.7264Z" fill="#5CD8FF"/>
<path d="M23.7527 51.1797L18.3543 45.1197L10.9011 48.4457L15.0108 41.3757L9.47314 35.3156L17.4662 37.057L21.5411 29.9695L22.3596 38.0844L30.3527 39.8258L22.882 43.1344L23.7527 51.1797ZM18.7549 43.0126L21.4541 46.0078L21.0187 41.9851L24.7279 40.3482L20.7575 39.5124L20.357 35.4897L18.3369 38.9725L14.3839 38.1192L17.1005 41.1318L15.0631 44.6146L18.7549 43.0126Z" fill="#1078FF"/>
<path d="M22.6034 49.7345C22.4449 49.7338 22.2883 49.6992 22.1441 49.6332C22 49.5671 21.8716 49.471 21.7676 49.3514L18.2847 45.4332L13.4784 47.5926C13.2588 47.6879 13.0149 47.7124 12.7808 47.6624C12.5466 47.6125 12.3339 47.4907 12.1723 47.314C12.0123 47.1364 11.9127 46.9126 11.8877 46.6749C11.8626 46.4371 11.9135 46.1975 12.033 45.9905L14.68 41.4106L11.1972 37.4925C11.0372 37.3148 10.9375 37.0911 10.9125 36.8534C10.8874 36.6156 10.9383 36.376 11.0578 36.169C11.1757 35.9596 11.3581 35.794 11.5777 35.6967C11.7974 35.5994 12.0426 35.5757 12.2768 35.6292L17.5011 36.7437L20.1306 32.1638C20.2463 31.9524 20.4284 31.785 20.6487 31.6875C20.869 31.5899 21.1153 31.5676 21.3496 31.624C21.5848 31.6717 21.7983 31.7942 21.9583 31.973C22.1183 32.1518 22.2163 32.3776 22.2377 32.6166L22.7776 37.8408L28.0018 38.9204C28.2346 38.9732 28.4452 39.0971 28.6043 39.2749C28.7635 39.4528 28.8633 39.6758 28.8899 39.913C28.9145 40.1499 28.8638 40.3884 28.745 40.5948C28.6262 40.8011 28.4454 40.9647 28.2282 41.0623L23.3871 43.2043L23.9617 48.4284C23.9762 48.5865 23.9577 48.7458 23.9076 48.8963C23.8574 49.0469 23.7766 49.1854 23.6703 49.3032C23.5639 49.421 23.4344 49.5155 23.2897 49.5807C23.1451 49.6459 22.9885 49.6805 22.8298 49.6823L22.6034 49.7345ZM18.5285 42.9256C18.6867 42.9285 18.8426 42.964 18.9864 43.0299C19.1303 43.0959 19.2589 43.1908 19.3644 43.3087L21.1058 45.2417L20.8272 42.647C20.8026 42.4102 20.8533 42.1716 20.9721 41.9653C21.0909 41.7589 21.2718 41.5953 21.4889 41.4977L23.8747 40.4354L21.3322 39.8956C21.097 39.8478 20.8836 39.7254 20.7236 39.5466C20.5635 39.3677 20.4655 39.142 20.4441 38.903L20.1829 36.3257L18.8768 38.5896C18.7569 38.797 18.5743 38.9609 18.3552 39.058C18.1362 39.155 17.892 39.18 17.6578 39.1294L15.1153 38.5896L16.8568 40.5051C17.0182 40.6855 17.1186 40.9122 17.1437 41.153C17.1687 41.3938 17.117 41.6363 16.9961 41.846L15.69 44.0749L18.0409 43.0301C18.1939 42.96 18.3603 42.9243 18.5285 42.9256Z" fill="#1078FF"/>
<path d="M36.7436 11.9114L41.2887 16.0037L46.5652 12.9562L44.0749 18.5287L48.62 22.6037L42.5425 21.9419L40.0697 27.5144L38.8159 21.5588L32.7384 20.9319L38.0323 17.8844L36.7436 11.9114Z" fill="#5CD8FF"/>
<path d="M39.7736 30.3354L38.0322 22.3597L29.8999 21.5065L36.9874 17.4489L35.246 9.47327L41.306 14.9239L48.3761 10.849L45.0326 18.3023L51.1101 23.7528L42.9952 22.8821L39.7736 30.3354ZM35.5072 20.3397L39.5298 20.7577L40.3657 24.7107L42.0026 21.0189L46.0252 21.4368L43.0126 18.755L44.754 15.0458L41.2712 17.0658L38.1715 14.4189L39.0074 18.3893L35.5072 20.3397Z" fill="#1078FF"/>
<path d="M40.0697 28.6462H39.9478C39.7106 28.6196 39.4876 28.5197 39.3098 28.3606C39.1319 28.2015 39.008 27.9909 38.9552 27.7581L37.8756 22.534L32.6513 21.9767C32.4129 21.9529 32.1881 21.8541 32.0094 21.6944C31.8307 21.5347 31.7073 21.3225 31.657 21.0882C31.6066 20.8539 31.6319 20.6097 31.7293 20.3907C31.8266 20.1717 31.9909 19.9893 32.1985 19.8696L36.7785 17.2576L35.6814 12.0334C35.6279 11.7992 35.6517 11.554 35.7489 11.3343C35.8462 11.1146 36.0119 10.9323 36.2212 10.8144C36.4282 10.6949 36.6678 10.644 36.9056 10.6691C37.1433 10.6941 37.3671 10.7937 37.5447 10.9538L41.4629 14.4365L46.0253 11.7896C46.2331 11.6727 46.4722 11.6233 46.7093 11.6482C46.9464 11.6732 47.1699 11.7713 47.3488 11.9289C47.5301 12.0873 47.6552 12.3002 47.7054 12.5356C47.7556 12.771 47.7283 13.0164 47.6274 13.235L45.4681 18.0586L49.4037 21.5414C49.5811 21.701 49.7037 21.9126 49.7536 22.146C49.8036 22.3794 49.7785 22.6227 49.6819 22.841C49.5853 23.0592 49.4221 23.2414 49.2158 23.3614C49.0095 23.4814 48.7705 23.5331 48.533 23.5091L43.3088 22.9519L41.1668 27.7755C41.1082 28.0227 40.9681 28.243 40.7691 28.4009C40.5701 28.5589 40.3238 28.6453 40.0697 28.6462ZM36.3431 20.1656L38.9204 20.4269C39.1618 20.4493 39.3894 20.5498 39.5685 20.7132C39.7476 20.8766 39.8686 21.094 39.913 21.3324L40.4528 23.8574L41.5151 21.4891C41.6105 21.2703 41.7737 21.0878 41.9806 20.9687C42.1875 20.8496 42.4273 20.8 42.6644 20.8274L45.2417 21.106L43.3088 19.3646C43.1321 19.2031 43.0102 18.9904 42.9603 18.7562C42.9103 18.5221 42.9347 18.2782 43.0301 18.0586L44.0924 15.6729L41.846 16.9789C41.6389 17.0984 41.3993 17.1494 41.1616 17.1243C40.9238 17.0993 40.7001 16.9997 40.5225 16.8396L38.5895 15.0983L39.1293 17.658C39.1828 17.8923 39.1591 18.1375 39.0618 18.3572C38.9645 18.5769 38.7989 18.7592 38.5895 18.877L36.3431 20.1656Z" fill="#1078FF"/>
<rect x="59" y="76" width="41" height="17" fill="#B9EEFF"/>
<path d="M63.8115 88.5205H68.6528V90H61.9585V79.3359H63.8115V88.5205ZM77.7788 88.6157C77.3931 89.1187 76.8584 89.4995 76.1748 89.7583C75.4912 90.0171 74.7148 90.1465 73.8457 90.1465C72.9521 90.1465 72.1611 89.9438 71.4727 89.5386C70.7842 89.1333 70.252 88.5547 69.876 87.8027C69.5049 87.0459 69.312 86.1646 69.2974 85.1587V84.3237C69.2974 82.7124 69.6831 81.4551 70.4546 80.5518C71.2261 79.6436 72.3027 79.1895 73.6846 79.1895C74.8711 79.1895 75.8135 79.4824 76.5117 80.0684C77.21 80.6543 77.6299 81.499 77.7715 82.6025H75.9551C75.75 81.3184 75.0054 80.6763 73.7212 80.6763C72.8911 80.6763 72.2588 80.9766 71.8242 81.5771C71.3945 82.1729 71.1724 83.0493 71.1577 84.2065V85.0269C71.1577 86.1792 71.3994 87.0752 71.8828 87.7148C72.3711 88.3496 73.0474 88.667 73.9116 88.667C74.8589 88.667 75.5327 88.4521 75.9331 88.0225V85.9351H73.7358V84.5288H77.7788V88.6157ZM81.668 86.0376V90H79.8149V79.3359H83.8945C85.0859 79.3359 86.0308 79.646 86.729 80.2661C87.4321 80.8862 87.7837 81.7065 87.7837 82.7271C87.7837 83.772 87.4395 84.585 86.751 85.166C86.0674 85.7471 85.1079 86.0376 83.8726 86.0376H81.668ZM81.668 84.5508H83.8945C84.5537 84.5508 85.0566 84.397 85.4033 84.0894C85.75 83.7769 85.9233 83.3276 85.9233 82.7417C85.9233 82.1655 85.7476 81.7065 85.396 81.3647C85.0444 81.0181 84.561 80.8398 83.9458 80.8301H81.668V84.5508ZM89.4097 90V79.3359H92.5591C93.5015 79.3359 94.3364 79.5459 95.064 79.9658C95.7964 80.3857 96.3628 80.9814 96.7632 81.7529C97.1636 82.5244 97.3638 83.4082 97.3638 84.4043V84.939C97.3638 85.9497 97.1611 86.8384 96.7559 87.605C96.3555 88.3716 95.7817 88.9624 95.0347 89.3774C94.2925 89.7925 93.4404 90 92.4785 90H89.4097ZM91.2627 80.8301V88.5205H92.4712C93.4429 88.5205 94.1875 88.2178 94.7051 87.6123C95.2275 87.002 95.4937 86.1279 95.5034 84.9902V84.397C95.5034 83.2397 95.252 82.356 94.749 81.7456C94.2461 81.1353 93.5161 80.8301 92.5591 80.8301H91.2627Z" fill="#1078FF"/>
</svg>
