<svg width="141" height="116" viewBox="0 0 141 116" fill="none" xmlns="http://www.w3.org/2000/svg">
<path d="M128 107H75V115H128V107Z" fill="#50D5FF"/>
<path d="M127.772 116H75.2277C74.9003 115.995 74.5881 115.859 74.3584 115.62C74.1287 115.382 74 115.061 74 114.726V107.255C74 106.922 74.1293 106.603 74.3596 106.368C74.5898 106.132 74.9021 106 75.2277 106H127.772C128.098 106 128.41 106.132 128.64 106.368C128.871 106.603 129 106.922 129 107.255V114.726C129 115.061 128.871 115.382 128.642 115.62C128.412 115.859 128.1 115.995 127.772 116ZM76.4553 113.471H126.545V108.51H76.4553V113.471Z" fill="#1078FF"/>
<path d="M94.6639 10.6763C94.4367 10.816 94.2556 11.0353 94.1478 11.3013C94.0401 11.5673 94.0115 11.8658 94.0664 12.1517L94.6096 15.0001L92.7988 13.0534C92.5986 12.8592 92.3506 12.7393 92.0882 12.7099C91.8258 12.6806 91.5618 12.7433 91.332 12.8894L89.1408 14.3443L90.173 11.7009C90.2841 11.418 90.3089 11.1013 90.2433 10.8008C90.1778 10.5002 90.0256 10.2329 89.8109 10.0411L88 8.15581L90.5352 8.46318C90.8028 8.49557 91.0726 8.42933 91.3042 8.27426C91.5359 8.11918 91.7171 7.88359 91.8209 7.60256L92.835 5.00006L93.3601 7.80749C93.4141 8.10761 93.5528 8.37974 93.7553 8.583C93.9578 8.78625 94.2131 8.9096 94.4828 8.93451L97 9.20091L94.6639 10.6763Z" fill="#B9EEFF"/>
<path d="M94.2879 16.0001C93.9848 15.9998 93.6931 15.8831 93.4718 15.6735L91.4789 13.7522L89.0875 15.1163C88.8618 15.2482 88.6007 15.3043 88.3416 15.2767C88.0825 15.2491 87.8386 15.1392 87.645 14.9626C87.4525 14.7844 87.3197 14.5497 87.2652 14.2914C87.2108 14.033 87.2374 13.764 87.3413 13.5217L88.4422 11.0625L86.4114 9.14128C86.2158 8.96428 86.0811 8.7288 86.0268 8.46901C85.9724 8.20923 86.0013 7.93864 86.1092 7.6966C86.2171 7.45457 86.3984 7.25369 86.6268 7.12307C86.8552 6.99245 87.1189 6.93893 87.3793 6.97027L90.0554 7.27768L91.1942 4.74163C91.3001 4.50041 91.4788 4.29939 91.7047 4.16739C91.9305 4.0354 92.1919 3.97923 92.4512 4.00698C92.7106 4.03472 92.9546 4.14496 93.1481 4.32183C93.3417 4.49869 93.475 4.7331 93.5287 4.9914L94.1741 7.68112L96.8881 8.00776C97.146 8.03029 97.3901 8.13562 97.5848 8.30842C97.7794 8.48123 97.9143 8.71246 97.97 8.96838C98.0269 9.22468 98.0025 9.4926 97.9003 9.73405C97.798 9.9755 97.6232 10.1782 97.4006 10.3132L95.0661 11.6965L95.5406 14.1365C95.6182 14.3048 95.6571 14.4887 95.6545 14.6745C95.6447 15.0059 95.509 15.3207 95.2757 15.5533C95.0423 15.7859 94.7293 15.9185 94.4018 15.9233L94.2879 16.0001ZM91.441 11.3507C91.793 11.3522 92.1413 11.424 92.4659 11.562C92.5249 11.019 92.7506 10.5084 93.1112 10.1019C92.6127 9.8841 92.1991 9.50594 91.9345 9.02601C91.6532 9.00455 91.3723 9.07166 91.1302 9.21821C90.8882 9.36475 90.6969 9.58353 90.5825 9.84451C90.4682 10.1055 90.4364 10.3959 90.4915 10.6758C90.5467 10.9558 90.686 11.2117 90.8905 11.4083C91.0716 11.3702 91.256 11.3509 91.441 11.3507Z" fill="#1078FF"/>
<path d="M9.17847 72.3423L10.3347 70.0001L10.9229 72.5082C10.9815 72.7777 11.1331 73.0231 11.3556 73.2089C11.5781 73.3946 11.86 73.5109 12.1602 73.541L15 73.7808L12.5051 75.0718C12.25 75.2112 12.0486 75.419 11.9288 75.6667C11.8089 75.9144 11.7764 76.1898 11.8357 76.455L12.4442 79.0001L10.4158 77.248C10.1916 77.0732 9.91378 76.9653 9.61989 76.9389C9.326 76.9125 9.03029 76.9689 8.77283 77.1005L6.2982 78.4099L7.43409 76.0308C7.54853 75.7747 7.57091 75.4923 7.49803 75.224C7.42516 74.9557 7.26076 74.7152 7.02839 74.537L5 72.8402L7.83979 73.0984C8.12222 73.1173 8.40396 73.0543 8.64451 72.9184C8.88506 72.7826 9.07197 72.5808 9.17847 72.3423Z" fill="#B9EEFF"/>
<path d="M12.2807 80.0001C11.9698 79.9973 11.6706 79.8812 11.4386 79.6735L9.52475 77.7522L7.1133 79.1163C6.88531 79.2502 6.62082 79.3078 6.35806 79.2807C6.09529 79.2536 5.84789 79.1433 5.65176 78.9657C5.45563 78.7881 5.32095 78.5524 5.26716 78.2928C5.21337 78.0332 5.24329 77.7631 5.3526 77.5217L6.4435 75.0625L4.41479 73.1413C4.2176 72.9643 4.08176 72.7287 4.02697 72.469C3.97219 72.2092 4.00133 71.9386 4.11014 71.6966C4.21896 71.4546 4.40181 71.2537 4.63211 71.1231C4.86242 70.9925 5.12819 70.9389 5.39086 70.9703L8.07022 71.2584L9.21853 68.7416C9.32534 68.5004 9.50553 68.2994 9.73326 68.1674C9.96098 68.0354 10.2245 67.9792 10.486 68.007C10.7475 68.0347 10.9936 68.145 11.1888 68.3218C11.384 68.4987 11.5183 68.7331 11.5726 68.9914L12.1276 71.6043L14.8835 71.9693C15.1461 71.993 15.3942 72.1011 15.5908 72.2776C15.7873 72.4542 15.9218 72.6897 15.9744 72.9491C16.027 73.2074 15.9982 73.4757 15.8918 73.7168C15.7855 73.9578 15.607 74.1595 15.3811 74.294L13.027 75.6389L13.563 78.3671C13.6217 78.6255 13.5956 78.896 13.4887 79.1384C13.3818 79.3807 13.1997 79.5819 12.9696 79.7119C12.7768 79.8798 12.5352 79.9809 12.2807 80.0001ZM9.46734 75.3507C9.82851 75.3522 10.186 75.4239 10.5199 75.562C10.5829 75.0142 10.8098 74.4984 11.1707 74.0827C10.668 73.8649 10.2509 73.4867 9.98405 73.0068C9.62639 73.4311 9.1322 73.7166 8.58699 73.8137C8.38396 73.9309 8.2356 74.1243 8.17459 74.3513C8.11357 74.5783 8.14487 74.8202 8.26161 75.0241C8.37835 75.2279 8.57096 75.3768 8.79707 75.4381C9.02319 75.4993 9.2643 75.4679 9.46734 75.3507Z" fill="#1078FF"/>
<path d="M68.7633 25.0001L103 59.2473L76.2366 85.9999L65.5579 75.3368L62.4471 72.2062L52.6598 62.4158L42 51.7338L68.7633 25.0001Z" fill="#5CD8FF"/>
<path d="M76.2583 86.9999C75.9351 86.9908 75.6264 86.8635 75.3909 86.6421L41.3521 52.6244C41.1264 52.3924 41 52.0816 41 51.758C41 51.4344 41.1264 51.1235 41.3521 50.8915L67.9608 24.3517C68.1931 24.1262 68.5043 24.0001 68.8283 24.0001C69.1522 24.0001 69.4635 24.1262 69.6958 24.3517L103.64 58.3506C103.754 58.4643 103.845 58.5993 103.906 58.748C103.968 58.8967 104 59.056 104 59.217C104 59.3779 103.968 59.5373 103.906 59.686C103.845 59.8347 103.754 59.9697 103.64 60.0834L77.0315 86.6421C76.824 86.8485 76.5502 86.9752 76.2583 86.9999ZM43.9546 51.7768L76.2583 84.0427L101.132 59.217L68.8283 26.9511L43.9546 51.7768Z" fill="#1078FF"/>
<path d="M31 49.4111L66.4011 14.0001L73 20.589L68.5631 25.0319L42.0358 51.5572L37.5801 56.0001L31 49.4111Z" fill="#A9EAFF"/>
<path d="M37.7243 57.9988C37.5653 57.999 37.4079 57.9671 37.261 57.9049C37.1141 57.8428 36.9806 57.7515 36.8681 57.6364L30.3538 50.9615C30.2398 50.8475 30.1496 50.711 30.0888 50.5601C30.028 50.4093 29.9978 50.2474 30.0001 50.0842C29.9989 49.9212 30.0295 49.7596 30.0903 49.6089C30.151 49.4582 30.2406 49.3216 30.3538 49.207L65.401 13.372C65.5121 13.2544 65.6451 13.1608 65.7922 13.0969C65.9393 13.033 66.0974 13.0001 66.2572 13.0001C66.417 13.0001 66.5751 13.033 66.7222 13.0969C66.8693 13.1608 67.0023 13.2544 67.1134 13.372L73.6464 20.047C73.8714 20.2809 73.9984 20.5957 74 20.9242C73.9999 21.0888 73.9668 21.2516 73.9028 21.4025C73.8387 21.5534 73.7452 21.6892 73.6278 21.8016L38.5804 57.6746C38.4661 57.7846 38.3315 57.8699 38.1844 57.9256C38.0374 57.9813 37.8809 58.0062 37.7243 57.9988ZM32.9222 50.0842L37.7243 55.0237L71.0778 20.8861L66.2572 15.9467L32.9222 50.0842Z" fill="#1078FF"/>
<path d="M102.973 59.4558L107.414 55.0001L114 61.599L78.586 97.0002L72 90.4012L76.422 85.9643L102.973 59.4558Z" fill="#A9EAFF"/>
<path d="M77.916 98.0002C77.5878 97.9985 77.2733 97.8716 77.0396 97.6465L70.3715 91.1135C70.254 91.0024 70.1605 90.8694 70.0967 90.7223C70.0329 90.5752 70 90.4171 70 90.2574C70 90.0976 70.0329 89.9395 70.0967 89.7924C70.1605 89.6453 70.254 89.5123 70.3715 89.4012L106.208 54.3537C106.443 54.1319 106.757 54.0055 107.084 54.0001C107.411 54.0055 107.724 54.1319 107.96 54.3537L114.628 60.8867C114.746 60.9978 114.839 61.1308 114.903 61.2779C114.967 61.425 115 61.5831 115 61.7429C115 61.9027 114.967 62.0608 114.903 62.2079C114.839 62.355 114.746 62.488 114.628 62.5991L78.7733 97.6465C78.5443 97.8672 78.2375 97.9938 77.916 98.0002ZM72.9816 90.2574L77.916 95.078L112.018 61.7429L107.103 56.9222L103.483 60.4773L72.9816 90.2574Z" fill="#1078FF"/>
<path d="M51.461 69.9953L46.1343 75.3201L52.7702 81.9583L58.097 76.6335L51.461 69.9953Z" fill="#A9EAFF"/>
<path d="M52.5629 82.9983C52.2467 82.9967 51.9437 82.8715 51.7185 82.6496L45.3488 76.2073C45.1268 75.9821 45.0016 75.6791 45 75.3629C44.9988 75.206 45.0291 75.0505 45.089 74.9055C45.1489 74.7605 45.2372 74.629 45.3488 74.5187L50.5254 69.3427C50.7515 69.123 51.0544 69.0001 51.3697 69.0001C51.6851 69.0001 51.988 69.123 52.2141 69.3427L58.6573 75.7851C58.8771 76.0112 59 76.3141 59 76.6294C59 76.9447 58.8771 77.2476 58.6573 77.4737L53.4807 82.6496C53.3606 82.7685 53.2168 82.861 53.0587 82.9211C52.9007 82.9811 52.7318 83.0074 52.5629 82.9983ZM47.8086 75.3629L52.5629 80.1167L56.0506 76.6294L51.2963 71.8756L47.8086 75.3629Z" fill="#1078FF"/>
<path d="M46.403 75.0001L53 81.7911L25.597 110L19 103.228L46.403 75.0001Z" fill="#A9EAFF"/>
<path d="M24.9243 111C24.597 110.994 24.284 110.864 24.0482 110.637L17.3633 103.954C17.2481 103.839 17.1568 103.702 17.0944 103.552C17.0321 103.401 17 103.239 17 103.076C17 102.913 17.0321 102.751 17.0944 102.601C17.1568 102.45 17.2481 102.313 17.3633 102.198L45.2074 74.3422C45.4464 74.1222 45.759 74.0001 46.0835 74.0001C46.4079 74.0001 46.7206 74.1222 46.9596 74.3422L53.6444 81.0436C53.8724 81.2788 54 81.5939 54 81.9219C54 82.2498 53.8724 82.5649 53.6444 82.8001L25.8765 110.637C25.6195 110.879 25.2771 111.01 24.9243 111ZM19.9916 103.076L24.9243 108.002L50.921 81.9219L45.9883 76.9769L19.9916 103.076Z" fill="#1078FF"/>
<path d="M96.5083 12.6452L97.7228 18.3922C97.7908 18.7346 97.7239 19.0905 97.536 19.3838C97.3482 19.6772 97.0543 19.885 96.717 19.963C96.4963 20.0182 96.265 20.0116 96.0477 19.9441C95.8304 19.8766 95.6354 19.7507 95.4836 19.5799L91.2898 15.7485L86.3179 18.6795C86.1624 18.778 85.9885 18.8435 85.8071 18.8717C85.6256 18.9 85.4403 18.8905 85.2626 18.8438C85.0849 18.7972 84.9185 18.7144 84.7736 18.6005C84.6288 18.4865 84.5085 18.344 84.4202 18.1815C84.3173 17.9904 84.2633 17.7763 84.2633 17.5588C84.2633 17.3413 84.3173 17.1273 84.4202 16.9362L86.7543 11.6682L82.4657 7.83686C82.3283 7.72163 82.2161 7.57889 82.1363 7.41763C82.0564 7.25638 82.0105 7.08014 82.0016 6.90007C81.9927 6.72001 82.0209 6.54002 82.0844 6.37153C82.148 6.20303 82.2455 6.04969 82.3707 5.9212C82.5068 5.77064 82.6747 5.65289 82.8619 5.57663C83.0491 5.50037 83.2509 5.46757 83.4524 5.48064L89.1454 6.11278L91.4795 0.768074C91.6242 0.451615 91.8867 0.205649 92.2102 0.0836681C92.5336 -0.0383123 92.8916 -0.0264269 93.2064 0.116757C93.4084 0.206383 93.5841 0.346777 93.717 0.524524C93.8499 0.702272 93.9355 0.911435 93.9655 1.13205L95.142 6.74498L100.835 7.33883C101.005 7.35556 101.17 7.4061 101.32 7.48755C101.47 7.56901 101.603 7.67974 101.711 7.81336C101.818 7.94697 101.899 8.1008 101.947 8.26596C101.995 8.43112 102.011 8.60434 101.993 8.77557C101.967 8.99746 101.888 9.20963 101.762 9.39339C101.637 9.57715 101.468 9.72681 101.271 9.82916L96.5083 12.6452ZM93.7378 12.2429C93.6803 11.9756 93.7102 11.6966 93.8231 11.4479C93.936 11.1992 94.1258 10.9942 94.364 10.8636L96.6981 9.48435L94.0603 9.23531C93.7776 9.21202 93.5101 9.09671 93.2979 8.9067C93.0857 8.71669 92.9404 8.46229 92.8838 8.18172L92.2955 5.55722L91.2328 7.99014C91.1241 8.25286 90.9341 8.4731 90.6914 8.61808C90.4486 8.76305 90.166 8.82497 89.8855 8.79469L87.2287 8.50735L89.1264 10.2698C89.3514 10.4491 89.5109 10.699 89.5796 10.98C89.6483 11.2609 89.6224 11.557 89.506 11.8215L88.4243 14.2926L90.7205 12.9325C90.9613 12.7959 91.238 12.7373 91.513 12.7647C91.7879 12.7921 92.0478 12.9042 92.2576 13.0858L94.1552 14.9056L93.7378 12.2429Z" fill="#1078FF"/>
<path d="M9.19159 79.7073L4.20804 82.6312C3.90538 82.7983 3.55007 82.8398 3.21752 82.7471C2.88497 82.6543 2.60135 82.4345 2.42685 82.1343C2.32402 81.9437 2.27019 81.7302 2.27019 81.5133C2.27019 81.2963 2.32402 81.0827 2.42685 80.8921L4.73861 75.6368L0.456211 71.8147C0.321477 71.6982 0.211685 71.5552 0.133535 71.3944C0.0553855 71.2337 0.0104963 71.0585 0.00163159 70.8797C-0.0072331 70.7009 0.0200924 70.5222 0.0819536 70.3544C0.143815 70.1866 0.238899 70.0332 0.361433 69.9037C0.501136 69.7543 0.672651 69.6388 0.863026 69.566C1.0534 69.4932 1.2577 69.4649 1.4605 69.4833L7.14514 70.0948L9.47581 64.7821C9.61676 64.463 9.8775 64.2134 10.2008 64.088C10.5241 63.9625 10.8835 63.9717 11.2002 64.1133C11.4043 64.2043 11.5815 64.3473 11.7144 64.5282C11.8472 64.7091 11.9312 64.9217 11.9581 65.1452L13.1519 70.7254L18.8365 71.3178C19.1806 71.3563 19.4955 71.5308 19.7122 71.8031C19.9289 72.0753 20.0297 72.4232 19.9924 72.7702C19.9672 72.9916 19.8883 73.2033 19.7628 73.3866C19.6372 73.5699 19.4687 73.7192 19.2724 73.8214L14.3457 76.6688L15.5584 82.4019C15.627 82.7409 15.5627 83.0935 15.3789 83.3857C15.1952 83.6779 14.9064 83.887 14.5731 83.9689C14.348 84.0191 14.1138 84.0084 13.8942 83.938C13.6746 83.8675 13.4773 83.7397 13.3224 83.5676L9.19159 79.7073ZM10.2527 69.5979L9.17262 72.025C9.06957 72.2859 8.88314 72.5046 8.64287 72.6465C8.4026 72.7884 8.12227 72.8455 7.84624 72.8085L5.19342 72.5409L7.0883 74.2991C7.30537 74.4838 7.4589 74.7329 7.52698 75.011C7.59505 75.289 7.57415 75.5817 7.46724 75.847L6.36824 78.3122L8.67999 76.9554C8.92051 76.8191 9.19675 76.7607 9.4713 76.788C9.74585 76.8154 10.0054 76.9272 10.2148 77.1083L12.1097 78.9238L11.5412 76.2865C11.4858 76.0118 11.5162 75.7264 11.6282 75.4698C11.7402 75.2131 11.9283 74.9977 12.1666 74.8533L14.4973 73.5156L11.8444 73.2671C11.5639 73.2359 11.3006 73.1153 11.0928 72.9229C10.8849 72.7304 10.7433 72.4761 10.6886 72.197L10.2527 69.5979Z" fill="#1078FF"/>
<path d="M62.768 73.9998C62.6048 74.0033 62.4427 73.9729 62.2919 73.9107C62.1411 73.8485 62.0048 73.7558 61.8917 73.6384L41.3557 53.113C41.1276 52.8787 41 52.5648 41 52.238C41 51.9112 41.1276 51.5973 41.3557 51.3629C41.4707 51.2479 41.6073 51.1567 41.7577 51.0944C41.9081 51.0321 42.0692 51.0001 42.232 51.0001C42.3948 51.0001 42.556 51.0321 42.7064 51.0944C42.8567 51.1567 42.9933 51.2479 43.1083 51.3629L63.6442 71.8693C63.8723 72.1036 64 72.4176 64 72.7444C64 73.0711 63.8723 73.385 63.6442 73.6194C63.5307 73.7376 63.3947 73.8321 63.2443 73.8974C63.0939 73.9627 62.932 73.9975 62.768 73.9998Z" fill="#1078FF"/>
<path d="M75.7716 86.9999C75.4501 86.9908 75.1431 86.8639 74.9089 86.6433L64.3501 76.0933C64.1256 75.862 64 75.5522 64 75.2297C64 74.9072 64.1256 74.5974 64.3501 74.3662C64.462 74.2504 64.5961 74.1583 64.7443 74.0954C64.8925 74.0325 65.0519 74.0001 65.2129 74.0001C65.3738 74.0001 65.5332 74.0325 65.6814 74.0954C65.8296 74.1583 65.9636 74.2504 66.0756 74.3662L76.6343 84.9162C76.75 85.0282 76.842 85.1624 76.9049 85.3108C76.9677 85.4591 77 85.6186 77 85.7798C77 85.9409 76.9677 86.1004 76.9049 86.2487C76.842 86.3971 76.75 86.5312 76.6343 86.6433C76.4043 86.8703 76.0946 86.9983 75.7716 86.9999Z" fill="#1078FF"/>
<path d="M102.856 60.9999C102.692 61.0023 102.529 60.9713 102.378 60.9088C102.226 60.8464 102.089 60.7537 101.974 60.6366L67.3739 26.1166C67.2556 26.0025 67.1616 25.8657 67.0973 25.7146C67.0331 25.5635 67 25.401 67 25.2368C67 25.0727 67.0331 24.9102 67.0973 24.7591C67.1616 24.6079 67.2556 24.4713 67.3739 24.3571C67.61 24.1281 67.9263 24.0001 68.2556 24.0001C68.5849 24.0001 68.9013 24.1281 69.1375 24.3571L103.642 58.8771C103.872 59.1127 104 59.4283 104 59.7568C104 60.0854 103.872 60.401 103.642 60.6366C103.432 60.8476 103.153 60.9765 102.856 60.9999Z" fill="#1078FF"/>
<path d="M37.7243 57.9988C37.5653 57.999 37.4079 57.9671 37.261 57.9049C37.1141 57.8428 36.9806 57.7515 36.8681 57.6364L30.3538 50.9615C30.2398 50.8475 30.1496 50.711 30.0888 50.5601C30.028 50.4093 29.9978 50.2474 30.0001 50.0842C29.9989 49.9212 30.0295 49.7596 30.0903 49.6089C30.151 49.4582 30.2406 49.3216 30.3538 49.207L65.401 13.372C65.5121 13.2544 65.6451 13.1608 65.7922 13.0969C65.9393 13.033 66.0974 13.0001 66.2572 13.0001C66.417 13.0001 66.5751 13.033 66.7222 13.0969C66.8693 13.1608 67.0023 13.2544 67.1134 13.372L73.6464 20.047C73.8714 20.2809 73.9984 20.5957 74 20.9242C73.9999 21.0888 73.9668 21.2516 73.9028 21.4025C73.8387 21.5534 73.7452 21.6892 73.6278 21.8016L38.5804 57.6746C38.4661 57.7846 38.3315 57.8699 38.1844 57.9256C38.0374 57.9813 37.8809 58.0062 37.7243 57.9988ZM32.9222 50.0842L37.7243 55.0237L71.0778 20.8861L66.2572 15.9467L32.9222 50.0842Z" fill="#1078FF"/>
<path d="M77.916 98.0002C77.5878 97.9985 77.2733 97.8716 77.0396 97.6465L70.3715 91.1135C70.254 91.0024 70.1605 90.8694 70.0967 90.7223C70.0329 90.5752 70 90.4171 70 90.2574C70 90.0976 70.0329 89.9395 70.0967 89.7924C70.1605 89.6453 70.254 89.5123 70.3715 89.4012L106.208 54.3537C106.443 54.1319 106.757 54.0055 107.084 54.0001C107.411 54.0055 107.724 54.1319 107.96 54.3537L114.628 60.8867C114.746 60.9978 114.839 61.1308 114.903 61.2779C114.967 61.425 115 61.5831 115 61.7429C115 61.9027 114.967 62.0608 114.903 62.2079C114.839 62.355 114.746 62.488 114.628 62.5991L78.7733 97.6465C78.5443 97.8672 78.2375 97.9938 77.916 98.0002ZM72.9816 90.2574L77.916 95.078L112.018 61.7429L107.103 56.9222L103.483 60.4773L72.9816 90.2574Z" fill="#1078FF"/>
<path d="M24.8691 111C24.5441 110.995 24.2333 110.866 23.9991 110.641L17.3608 104.021C17.2464 103.907 17.1557 103.771 17.0938 103.622C17.0319 103.473 17 103.313 17 103.151C17 102.989 17.0319 102.829 17.0938 102.68C17.1557 102.531 17.2464 102.395 17.3608 102.281L50.2686 69.3532C50.5016 69.1267 50.8137 69.0001 51.1385 69.0001C51.4634 69.0001 51.7756 69.1267 52.0086 69.3532L58.6468 75.9917C58.8733 76.2247 59 76.5368 59 76.8617C59 77.1866 58.8733 77.4988 58.6468 77.7318L25.739 110.641C25.5028 110.863 25.1933 110.991 24.8691 111ZM19.9707 103.151L24.8691 108.031L56.0369 76.8617L51.1385 71.9632L19.9707 103.151Z" fill="#1078FF"/>
<path d="M61.401 80.9999C61.0689 80.9943 60.7512 80.8633 60.5119 80.6333C60.2804 80.3956 60.151 80.0772 60.151 79.7457C60.151 79.4143 60.2804 79.0959 60.5119 78.8582L63.9717 75.3849L52.6064 64.0199L49.1465 67.4931C48.9107 67.7285 48.5909 67.8607 48.2574 67.8607C47.9239 67.8607 47.6041 67.7285 47.3683 67.4931C47.1325 67.2576 47 66.9384 47 66.6055C47 66.2726 47.1325 65.9533 47.3683 65.7179L51.7173 61.3764C51.8326 61.2574 51.9708 61.1627 52.1235 61.098C52.2763 61.0334 52.4405 61.0001 52.6064 61.0001C52.7723 61.0001 52.9365 61.0334 53.0893 61.098C53.242 61.1627 53.3802 61.2574 53.4955 61.3764L66.6391 74.4973C66.8705 74.7351 67 75.0534 67 75.3849C67 75.7164 66.8705 76.0349 66.6391 76.2726L62.2901 80.6141C62.1749 80.734 62.037 80.8298 61.8844 80.8961C61.7317 80.9623 61.5675 80.9976 61.401 80.9999Z" fill="#1078FF"/>
<path d="M55.8165 85.9997C55.6622 85.9999 55.5093 85.9696 55.3667 85.9107C55.2241 85.8518 55.0945 85.7654 54.9853 85.6563L42.3374 73.0073C42.121 72.7846 42 72.4864 42 72.176C42 71.8656 42.121 71.5674 42.3374 71.3448C42.4464 71.2355 42.576 71.1488 42.7186 71.0897C42.8613 71.0305 43.0141 71.0001 43.1685 71.0001C43.3229 71.0001 43.4758 71.0305 43.6184 71.0897C43.7611 71.1488 43.8906 71.2355 43.9997 71.3448L56.6476 83.9939C56.7591 84.1017 56.8477 84.2309 56.9083 84.3737C56.9688 84.5165 57 84.67 57 84.8251C57 84.9802 56.9688 85.1337 56.9083 85.2765C56.8477 85.4193 56.7591 85.5485 56.6476 85.6563C56.5403 85.7679 56.411 85.8559 56.268 85.915C56.1249 85.9741 55.9712 86.003 55.8165 85.9997Z" fill="#1078FF"/>
<path d="M79.7388 48.0001C79.4087 47.9907 79.0936 47.8604 78.8531 47.6337L65.3756 34.1343C65.2568 34.0193 65.1623 33.8814 65.0978 33.729C65.0333 33.5766 65 33.4127 65 33.2472C65 33.0817 65.0333 32.9178 65.0978 32.7654C65.1623 32.613 65.2568 32.4752 65.3756 32.3601C65.6127 32.1292 65.9304 32.0001 66.2612 32.0001C66.592 32.0001 66.9097 32.1292 67.1469 32.3601L80.6245 45.8595C80.7433 45.9746 80.8377 46.1124 80.9023 46.2648C80.9668 46.4172 81 46.581 81 46.7466C81 46.9121 80.9668 47.0759 80.9023 47.2283C80.8377 47.3807 80.7433 47.5186 80.6245 47.6337C80.3861 47.8636 80.0696 47.9944 79.7388 48.0001Z" fill="#1078FF"/>
<path d="M134.018 116H127.982C127.711 115.97 127.461 115.852 127.281 115.667C127.1 115.483 127 115.246 127 115C127 114.754 127.1 114.517 127.281 114.333C127.461 114.149 127.711 114.03 127.982 114H134.018C134.289 114.03 134.539 114.149 134.719 114.333C134.9 114.517 135 114.754 135 115C135 115.246 134.9 115.483 134.719 115.667C134.539 115.852 134.289 115.97 134.018 116Z" fill="#1078FF"/>
<path d="M74.9096 116H47.0904C46.7894 115.97 46.5125 115.852 46.3117 115.667C46.1108 115.483 46 115.246 46 115C46 114.754 46.1108 114.517 46.3117 114.333C46.5125 114.149 46.7894 114.03 47.0904 114H74.9096C75.2106 114.03 75.4875 114.149 75.6883 114.333C75.8892 114.517 76 114.754 76 115C76 115.246 75.8892 115.483 75.6883 115.667C75.4875 115.852 75.2106 115.97 74.9096 116Z" fill="#1078FF"/>
<path d="M127.772 116H75.2277C74.9003 115.995 74.5881 115.859 74.3584 115.62C74.1287 115.382 74 115.061 74 114.726V107.255C74 106.922 74.1293 106.603 74.3596 106.368C74.5898 106.132 74.9021 106 75.2277 106H127.772C128.098 106 128.41 106.132 128.64 106.368C128.871 106.603 129 106.922 129 107.255V114.726C129 115.061 128.871 115.382 128.642 115.62C128.412 115.859 128.1 115.995 127.772 116ZM76.4553 113.471H126.545V108.51H76.4553V113.471Z" fill="#1078FF"/>
<path d="M139.903 116H137.097C136.794 115.97 136.516 115.852 136.314 115.667C136.112 115.483 136 115.246 136 115C136 114.754 136.112 114.517 136.314 114.333C136.516 114.149 136.794 114.03 137.097 114H139.903C140.206 114.03 140.484 114.149 140.686 114.333C140.888 114.517 141 114.754 141 115C141 115.246 140.888 115.483 140.686 115.667C140.484 115.852 140.206 115.97 139.903 116Z" fill="#1078FF"/>
</svg>
