<svg width="152" height="118" viewBox="0 0 152 118" fill="none" xmlns="http://www.w3.org/2000/svg">
<g clip-path="url(#clip0)">
<path d="M149.005 116.4V116.703H149.288C149.342 116.704 149.394 116.691 149.44 116.664C149.459 116.651 149.474 116.634 149.484 116.614C149.494 116.593 149.498 116.571 149.497 116.548C149.498 116.526 149.494 116.504 149.484 116.485C149.474 116.465 149.459 116.448 149.44 116.435C149.395 116.408 149.342 116.395 149.288 116.397H149.005V116.4ZM149.291 116.185C149.413 116.178 149.533 116.213 149.632 116.284C149.671 116.316 149.703 116.357 149.724 116.404C149.744 116.45 149.754 116.501 149.751 116.552C149.753 116.596 149.745 116.64 149.729 116.68C149.712 116.721 149.687 116.758 149.655 116.788C149.579 116.854 149.484 116.894 149.383 116.901L149.763 117.333H149.471L149.121 116.904H149.008V117.333H148.763V116.186H149.295L149.291 116.185ZM149.215 117.729C149.344 117.73 149.471 117.705 149.589 117.653C149.702 117.605 149.805 117.535 149.893 117.448C149.98 117.361 150.05 117.258 150.099 117.144C150.198 116.904 150.198 116.634 150.099 116.394C150.049 116.281 149.98 116.178 149.893 116.09C149.805 116.003 149.702 115.934 149.589 115.885C149.47 115.836 149.343 115.812 149.215 115.814C149.085 115.812 148.956 115.837 148.835 115.885C148.719 115.933 148.614 116.002 148.525 116.09C148.39 116.228 148.299 116.402 148.263 116.591C148.227 116.78 148.247 116.975 148.322 117.152C148.368 117.266 148.437 117.369 148.525 117.455C148.614 117.543 148.72 117.613 148.835 117.661C148.955 117.712 149.085 117.738 149.215 117.737V117.729ZM149.215 115.538C149.549 115.537 149.87 115.668 150.108 115.902C150.223 116.014 150.315 116.147 150.377 116.295C150.442 116.447 150.476 116.61 150.476 116.775C150.476 116.94 150.442 117.103 150.377 117.254C150.313 117.401 150.222 117.535 150.108 117.648C149.992 117.76 149.856 117.849 149.708 117.913C149.552 117.979 149.385 118.013 149.215 118.012C149.044 118.013 148.875 117.98 148.717 117.913C148.567 117.851 148.43 117.761 148.313 117.648C148.2 117.531 148.11 117.393 148.048 117.242C147.983 117.09 147.95 116.927 147.95 116.762C147.95 116.597 147.983 116.434 148.048 116.282C148.111 116.135 148.202 116.001 148.317 115.889C148.432 115.774 148.569 115.684 148.721 115.623C148.878 115.557 149.048 115.523 149.219 115.525L149.215 115.538ZM32.8442 111.106C32.8442 108.919 34.2806 107.121 36.6282 107.121C38.8718 107.121 40.3857 108.841 40.3857 111.106C40.3857 113.372 38.8718 115.092 36.6282 115.092C34.2806 115.092 32.8442 113.294 32.8442 111.106V111.106ZM42.9431 111.106V104.88H40.2306V106.397C39.3703 105.276 38.0654 104.573 36.2908 104.573C32.7948 104.573 30.0512 107.309 30.0512 111.11C30.0512 114.91 32.7933 117.646 36.2908 117.646C38.0646 117.646 39.3703 116.942 40.2306 115.822V117.333H42.94V111.106H42.9431ZM134.593 111.106C134.593 108.919 136.029 107.121 138.378 107.121C140.624 107.121 142.135 108.841 142.135 111.106C142.135 113.372 140.624 115.092 138.378 115.092C136.03 115.092 134.593 113.294 134.593 111.106ZM144.695 111.106V99.8828H141.98V106.397C141.12 105.276 139.815 104.573 138.04 104.573C134.544 104.573 131.801 107.309 131.801 111.11C131.801 114.91 134.543 117.646 138.04 117.646C139.815 117.646 141.12 116.942 141.98 115.822V117.333H144.695V111.106ZM76.6081 106.993C78.3561 106.993 79.4786 108.087 79.7651 110.012H73.2929C73.5825 108.215 74.6761 106.993 76.6088 106.993H76.6081ZM76.6628 104.566C73.0072 104.566 70.4498 107.221 70.4498 111.103C70.4498 115.061 73.1098 117.639 76.8444 117.639C78.7231 117.639 80.4438 117.171 81.9577 115.895L80.6285 113.889C79.5827 114.723 78.2512 115.191 76.9995 115.191C75.2515 115.191 73.66 114.383 73.2686 112.142H82.5307C82.5573 111.806 82.5847 111.466 82.5847 111.102C82.5573 107.221 80.1527 104.566 76.6613 104.566L76.6628 104.566ZM109.41 111.102C109.41 108.914 110.846 107.117 113.194 107.117C115.437 107.117 116.951 108.837 116.951 111.102C116.951 113.367 115.437 115.087 113.194 115.087C110.846 115.087 109.409 113.29 109.409 111.102H109.41ZM119.508 111.102V104.88H116.797V106.397C115.933 105.276 114.632 104.573 112.857 104.573C109.361 104.573 106.617 107.309 106.617 111.11C106.617 114.91 109.359 117.646 112.857 117.646C114.632 117.646 115.933 116.942 116.797 115.822V117.333H119.509V111.106L119.508 111.102ZM94.0919 111.102C94.0919 114.878 96.726 117.638 100.746 117.638C102.625 117.638 103.877 117.221 105.23 116.154L103.928 113.966C102.909 114.697 101.84 115.087 100.66 115.087C98.4945 115.061 96.9023 113.498 96.9023 111.102C96.9023 108.706 98.4945 107.144 100.66 107.117C101.837 107.117 102.906 107.507 103.928 108.238L105.23 106.05C103.875 104.983 102.623 104.566 100.746 104.566C96.726 104.566 94.0919 107.325 94.0919 111.102V111.102ZM129.059 104.566C127.495 104.566 126.475 105.296 125.771 106.39V104.88H123.083V117.326H125.798V110.35C125.798 108.29 126.685 107.146 128.458 107.146C129.039 107.137 129.615 107.244 130.155 107.459L130.991 104.908C130.39 104.672 129.607 104.568 129.058 104.568L129.059 104.566ZM56.3533 105.87C55.0484 105.012 53.2502 104.568 51.2666 104.568C48.1065 104.568 46.072 106.079 46.072 108.552C46.072 110.582 47.5867 111.834 50.3759 112.224L51.6572 112.406C53.1446 112.615 53.8468 113.005 53.8468 113.708C53.8468 114.671 52.8588 115.22 51.0036 115.22C49.1249 115.22 47.7691 114.621 46.8548 113.918L45.5803 116.028C47.0676 117.122 48.9463 117.643 50.9808 117.643C54.5832 117.643 56.671 115.951 56.671 113.581C56.671 111.393 55.0279 110.249 52.3131 109.858L51.0348 109.673C49.8606 109.522 48.9197 109.286 48.9197 108.451C48.9197 107.541 49.8066 106.994 51.2947 106.994C52.8869 106.994 54.4282 107.593 55.1836 108.061L56.3578 105.873L56.3533 105.87ZM91.352 104.57C89.7872 104.57 88.768 105.3 88.0666 106.394V104.88H85.3785V117.326H88.0909V110.35C88.0909 108.29 88.9778 107.146 90.7509 107.146C91.3315 107.137 91.908 107.244 92.4472 107.459L93.2832 104.908C92.6828 104.672 91.9 104.568 91.3505 104.568L91.352 104.57ZM68.2055 104.88H63.7701V101.105H61.028V104.88H58.498V107.354H61.028V113.032C61.028 115.92 62.1513 117.64 65.36 117.64C66.5373 117.64 67.8931 117.276 68.7535 116.677L67.9699 114.36C67.1605 114.828 66.2736 115.064 65.5683 115.064C64.2124 115.064 63.7701 114.229 63.7701 112.98V107.356H68.2055V104.88ZM27.6526 117.33V109.518C27.6526 106.577 25.7739 104.598 22.7453 104.571C21.1531 104.544 19.5108 105.039 18.3609 106.785C17.5006 105.405 16.1447 104.571 14.2386 104.571C12.9064 104.571 11.6045 104.962 10.5853 106.419V104.88H7.87061V117.326H10.6066V110.425C10.6066 108.265 11.8074 107.117 13.6618 107.117C15.463 107.117 16.3742 108.288 16.3742 110.398V117.325H19.1163V110.424C19.1163 108.263 20.368 107.115 22.1685 107.115C24.0206 107.115 24.9045 108.287 24.9045 110.397V117.323L27.6526 117.33Z" fill="#231F20"/>
<path d="M150.551 75.928V74.1079H150.076L149.527 75.3569L148.98 74.1079H148.504V75.928H148.841V74.5569L149.355 75.7399H149.705L150.218 74.5538V75.928H150.553H150.551ZM147.538 75.928V74.4196H148.146V74.1125H146.593V74.4196H147.201V75.928H147.535H147.538Z" fill="#F79410"/>
<path d="M96.5634 83.7338H55.458V10.0217H96.5641L96.5634 83.7338Z" fill="#FF5F00"/>
<path d="M58.064 46.8785C58.064 31.9261 65.0803 18.6063 76.0061 10.0225C67.7358 3.51541 57.5068 -0.0162095 46.9748 -0.000681434C21.0307 -0.000681434 0 20.9875 0 46.8785C0 72.7695 21.0307 93.7578 46.9748 93.7578C57.5071 93.7734 67.7364 90.2418 76.0068 83.7346C65.0818 75.1523 58.064 61.8318 58.064 46.8785Z" fill="#EB001B"/>
<path d="M152.019 46.8793C152.019 72.7703 130.988 93.7585 105.044 93.7585C94.5107 93.7739 84.2803 90.2424 76.0083 83.7353C86.9371 75.1515 93.9534 61.8325 93.9534 46.8793C93.9534 31.926 86.9371 18.607 76.0083 10.0232C84.2801 3.51634 94.5102 -0.0152049 105.043 4.92093e-05C130.987 4.92093e-05 152.018 20.9883 152.018 46.8793" fill="#F79E1B"/>
</g>
<defs>
<clipPath id="clip0">
<rect width="152" height="118" fill="white"/>
</clipPath>
</defs>
</svg>
