<svg width="221" height="216" viewBox="0 0 221 216" fill="none" xmlns="http://www.w3.org/2000/svg">
<rect width="221" height="216" rx="17" fill="#CFCFCF"/>
<path d="M76.6895 92.5645H68.6777V101H65.2188V81.0938H77.8652V83.8828H68.6777V89.8027H76.6895V92.5645ZM79.3691 93.4668C79.3691 92.0176 79.6562 90.7142 80.2305 89.5566C80.8047 88.39 81.6113 87.4967 82.6504 86.877C83.6895 86.248 84.8835 85.9336 86.2324 85.9336C88.2285 85.9336 89.8464 86.5762 91.0859 87.8613C92.3346 89.1465 93.0091 90.8509 93.1094 92.9746L93.123 93.7539C93.123 95.2122 92.8405 96.5156 92.2754 97.6641C91.7194 98.8125 90.9173 99.7012 89.8691 100.33C88.8301 100.959 87.627 101.273 86.2598 101.273C84.1725 101.273 82.5 100.581 81.2422 99.1953C79.9935 97.8008 79.3691 95.946 79.3691 93.6309V93.4668ZM82.6914 93.7539C82.6914 95.276 83.0059 96.4701 83.6348 97.3359C84.2637 98.1927 85.1387 98.6211 86.2598 98.6211C87.3809 98.6211 88.2513 98.1836 88.8711 97.3086C89.5 96.4336 89.8145 95.153 89.8145 93.4668C89.8145 91.972 89.4909 90.7871 88.8438 89.9121C88.2057 89.0371 87.3353 88.5996 86.2324 88.5996C85.1478 88.5996 84.2865 89.0326 83.6484 89.8984C83.0104 90.7552 82.6914 92.0404 82.6914 93.7539ZM100.096 82.6113V86.207H102.707V88.668H100.096V96.9258C100.096 97.4909 100.205 97.901 100.424 98.1562C100.652 98.4023 101.053 98.5254 101.627 98.5254C102.01 98.5254 102.397 98.4798 102.789 98.3887V100.959C102.033 101.169 101.303 101.273 100.602 101.273C98.0495 101.273 96.7734 99.8652 96.7734 97.0488V88.668H94.3398V86.207H96.7734V82.6113H100.096ZM104.225 93.4668C104.225 92.0176 104.512 90.7142 105.086 89.5566C105.66 88.39 106.467 87.4967 107.506 86.877C108.545 86.248 109.739 85.9336 111.088 85.9336C113.084 85.9336 114.702 86.5762 115.941 87.8613C117.19 89.1465 117.865 90.8509 117.965 92.9746L117.979 93.7539C117.979 95.2122 117.696 96.5156 117.131 97.6641C116.575 98.8125 115.773 99.7012 114.725 100.33C113.686 100.959 112.482 101.273 111.115 101.273C109.028 101.273 107.355 100.581 106.098 99.1953C104.849 97.8008 104.225 95.946 104.225 93.6309V93.4668ZM107.547 93.7539C107.547 95.276 107.861 96.4701 108.49 97.3359C109.119 98.1927 109.994 98.6211 111.115 98.6211C112.236 98.6211 113.107 98.1836 113.727 97.3086C114.355 96.4336 114.67 95.153 114.67 93.4668C114.67 91.972 114.346 90.7871 113.699 89.9121C113.061 89.0371 112.191 88.5996 111.088 88.5996C110.003 88.5996 109.142 89.0326 108.504 89.8984C107.866 90.7552 107.547 92.0404 107.547 93.7539ZM127.139 93.4941C127.139 91.2155 127.667 89.388 128.725 88.0117C129.782 86.6263 131.199 85.9336 132.977 85.9336C134.544 85.9336 135.811 86.4805 136.777 87.5742V80H140.1V101H137.092L136.928 99.4688C135.934 100.672 134.608 101.273 132.949 101.273C131.217 101.273 129.814 100.576 128.738 99.1816C127.672 97.7871 127.139 95.8913 127.139 93.4941ZM130.461 93.7812C130.461 95.2852 130.748 96.4609 131.322 97.3086C131.906 98.1471 132.73 98.5664 133.797 98.5664C135.155 98.5664 136.148 97.9603 136.777 96.748V90.4316C136.167 89.2467 135.182 88.6543 133.824 88.6543C132.749 88.6543 131.919 89.0827 131.336 89.9395C130.753 90.7871 130.461 92.0677 130.461 93.7812ZM142.943 93.4668C142.943 92.0176 143.23 90.7142 143.805 89.5566C144.379 88.39 145.186 87.4967 146.225 86.877C147.264 86.248 148.458 85.9336 149.807 85.9336C151.803 85.9336 153.421 86.5762 154.66 87.8613C155.909 89.1465 156.583 90.8509 156.684 92.9746L156.697 93.7539C156.697 95.2122 156.415 96.5156 155.85 97.6641C155.294 98.8125 154.492 99.7012 153.443 100.33C152.404 100.959 151.201 101.273 149.834 101.273C147.747 101.273 146.074 100.581 144.816 99.1953C143.568 97.8008 142.943 95.946 142.943 93.6309V93.4668ZM146.266 93.7539C146.266 95.276 146.58 96.4701 147.209 97.3359C147.838 98.1927 148.713 98.6211 149.834 98.6211C150.955 98.6211 151.826 98.1836 152.445 97.3086C153.074 96.4336 153.389 95.153 153.389 93.4668C153.389 91.972 153.065 90.7871 152.418 89.9121C151.78 89.0371 150.91 88.5996 149.807 88.5996C148.722 88.5996 147.861 89.0326 147.223 89.8984C146.585 90.7552 146.266 92.0404 146.266 93.7539ZM74.9531 115.094L80.6953 130.352L86.4238 115.094H90.8945V135H87.4492V128.438L87.791 119.66L81.9121 135H79.4375L73.5723 119.674L73.9141 128.438V135H70.4688V115.094H74.9531ZM98.209 135H94.8867V120.207H98.209V135ZM94.6816 116.365C94.6816 115.855 94.8411 115.431 95.1602 115.094C95.4883 114.757 95.9531 114.588 96.5547 114.588C97.1562 114.588 97.6211 114.757 97.9492 115.094C98.2773 115.431 98.4414 115.855 98.4414 116.365C98.4414 116.867 98.2773 117.286 97.9492 117.623C97.6211 117.951 97.1562 118.115 96.5547 118.115C95.9531 118.115 95.4883 117.951 95.1602 117.623C94.8411 117.286 94.6816 116.867 94.6816 116.365ZM107.916 132.621C108.745 132.621 109.434 132.38 109.98 131.896C110.527 131.413 110.819 130.816 110.855 130.105H113.986C113.95 131.026 113.663 131.887 113.125 132.689C112.587 133.482 111.858 134.111 110.938 134.576C110.017 135.041 109.023 135.273 107.957 135.273C105.888 135.273 104.247 134.604 103.035 133.264C101.823 131.924 101.217 130.074 101.217 127.713V127.371C101.217 125.12 101.818 123.32 103.021 121.971C104.225 120.613 105.865 119.934 107.943 119.934C109.702 119.934 111.133 120.449 112.236 121.479C113.348 122.499 113.932 123.844 113.986 125.512H110.855C110.819 124.664 110.527 123.967 109.98 123.42C109.443 122.873 108.755 122.6 107.916 122.6C106.84 122.6 106.011 122.992 105.428 123.775C104.844 124.55 104.548 125.73 104.539 127.316V127.85C104.539 129.454 104.826 130.652 105.4 131.445C105.984 132.229 106.822 132.621 107.916 132.621ZM119.77 121.82C120.854 120.562 122.226 119.934 123.885 119.934C127.038 119.934 128.638 121.734 128.684 125.334V135H125.361V125.457C125.361 124.436 125.138 123.716 124.691 123.297C124.254 122.868 123.607 122.654 122.75 122.654C121.419 122.654 120.426 123.247 119.77 124.432V135H116.447V114H119.77V121.82ZM138.568 135.273C136.463 135.273 134.754 134.613 133.441 133.291C132.138 131.96 131.486 130.192 131.486 127.986V127.576C131.486 126.1 131.769 124.783 132.334 123.625C132.908 122.458 133.71 121.551 134.74 120.904C135.77 120.257 136.919 119.934 138.186 119.934C140.2 119.934 141.754 120.576 142.848 121.861C143.951 123.146 144.502 124.965 144.502 127.316V128.656H134.836C134.936 129.878 135.342 130.844 136.053 131.555C136.773 132.266 137.675 132.621 138.76 132.621C140.282 132.621 141.521 132.006 142.479 130.775L144.27 132.484C143.677 133.368 142.884 134.057 141.891 134.549C140.906 135.032 139.799 135.273 138.568 135.273ZM138.172 122.6C137.26 122.6 136.522 122.919 135.957 123.557C135.401 124.195 135.046 125.083 134.891 126.223H141.221V125.977C141.148 124.865 140.852 124.026 140.332 123.461C139.812 122.887 139.092 122.6 138.172 122.6ZM150.627 135H147.305V114H150.627V135Z" fill="#9B9999"/>
</svg>
