<svg width="258" height="70" viewBox="0 0 258 70" fill="none" xmlns="http://www.w3.org/2000/svg">
<path fill-rule="evenodd" clip-rule="evenodd" d="M115.9 67.1363C115.562 67.3553 114.846 67.6119 114.432 67.6119H112.516C111.952 67.6122 111.394 67.5036 110.874 67.2921C110.354 67.0806 109.881 66.7705 109.482 66.3794C109.084 65.9883 108.768 65.5239 108.553 65.0129C108.337 64.5018 108.227 63.9541 108.227 63.401L108.189 56.8657H102.659V67.6119H92.616V28.8712H106.909C107.472 28.8708 108.03 28.9793 108.55 29.1906C109.07 29.4019 109.543 29.7118 109.941 30.1026C110.34 30.4934 110.656 30.9574 110.871 31.4681C111.087 31.9789 111.198 32.5263 111.198 33.0791V35.0376H124.4V36.1443C125.19 35.4065 126.167 35.0376 127.296 35.0376H136.1C136.663 35.0374 137.221 35.1462 137.741 35.3578C138.262 35.5694 138.734 35.8796 139.132 36.2706C139.53 36.6617 139.846 37.126 140.061 37.637C140.276 38.1479 140.386 38.6955 140.386 39.2484V43.8642C140.784 43.4668 141.259 43.1511 141.782 42.9356C142.306 42.7201 142.868 42.6091 143.436 42.609H146.142V35.0376H155.811V42.9044C156.299 42.7067 156.822 42.6063 157.35 42.609H165.477C167.81 42.609 169.727 44.5286 169.727 46.8559V48.4065L172.395 28.8308H184.319L185.637 37.5119C185.972 36.7699 186.521 36.1402 187.215 35.7006C187.91 35.2609 188.721 35.0304 189.547 35.0376H198.425C199.065 35.0376 199.666 35.258 200.23 35.48V35.0376H204.894L207.303 31.0112H217.946L214.787 35.0376H228.065C229.157 35.0376 230.134 35.4425 230.886 36.1097C231.671 35.4186 232.689 35.0368 233.743 35.0376H242.81C243.378 35.0376 243.902 35.258 244.39 35.4425V35.0376H251.839V35.48C252.363 35.2206 252.966 35.0376 253.643 35.0376H257.968V44.1957H255.337C255.2 44.1962 255.065 44.2235 254.94 44.2761C254.814 44.3286 254.701 44.4053 254.606 44.5016C254.511 44.5979 254.437 44.7119 254.388 44.8368C254.339 44.9617 254.315 45.095 254.32 45.2289V67.6104H237.129V67.1349C236.717 67.3179 236.304 67.6104 235.888 67.6104H233.743C232.689 67.6112 231.672 67.2305 230.886 66.5411C230.1 67.2312 229.083 67.612 228.028 67.6104H219.377C218.737 67.6104 218.098 67.3539 217.572 67.1349V67.6104H207.716V67.1349C207.19 67.3539 206.55 67.6104 205.951 67.6104H204.517C203.319 67.6104 202.226 67.1349 201.435 66.3552C201.083 66.7001 200.676 66.9872 200.231 67.2055V69.9378H187.783V67.6104H179.167L178.378 61.5924L177.624 67.6104H166.83L166.907 67.1349C166.417 67.3179 165.964 67.6104 165.44 67.6104H157.35C156.677 67.6104 156.075 67.3539 155.507 67.0931V67.6104H146.142V67.168C145.992 67.3179 145.615 67.6104 145.317 67.6104H143.471C142.73 67.6139 142.001 67.4285 141.356 67.0723C140.71 66.7162 140.169 66.2014 139.787 65.5785C139.404 66.2012 138.863 66.7158 138.217 67.0719C137.571 67.4281 136.841 67.6136 136.1 67.6104H127.336C126.659 67.6104 126.094 67.3914 125.531 67.1349V67.6104H115.901V67.1363H115.9V67.1363Z" fill="#295BA7"/>
<path fill-rule="evenodd" clip-rule="evenodd" d="M108.601 52.6907C108.601 53.6144 107.81 54.3508 106.871 54.3508H100.29V65.1388H95.0991V31.2329H106.871C107.812 31.2329 108.601 32.0097 108.601 32.9305V52.6907ZM103.374 49.1442C103.374 49.6255 102.96 49.9944 102.471 49.9944H100.292V35.5893H102.547C102.999 35.5893 103.374 35.9971 103.374 36.4785V49.1442V49.1442ZM123.008 42.4229V65.1402H118.119V63.8461C116.914 65.1402 115.898 65.1402 115.898 65.1402H112.626C111.497 65.1402 110.634 64.29 110.634 63.2178V53.4285C110.822 52.2122 112.138 51.6949 112.138 51.6949L116.763 49.3675C118.041 48.8502 118.156 47.6339 118.156 47.6339V45.38C118.158 45.1212 118.057 44.8717 117.874 44.6855C117.691 44.4992 117.44 44.391 117.177 44.3843H116.462C116.198 44.391 115.948 44.4992 115.765 44.6855C115.582 44.8717 115.481 45.1212 115.483 45.38V48.0374H110.631V42.3883C110.631 41.3191 111.495 40.4688 112.586 40.4688H121.012C122.104 40.4688 123.006 41.3191 123.006 42.3883V42.4229H123.008V42.4229ZM116.011 53.6908L118.157 52.878V59.9682C118.161 60.0955 118.139 60.2224 118.091 60.3409C118.043 60.4594 117.971 60.567 117.879 60.6572C117.788 60.7474 117.678 60.8182 117.558 60.8652C117.437 60.9123 117.308 60.9346 117.178 60.9308H116.463C116.335 60.9316 116.207 60.9072 116.088 60.8591C115.968 60.8109 115.86 60.74 115.769 60.6505C115.678 60.5609 115.606 60.4545 115.557 60.3373C115.508 60.2202 115.484 60.0947 115.485 59.9682V54.6145C115.485 54.2053 115.674 53.8363 116.011 53.6908ZM165.362 65.1402H157.425C156.408 65.1402 155.545 64.3274 155.545 63.3302V46.8932C155.545 45.8599 156.37 45.0472 157.425 45.0472H165.325C166.378 45.0472 167.205 45.8599 167.205 46.8932V63.3302C167.205 64.3274 166.378 65.1402 165.362 65.1402ZM167.205 55.7587V58.1927H162.616V60.67C162.616 61.1844 162.163 61.5937 161.639 61.5937H161.034C160.51 61.5937 160.059 61.1859 160.059 60.67V55.7587H167.205ZM170.101 65.1402H175.404L176.005 60.0762H180.784L181.383 65.1402H186.688L182.21 31.2329H174.652L170.101 65.1402V65.1402ZM180.257 55.7587L178.377 40.0956L176.572 55.7587H180.257ZM198.238 65.1402C199.327 65.1402 200.23 64.29 200.23 63.2178L200.193 55.4244H195.378V59.9667C195.379 60.0932 195.355 60.2187 195.306 60.3358C195.257 60.4529 195.185 60.5594 195.094 60.6489C195.004 60.7385 194.895 60.8094 194.776 60.8576C194.657 60.9057 194.529 60.9301 194.401 60.9294H193.684C193.16 60.9294 192.67 60.5215 192.67 59.9667V42.7587C192.67 42.6276 192.695 42.4978 192.746 42.3765C192.797 42.2553 192.872 42.1451 192.966 42.0523C193.06 41.9595 193.172 41.8859 193.295 41.8357C193.419 41.7856 193.551 41.7598 193.684 41.76H194.364C194.497 41.7598 194.63 41.7856 194.753 41.8357C194.876 41.8859 194.988 41.9595 195.082 42.0523C195.177 42.1451 195.251 42.2553 195.302 42.3765C195.353 42.4978 195.379 42.6276 195.378 42.7587V46.8197H200.193V39.5047C200.193 38.4355 199.327 37.5492 198.238 37.5492H189.811C188.719 37.5492 187.817 38.4355 187.817 39.5047V63.2178C187.817 64.29 188.719 65.1402 189.811 65.1402H198.238ZM227.841 65.1402C228.929 65.1402 229.792 64.29 229.792 63.2178V55.4244H224.98L224.943 59.9667C224.947 60.094 224.925 60.2207 224.877 60.3391C224.83 60.4575 224.758 60.5651 224.666 60.6552C224.575 60.7454 224.465 60.8162 224.345 60.8633C224.225 60.9105 224.096 60.933 223.966 60.9294H223.289C222.724 60.9294 222.272 60.5215 222.272 59.9667V42.7587C222.272 42.2039 222.726 41.76 223.253 41.76H223.966C224.49 41.76 224.943 42.2053 224.943 42.7587V46.8197H229.794V39.5047C229.794 38.4355 228.894 37.5492 227.802 37.5492H219.378C218.286 37.5492 217.423 38.4355 217.423 39.5047V63.2178C217.423 64.29 218.286 65.1402 219.415 65.1402H227.841ZM202.675 37.5478V63.2164C202.675 64.2885 203.578 65.1388 204.667 65.1388H207.978C207.978 65.1388 208.958 65.1388 210.158 63.8447V65.1388H215.049V37.5478H210.233V59.9667C210.233 60.5215 209.783 60.9294 209.219 60.9294H209.256H208.543C207.978 60.9294 207.526 60.5215 207.526 59.9667L207.562 37.5478H202.675V37.5478ZM244.388 39.5047V65.1402H239.498V63.8461C238.294 65.1402 237.317 65.1402 237.317 65.1402H234.009C232.917 65.1402 232.014 64.29 232.014 63.2178V52.2857C232.204 51.0305 233.557 50.5132 233.557 50.5132L238.146 48.2219C239.425 47.7074 239.536 46.4882 239.536 46.4882V42.7587C239.536 42.2039 239.124 41.76 238.559 41.76H237.882C237.749 41.7598 237.616 41.7856 237.493 41.8357C237.37 41.8859 237.258 41.9595 237.163 42.0523C237.069 42.1451 236.995 42.2553 236.944 42.3765C236.893 42.4978 236.867 42.6276 236.868 42.7587V46.8197H232.014V39.5047C232.014 38.4355 232.917 37.5492 234.009 37.5492H242.433C243.522 37.5478 244.388 38.4355 244.388 39.5047V39.5047ZM237.431 53.319L239.536 52.4687V59.9667C239.54 60.094 239.518 60.2208 239.47 60.3393C239.423 60.4578 239.351 60.5655 239.259 60.6557C239.168 60.7459 239.058 60.8167 238.938 60.8638C238.817 60.9108 238.688 60.9332 238.559 60.9294H237.882C237.317 60.9294 236.868 60.5215 236.868 59.9667V54.2053C236.866 53.7974 237.056 53.4674 237.431 53.319V53.319ZM247.059 37.5478H251.838V38.6574C251.838 38.6574 252.589 37.5478 254.394 37.5478H255.483V41.7586H254.428C254.428 41.7586 251.836 41.4271 251.836 43.4216V65.1388H247.058V37.5478H247.059ZM112.25 37.5478H121.916V39.6143H112.25V37.5478ZM190.185 66.0265H197.707V67.6146H190.185V66.0265ZM206.811 36.735L208.769 33.4868H213.132L210.498 36.735H206.811V36.735ZM135.91 65.1402H127.522C126.432 65.1402 125.566 64.29 125.566 63.2178V39.5047C125.566 38.4355 126.395 37.5492 127.484 37.5492H135.91C137.04 37.5492 137.904 38.4355 137.904 39.5047V63.2178C137.904 64.29 137.001 65.1402 135.91 65.1402V65.1402ZM131.395 60.9294C130.83 60.9294 130.381 60.5215 130.381 59.9667V42.7587C130.381 42.2039 130.796 41.76 131.358 41.76H132.035C132.169 41.7595 132.301 41.7849 132.425 41.8349C132.549 41.8849 132.661 41.9584 132.755 42.0513C132.85 42.1441 132.925 42.2544 132.976 42.3759C133.027 42.4973 133.053 42.6274 133.052 42.7587V59.9667C133.056 60.094 133.034 60.2208 132.986 60.3393C132.939 60.4578 132.867 60.5655 132.775 60.6557C132.684 60.7459 132.574 60.8167 132.454 60.8638C132.333 60.9108 132.204 60.9332 132.075 60.9294H131.395ZM148.659 45.9694C147.645 44.8267 146.629 45.0457 146.629 45.0457H143.507C142.49 45.0457 141.664 45.8585 141.664 46.8917V63.3633C141.664 64.362 142.527 65.1388 143.544 65.1388H146.629C146.629 65.1388 147.57 65.2094 148.698 63.9571V65.1388H153.324V37.5478H148.657V45.9694H148.659V45.9694ZM148.7 49.8114V60.67C148.701 60.7915 148.677 60.9119 148.63 61.0244C148.583 61.1368 148.514 61.2389 148.426 61.3248C148.339 61.4108 148.235 61.4788 148.12 61.5249C148.006 61.5711 147.883 61.5945 147.759 61.5937H147.157C147.033 61.5948 146.91 61.5718 146.796 61.5258C146.681 61.4798 146.576 61.4119 146.489 61.3259C146.401 61.2399 146.331 61.1376 146.284 61.025C146.237 60.9124 146.213 60.7917 146.214 60.67V49.8114C146.22 49.5711 146.322 49.3428 146.499 49.1767C146.676 49.0106 146.913 48.9201 147.157 48.9251H147.759C148.003 48.9209 148.239 49.0117 148.416 49.1777C148.592 49.3438 148.694 49.5716 148.7 49.8114V49.8114ZM160.096 52.2122L160.059 49.8114C160.059 49.3301 160.472 48.9251 161 48.9251H161.64C162.13 48.9251 162.578 49.3301 162.578 49.8114V52.2122H160.096Z" fill="white"/>
<path fill-rule="evenodd" clip-rule="evenodd" d="M67.2259 67.7244H46.1991C46.1991 67.7244 45.185 54.2791 51.3902 42.0558C51.3902 42.0558 58.3115 27.5772 67.2259 27.2457C79.2252 27.0973 84.0772 41.7603 84.0772 41.7603C89.3431 53.6162 88.2512 67.7258 88.2512 67.7258H67.2259V67.7244Z" fill="#79B652"/>
<path fill-rule="evenodd" clip-rule="evenodd" d="M35.4429 67.7242H0.16103C0.16103 67.7242 -1.60747 45.9696 7.98497 26.025C7.98497 26.025 19.5705 -0.567376 35.4429 0.0594955C55.1165 1.05817 60.08 27.6505 60.08 27.6505C42.2131 42.1637 44.1313 67.7242 44.1313 67.7242H35.4429V67.7242Z" fill="#295436"/>
</svg>
