<svg width="588" height="364" viewBox="0 0 588 364" fill="none" xmlns="http://www.w3.org/2000/svg">
<path d="M560.358 363.16C526.729 363.16 36.8587 363.278 36.5749 362.411L36.5276 362.302C36.5029 362.25 36.4862 362.195 36.478 362.139C36.2911 361.706 -38.9984 239.832 78.0508 154.991C123.849 121.797 75.1836 99.8808 111.603 62.9356C153.455 20.4674 199.131 67.4468 245.673 48.1896C253.896 44.7906 262.146 39.3189 270.407 30.9228C275.01 26.2566 280.106 22.0938 285.608 18.506C286.444 17.9577 287.289 17.4228 288.142 16.9012C291.415 14.9086 294.798 13.1004 298.277 11.4852C300.622 10.399 303.01 9.39378 305.439 8.46956C309.326 6.99599 313.289 5.72676 317.311 4.66717C323.129 3.13854 329.044 1.99705 335.016 1.25036C337.649 0.91455 340.303 0.64783 342.978 0.450207C394.988 -3.40345 453.523 18.2296 483.703 49.8501C489.785 56.2157 517.431 89.1623 495.641 134.446C481.879 163.035 539.526 190.34 560.011 222.988C612.099 305.995 560.831 362.079 560.358 363.16Z" fill="#00639A" fill-opacity="0.05"/>
<g opacity="0.8">
<path opacity="0.8" d="M258.866 142.665C258.868 147.075 258.469 151.477 257.673 155.816C255.826 165.854 251.861 175.393 246.035 183.812C232.747 203.031 210.429 215.644 185.124 215.644C155.025 215.644 129.137 197.8 117.677 172.215C116.153 168.818 114.898 165.309 113.923 161.72C110.856 150.427 110.559 138.573 113.056 127.144C113.056 127.086 113.081 127.03 113.092 126.972C116.999 109.504 127.238 94.0582 141.874 83.5546C143.39 82.4669 144.95 81.4357 146.554 80.4609C158.151 73.396 171.506 69.666 185.124 69.689C187 69.689 188.858 69.7581 190.699 69.8963C203.817 70.856 216.432 75.2937 227.22 82.7433C235.299 88.3099 242.176 95.4151 247.447 103.643C248.575 105.408 249.626 107.223 250.601 109.086C256.041 119.459 258.872 130.978 258.853 142.665H258.866Z" fill="#D7E5FF"/>
<path opacity="0.8" d="M160.072 110C157.122 114.611 161.3 122.619 152.473 120.44C143.646 118.26 138.248 117.279 137.752 122.131C137.257 126.983 144.374 126.988 144.374 132.083C144.374 137.178 141.185 138.865 136.281 136.445C131.378 134.024 129.975 130.505 124.263 132.689C118.551 134.874 115.254 133.416 113.963 129.047C113.768 128.365 113.459 127.719 113.049 127.137C113.049 127.079 113.074 127.024 113.085 126.966C116.996 109.499 127.237 94.0554 141.874 83.5546C143.39 82.4669 144.95 81.4357 146.554 80.4609C148.854 80.5434 151.601 81.406 153.944 84.2745C159.092 90.5865 162.525 87.4305 161.3 94.7121C160.074 101.994 162.036 102.959 166.203 102.72C170.37 102.482 175.277 102.475 175.768 105.631C176.259 108.787 163.014 105.388 160.072 110Z" fill="#AEC3FF"/>
<path opacity="0.8" d="M160.586 143.7C160.586 143.7 156.138 148.826 152.302 145.879C148.466 142.933 149.626 141.099 144.009 142.951C138.392 144.803 135.921 141.738 133.043 144.054C130.164 146.37 132.5 146.66 130.509 151.57C128.518 156.48 124.403 157.267 127.581 162.168C130.759 167.069 136.678 164.548 139.795 167.14C142.912 169.732 141.894 172.267 145.784 173.325C149.673 174.384 153.392 170.633 153.469 175.282C153.545 179.932 152.043 184.474 156.881 188.798C161.719 193.122 160.811 194.098 165.784 196.204C170.757 198.311 176.701 196.412 175.946 193.454C175.192 190.496 168.782 189.901 168.656 186.562C168.53 183.224 171.937 183.502 170.572 179.207C169.208 174.912 173.021 172.596 171.732 169.819C170.444 167.042 163.095 166.095 163.951 163.298C164.807 160.501 171.453 162.872 171.816 156.959C172.178 151.046 168.142 148.935 168.739 143.171C169.336 137.408 161.268 140.156 160.586 143.7Z" fill="#AEC3FF"/>
<path opacity="0.8" d="M258.867 142.665C258.868 147.075 258.469 151.477 257.673 155.816C255.826 165.854 251.861 175.394 246.035 183.812C244.115 184.465 242.021 184.41 240.139 183.656C230.943 180.016 237.747 170.187 241.427 165.273C245.107 160.358 235.724 162.544 228.92 157.993C222.116 153.442 229.654 141.248 222.666 143.252C215.677 145.255 207.217 147.801 203.172 141.067C199.127 134.334 206.85 133.24 203.354 127.599C199.859 121.957 205.381 118.683 212.364 118.135C219.346 117.587 218.431 112.674 227.075 111.945C235.72 111.217 235.537 122.138 245.094 121.411C254.65 120.685 254.227 122.867 254.227 122.867C254.916 122.85 255.6 122.992 256.225 123.281C257.979 129.596 258.867 136.116 258.867 142.665Z" fill="#AEC3FF"/>
<path opacity="0.8" d="M250.614 109.086C242.661 112.915 239.47 102.502 232.672 105.631C225.819 108.787 227.019 102.72 221.636 98.8354C216.253 94.9506 205.451 101.991 205.942 95.9224C206.433 89.8532 214.524 91.5561 216.24 86.7039C217.956 81.8517 225.805 83.062 225.805 83.062C226.263 82.8906 226.743 82.7834 227.231 82.7433C235.31 88.3099 242.187 95.4151 247.459 103.643C248.582 105.408 249.634 107.223 250.614 109.086Z" fill="#AEC3FF"/>
<path opacity="0.8" d="M183.613 88.1594C183.613 88.1594 187.782 82.2061 181.163 80.4498C174.543 78.6935 174.663 80.9937 169.514 80.4498C164.365 79.906 162.34 83.851 166.203 88.1594C170.066 92.4677 173.185 100.732 176.687 96.3258C180.19 91.9194 179.507 88.5828 183.613 88.1594Z" fill="#AEC3FF"/>
</g>
<path d="M273.862 221.303L262.567 354.202C262.567 354.202 261.382 362.259 267.439 362.273C277.396 362.297 316.989 362.273 316.989 362.273C316.989 362.273 309.496 360.597 309.586 356.823C309.692 352.365 322.787 220.046 322.787 220.046L273.862 221.303Z" fill="#7599EA"/>
<path d="M320.723 359.915C318.764 359.915 280.428 359.984 270.723 359.861C266.497 359.81 265.756 356.143 265.72 353.772C265.707 353.11 265.75 352.448 265.849 351.793L266.144 348.338L266.891 339.534L267.554 331.755L268.403 321.761L269.119 313.325L277.144 218.889L326.075 217.635C326.075 217.635 320.561 273.012 316.66 313.325C316.223 317.816 315.809 322.122 315.426 326.143C315.301 327.427 315.182 328.68 315.068 329.903C314.705 333.717 314.374 337.218 314.088 340.312C313.935 341.941 313.795 343.457 313.669 344.843C313.172 350.279 312.879 353.758 312.876 354.412C312.872 354.773 312.904 355.133 312.971 355.488C313.784 359.723 319.987 359.915 320.723 359.915Z" fill="#90AFF4"/>
<path d="M155.029 148.984L182.541 258.344L186.307 273.322L199.12 324.258H437.18L389.952 148.984H155.029Z" fill="#AEC3FF"/>
<path d="M155.027 148.984L151.214 150.241L194.053 328.062L199.122 324.258L155.027 148.984Z" fill="#90AFF4"/>
<path d="M194.053 328.062H430.646L437.18 324.258H199.122L194.053 328.062Z" fill="#7599EA"/>
<path d="M277.137 362.324H328.363V359.915H277.137V362.324Z" fill="#AEC3FF"/>
<path d="M315.34 328.06L315.077 329.903L266.9 339.534L267.563 331.755L267.878 328.06H315.34Z" fill="#5888DD"/>
<path opacity="0.4" d="M320.723 359.914C318.764 359.914 280.428 359.984 270.723 359.861C266.497 359.81 265.756 356.143 265.72 353.772L313.669 344.843C313.171 350.279 312.879 353.758 312.876 354.412C312.872 354.773 312.904 355.133 312.971 355.488C313.784 359.723 319.987 359.914 320.723 359.914Z" fill="#5888DD"/>
<path d="M155.027 148.984H389.952L428.067 289.849H190.465L155.027 148.984Z" fill="#C2D5FF"/>
<path d="M416.988 283.744H197.028L189.167 252.759L186.127 240.768L184.886 235.88L176.809 204.036L176.39 202.378L172.12 185.546L170.21 178.015L168.579 171.589L164.759 156.529H381.546L385.742 171.589L387.533 178.015L389.63 185.546L403.452 235.162V235.164L404.623 239.368L405.168 241.32L414.711 275.573L416.988 283.744Z" fill="#00639A" fill-opacity="0.44"/>
<path d="M385.742 171.591H168.579L164.759 156.529H381.549L385.742 171.591Z" fill="#607CF4"/>
<path d="M173.728 163.336C173.464 162.297 174.104 161.452 175.156 161.452C175.702 161.48 176.225 161.676 176.651 162.014C177.078 162.352 177.386 162.815 177.532 163.336C177.793 164.377 177.156 165.219 176.104 165.219C175.558 165.193 175.034 164.996 174.608 164.658C174.181 164.32 173.873 163.857 173.728 163.336Z" fill="#E9F3FE"/>
<path d="M180.048 163.336C179.787 162.297 180.426 161.452 181.478 161.452C182.024 161.48 182.547 161.676 182.974 162.014C183.4 162.352 183.708 162.815 183.854 163.336C184.115 164.377 183.476 165.219 182.426 165.219C181.88 165.192 181.356 164.996 180.929 164.658C180.502 164.32 180.194 163.857 180.048 163.336Z" fill="#E9F3FE"/>
<path d="M186.852 163.336C186.588 162.297 187.228 161.452 188.28 161.452C188.826 161.48 189.349 161.676 189.775 162.014C190.202 162.352 190.51 162.815 190.656 163.336C190.92 164.377 190.28 165.219 189.228 165.219C188.682 165.193 188.159 164.996 187.732 164.658C187.305 164.32 186.997 163.857 186.852 163.336Z" fill="#E9F3FE"/>
<path opacity="0.5" d="M279.718 289.849L199.201 324.668L190.465 289.849H279.718Z" fill="#90AFF4"/>
<path d="M209.706 112.496C205.825 113.931 203.321 117.252 203.321 120.914V202.153C203.321 218.774 211.294 234.34 224.659 243.814L272.889 274.399C274.507 275.396 276.374 275.925 278.28 275.925C280.186 275.925 282.054 275.396 283.671 274.399L331.899 243.814C345.262 234.34 353.235 218.774 353.235 202.153V121.13C353.235 117.362 350.573 113.969 346.535 112.599C287.953 92.7619 264.468 92.2225 209.715 112.496H209.706Z" fill="#F99746"/>
<path d="M346.526 112.599C318.009 102.939 297.811 97.8681 278.281 97.5338V275.923C280.188 275.932 282.057 275.403 283.671 274.399L331.899 243.815C345.262 234.34 353.235 218.774 353.235 202.153V121.128C353.235 117.362 350.573 113.969 346.535 112.599H346.526Z" fill="#F78248"/>
<path d="M283.185 184.926H272.214C267.484 184.921 262.95 183.06 259.605 179.75C256.261 176.441 254.379 171.954 254.373 167.274V165.163C254.378 160.482 256.259 155.994 259.604 152.684C262.948 149.374 267.483 147.512 272.214 147.507H283.182C287.913 147.512 292.448 149.374 295.792 152.684C299.137 155.994 301.018 160.482 301.023 165.163V167.274C301.017 171.954 299.136 176.441 295.792 179.75C292.448 183.06 287.914 184.921 283.185 184.926ZM272.214 154.565C269.375 154.569 266.653 155.687 264.646 157.673C262.638 159.66 261.509 162.354 261.506 165.163V167.274C261.51 170.083 262.639 172.776 264.647 174.762C266.654 176.748 269.375 177.865 272.214 177.868H283.182C286.021 177.865 288.743 176.749 290.75 174.762C292.758 172.776 293.887 170.083 293.89 167.274V165.163C293.887 162.354 292.759 159.66 290.751 157.673C288.744 155.686 286.022 154.568 283.182 154.565H272.214Z" fill="#FFDAA4"/>
<path d="M247.718 170.365H306.987C309.217 170.365 311.355 171.242 312.932 172.802C314.509 174.363 315.394 176.479 315.394 178.686V206.956C315.394 210.539 314.681 214.087 313.296 217.397C311.91 220.707 309.879 223.715 307.319 226.248C304.759 228.782 301.72 230.792 298.375 232.163C295.03 233.534 291.445 234.239 287.824 234.239H270.5C262.716 234.239 255.252 231.18 249.748 225.733C244.244 220.287 241.152 212.9 241.152 205.198V176.86C241.152 176.007 241.322 175.162 241.652 174.374C241.982 173.586 242.466 172.87 243.075 172.267C243.685 171.664 244.409 171.186 245.205 170.859C246.002 170.533 246.856 170.365 247.718 170.365Z" fill="#FFDAA4"/>
<path d="M281.479 198.569C286.524 196.818 289.179 191.351 287.41 186.359C285.64 181.367 280.116 178.739 275.071 180.49C270.026 182.242 267.371 187.708 269.14 192.701C270.91 197.693 276.434 200.321 281.479 198.569Z" fill="#F78248"/>
<path d="M278.275 194.002C278.83 194.004 279.362 194.223 279.755 194.612C280.148 195.001 280.37 195.528 280.371 196.077V212.045C280.37 212.595 280.148 213.121 279.755 213.51C279.362 213.899 278.83 214.118 278.275 214.12C277.719 214.118 277.186 213.899 276.793 213.51C276.4 213.121 276.178 212.595 276.175 212.045V196.077C276.178 195.527 276.4 195.001 276.793 194.612C277.186 194.223 277.719 194.004 278.275 194.002Z" fill="#F78248"/>
<path d="M388.339 63.7358C387.278 64.128 386.591 65.0374 386.591 66.0404V88.2752C386.582 90.498 387.106 92.6912 388.121 94.6738C389.137 96.6565 390.614 98.3717 392.432 99.678L405.632 108.047C406.075 108.32 406.586 108.465 407.108 108.465C407.629 108.465 408.14 108.32 408.583 108.047L421.781 99.678C423.598 98.3717 425.076 96.6565 426.091 94.6738C427.107 92.6912 427.631 90.498 427.621 88.2752V66.0983C427.621 65.0664 426.892 64.1392 425.786 63.7647C409.754 58.3308 403.326 58.1927 388.339 63.7358Z" fill="#AEC3FF"/>
<path opacity="0.4" d="M425.786 63.7648C417.982 61.1191 412.455 59.7328 407.108 59.6414V108.466C407.63 108.468 408.141 108.323 408.583 108.047L421.781 99.678C423.599 98.3717 425.076 96.6565 426.091 94.6738C427.107 92.6912 427.631 90.498 427.621 88.2753V66.0984C427.621 65.0664 426.892 64.1392 425.786 63.7648Z" fill="#00639A" fill-opacity="0.54"/>
<path d="M409.409 36.0871L414.592 36.7624L410.898 40.4222L411.853 45.5084L407.193 43.1636L402.601 45.6332L403.414 40.5225L399.623 36.963L404.783 36.1495L407.033 31.4801L409.409 36.0871Z" fill="#F99746"/>
<path d="M409.409 124.456L414.592 125.131L410.898 128.791L411.853 133.877L407.193 131.532L402.601 134.002L403.414 128.891L399.623 125.332L404.783 124.518L407.033 119.849L409.409 124.456Z" fill="#F99746"/>
<path d="M371.249 57.787L376.431 58.4624L372.738 62.1221L373.69 67.2083L369.033 64.8636L364.44 67.3331L365.253 62.2224L361.46 58.663L366.623 57.8494L368.87 53.18L371.249 57.787Z" fill="#F99746"/>
<path d="M448.101 57.787L453.284 58.4624L449.59 62.1221L450.543 67.2083L445.885 64.8636L441.293 67.3331L442.106 62.2224L438.313 58.663L443.475 57.8494L445.723 53.18L448.101 57.787Z" fill="#F99746"/>
<path d="M371.249 103.017L376.431 103.692L372.738 107.352L373.69 112.438L369.033 110.093L364.44 112.563L365.253 107.454L361.46 103.893L366.623 103.081L368.87 98.412L371.249 103.017Z" fill="#F99746"/>
<path d="M448.101 103.017L453.284 103.692L449.59 107.352L450.543 112.438L445.885 110.093L441.293 112.563L442.106 107.454L438.313 103.893L443.475 103.081L445.723 98.412L448.101 103.017Z" fill="#F99746"/>
<path d="M387.792 41.9266L392.975 42.5997L389.281 46.2617L390.236 51.3479L385.576 49.0032L380.983 51.4705L381.796 46.362L378.004 42.8025L383.166 41.989L385.416 37.3196L387.792 41.9266Z" fill="#F99746"/>
<path d="M432.155 41.9266L437.338 42.5997L433.644 46.2617L434.599 51.3479L429.939 49.0032L425.347 51.4705L426.16 46.362L422.367 42.8025L427.529 41.989L429.779 37.3196L432.155 41.9266Z" fill="#F99746"/>
<path d="M387.792 118.777L392.975 119.452L389.281 123.112L390.236 128.198L385.576 125.853L380.983 128.323L381.796 123.212L378.004 119.653L383.166 118.839L385.416 114.17L387.792 118.777Z" fill="#F99746"/>
<path d="M432.155 118.777L437.338 119.452L433.644 123.112L434.599 128.198L429.939 125.853L425.347 128.323L426.16 123.212L422.367 119.653L427.529 118.839L429.779 114.17L432.155 118.777Z" fill="#F99746"/>
<path d="M365.143 81.5798L370.323 82.253L366.632 85.9149L367.584 90.9989L362.927 88.6542L358.332 91.1237L359.147 86.0152L355.354 82.4558L360.517 81.6422L362.765 76.9728L365.143 81.5798Z" fill="#F99746"/>
<path d="M455.586 81.5798L460.768 82.253L457.075 85.9149L458.03 90.9989L453.37 88.6542L448.777 91.1237L449.59 86.0152L445.797 82.4558L450.96 81.6422L453.21 76.9728L455.586 81.5798Z" fill="#F99746"/>
<path d="M86.7424 205.111C86.8104 205.179 86.8565 205.265 86.8751 205.358C86.8937 205.452 86.8838 205.549 86.8467 205.637C86.8096 205.726 86.747 205.801 86.6667 205.854C86.5864 205.907 86.492 205.935 86.3955 205.935C86.299 205.935 86.2046 205.907 86.1243 205.854C86.044 205.801 85.9814 205.726 85.9443 205.637C85.9072 205.549 85.8973 205.452 85.9159 205.358C85.9344 205.265 85.9806 205.179 86.0486 205.111C86.0941 205.065 86.1481 205.03 86.2076 205.005C86.2672 204.981 86.331 204.968 86.3955 204.968C86.46 204.968 86.5238 204.981 86.5834 205.005C86.6429 205.03 86.6969 205.065 86.7424 205.111Z" fill="#D5E5FB"/>
<path d="M85.1477 206.695C85.2157 206.763 85.2619 206.849 85.2805 206.943C85.299 207.037 85.2892 207.134 85.2521 207.222C85.215 207.31 85.1523 207.386 85.072 207.439C84.9917 207.492 84.8974 207.52 84.8009 207.52C84.7044 207.52 84.61 207.492 84.5297 207.439C84.4494 207.386 84.3868 207.31 84.3497 207.222C84.3126 207.134 84.3027 207.037 84.3213 206.943C84.3398 206.849 84.386 206.763 84.454 206.695C84.5461 206.605 84.6708 206.553 84.8009 206.553C84.9309 206.553 85.0557 206.605 85.1477 206.695Z" fill="#D5E5FB"/>
<path d="M82.8391 208.32C82.9075 208.253 82.9946 208.207 83.0893 208.189C83.1841 208.171 83.2822 208.18 83.3713 208.217C83.4604 208.254 83.5365 208.316 83.59 208.395C83.6436 208.475 83.6721 208.568 83.6721 208.664C83.6721 208.759 83.6436 208.852 83.59 208.932C83.5365 209.011 83.4604 209.073 83.3713 209.11C83.2822 209.147 83.1841 209.157 83.0893 209.138C82.9946 209.12 82.9075 209.074 82.8391 209.007C82.7933 208.962 82.757 208.908 82.7322 208.849C82.7074 208.791 82.6946 208.727 82.6946 208.664C82.6946 208.6 82.7074 208.537 82.7322 208.478C82.757 208.419 82.7933 208.365 82.8391 208.32Z" fill="#D5E5FB"/>
<path d="M81.9157 209.932C81.9837 210 82.0299 210.086 82.0484 210.179C82.067 210.273 82.0571 210.37 82.02 210.458C81.9829 210.547 81.9203 210.622 81.84 210.675C81.7597 210.728 81.6653 210.756 81.5688 210.756C81.4723 210.756 81.378 210.728 81.2977 210.675C81.2174 210.622 81.1547 210.547 81.1176 210.458C81.0805 210.37 81.0706 210.273 81.0892 210.179C81.1078 210.086 81.154 210 81.222 209.932C81.2674 209.886 81.3214 209.85 81.381 209.826C81.4405 209.801 81.5043 209.789 81.5688 209.789C81.6333 209.789 81.6972 209.801 81.7567 209.826C81.8162 209.85 81.8703 209.886 81.9157 209.932Z" fill="#D5E5FB"/>
<path d="M80.3187 211.525C80.3867 211.593 80.4329 211.679 80.4515 211.773C80.4701 211.867 80.4602 211.964 80.4231 212.052C80.386 212.14 80.3233 212.216 80.243 212.269C80.1627 212.321 80.0684 212.35 79.9719 212.35C79.8754 212.35 79.781 212.321 79.7007 212.269C79.6204 212.216 79.5578 212.14 79.5207 212.052C79.4836 211.964 79.4737 211.867 79.4923 211.773C79.5109 211.679 79.557 211.593 79.625 211.525C79.6705 211.48 79.7245 211.444 79.784 211.42C79.8436 211.395 79.9074 211.382 79.9719 211.382C80.0364 211.382 80.1002 211.395 80.1597 211.42C80.2193 211.444 80.2733 211.48 80.3187 211.525Z" fill="#D5E5FB"/>
<path d="M78.0125 213.141C78.0809 213.074 78.168 213.028 78.2627 213.01C78.3575 212.992 78.4556 213.001 78.5447 213.038C78.6338 213.075 78.7099 213.137 78.7634 213.216C78.817 213.296 78.8455 213.389 78.8455 213.485C78.8455 213.58 78.817 213.673 78.7634 213.753C78.7099 213.832 78.6338 213.894 78.5447 213.931C78.4556 213.968 78.3575 213.978 78.2627 213.959C78.168 213.941 78.0809 213.895 78.0125 213.828C77.9667 213.783 77.9304 213.729 77.9056 213.67C77.8808 213.612 77.868 213.548 77.868 213.485C77.868 213.421 77.8808 213.358 77.9056 213.299C77.9304 213.24 77.9667 213.186 78.0125 213.141Z" fill="#D5E5FB"/>
<path d="M77.1521 214.688C77.2204 214.756 77.2669 214.842 77.2858 214.936C77.3046 215.03 77.2949 215.127 77.2579 215.215C77.2209 215.303 77.1582 215.379 77.0779 215.432C76.9975 215.485 76.903 215.514 76.8064 215.514C76.7097 215.514 76.6152 215.485 76.5349 215.432C76.4545 215.379 76.3919 215.303 76.3549 215.215C76.3179 215.127 76.3082 215.03 76.327 214.936C76.3458 214.842 76.3923 214.756 76.4606 214.688C76.5526 214.598 76.6769 214.547 76.8064 214.547C76.9359 214.547 77.0601 214.598 77.1521 214.688Z" fill="#D5E5FB"/>
<path d="M75.5575 216.279C75.6258 216.347 75.6723 216.433 75.6912 216.527C75.71 216.621 75.7003 216.718 75.6633 216.807C75.6263 216.895 75.5636 216.97 75.4833 217.024C75.4029 217.077 75.3084 217.105 75.2118 217.105C75.1151 217.105 75.0206 217.077 74.9403 217.024C74.8599 216.97 74.7973 216.895 74.7603 216.807C74.7233 216.718 74.7136 216.621 74.7324 216.527C74.7512 216.433 74.7977 216.347 74.866 216.279C74.9114 216.234 74.9653 216.199 75.0247 216.175C75.084 216.15 75.1476 216.138 75.2118 216.138C75.276 216.138 75.3396 216.15 75.3989 216.175C75.4582 216.199 75.5121 216.234 75.5575 216.279Z" fill="#D5E5FB"/>
<path d="M73.2489 217.898C73.3175 217.83 73.405 217.783 73.5003 217.764C73.5955 217.746 73.6943 217.755 73.7841 217.792C73.8739 217.829 73.9506 217.891 74.0046 217.971C74.0586 218.051 74.0874 218.145 74.0874 218.241C74.0874 218.337 74.0586 218.431 74.0046 218.511C73.9506 218.591 73.8739 218.653 73.7841 218.69C73.6943 218.727 73.5955 218.736 73.5003 218.717C73.405 218.698 73.3175 218.652 73.2489 218.584C73.1575 218.493 73.1063 218.369 73.1063 218.241C73.1063 218.112 73.1575 217.989 73.2489 217.898Z" fill="#D5E5FB"/>
<path d="M72.3254 219.509C72.3937 219.577 72.4403 219.663 72.4591 219.757C72.4779 219.851 72.4682 219.948 72.4312 220.036C72.3942 220.124 72.3316 220.2 72.2512 220.253C72.1708 220.306 72.0764 220.335 71.9797 220.335C71.8831 220.335 71.7886 220.306 71.7082 220.253C71.6279 220.2 71.5652 220.124 71.5282 220.036C71.4912 219.948 71.4815 219.851 71.5003 219.757C71.5192 219.663 71.5657 219.577 71.634 219.509C71.7259 219.419 71.8502 219.368 71.9797 219.368C72.1092 219.368 72.2335 219.419 72.3254 219.509Z" fill="#D5E5FB"/>
<path d="M70.7308 221.103C70.7992 221.17 70.8457 221.257 70.8645 221.35C70.8833 221.444 70.8736 221.541 70.8366 221.63C70.7996 221.718 70.737 221.794 70.6566 221.847C70.5762 221.9 70.4818 221.928 70.3851 221.928C70.2885 221.928 70.194 221.9 70.1136 221.847C70.0332 221.794 69.9706 221.718 69.9336 221.63C69.8966 221.541 69.8869 221.444 69.9057 221.35C69.9246 221.257 69.9711 221.17 70.0394 221.103C70.0848 221.058 70.1387 221.022 70.198 220.998C70.2573 220.973 70.3209 220.961 70.3851 220.961C70.4493 220.961 70.5129 220.973 70.5722 220.998C70.6316 221.022 70.6854 221.058 70.7308 221.103Z" fill="#D5E5FB"/>
<path d="M68.4222 222.721C68.4906 222.653 68.5777 222.607 68.6725 222.589C68.7673 222.57 68.8655 222.579 68.9548 222.616C69.0441 222.653 69.1204 222.715 69.1741 222.794C69.2278 222.874 69.2564 222.967 69.2564 223.063C69.2564 223.159 69.2278 223.252 69.1741 223.332C69.1204 223.411 69.0441 223.473 68.9548 223.51C68.8655 223.546 68.7673 223.556 68.6725 223.537C68.5777 223.519 68.4906 223.473 68.4222 223.405C68.331 223.314 68.2798 223.191 68.2798 223.063C68.2798 222.935 68.331 222.812 68.4222 222.721Z" fill="#D5E5FB"/>
<path d="M109.226 195.04C110.17 189.262 106.201 183.82 100.361 182.886C94.5215 181.952 89.0225 185.879 88.0787 191.658C87.135 197.437 91.1038 202.879 96.9434 203.813C102.783 204.747 108.282 200.819 109.226 195.04Z" fill="#C6DCF7"/>
<path d="M94.8213 190.162C94.8195 189.491 95.019 188.834 95.3946 188.275C95.7702 187.716 96.305 187.28 96.9312 187.022C97.5574 186.763 98.247 186.695 98.9125 186.825C99.5781 186.955 100.19 187.277 100.67 187.751C101.15 188.225 101.478 188.83 101.611 189.488C101.744 190.146 101.676 190.829 101.417 191.449C101.158 192.07 100.719 192.6 100.155 192.973C99.5908 193.346 98.9277 193.545 98.2493 193.545C97.3417 193.545 96.4711 193.189 95.8285 192.555C95.1859 191.921 94.8237 191.06 94.8213 190.162Z" fill="#EBF3FA"/>
<path d="M98.2493 193.545C97.4612 193.546 96.681 193.7 95.9533 193.999C95.2255 194.298 94.5645 194.736 94.0079 195.289C93.4513 195.841 93.0101 196.496 92.7095 197.217C92.4089 197.937 92.2547 198.71 92.2559 199.49H104.252C104.253 198.709 104.098 197.936 103.797 197.215C103.496 196.493 103.054 195.838 102.496 195.285C101.939 194.733 101.277 194.295 100.548 193.997C99.8192 193.698 99.038 193.545 98.2493 193.545Z" fill="#EBF3FA"/>
<path d="M59.582 227.016L59.1879 226.046C58.9796 225.538 58.623 225.103 58.1636 224.797C57.7043 224.49 57.163 224.326 56.609 224.326H49.3093V248.484H79.5102V228.91H62.4199C61.81 228.91 61.2139 228.73 60.7083 228.392C60.2027 228.055 59.8105 227.575 59.582 227.016Z" fill="#C6DCF7"/>
<path d="M68.9267 235.354H67.9177C67.9477 235.189 67.9628 235.022 67.9627 234.855V234.514C67.9616 233.757 67.6572 233.031 67.1164 232.496C66.5756 231.961 65.8424 231.66 65.0776 231.658H63.3028C62.5381 231.66 61.8052 231.961 61.2647 232.496C60.7243 233.031 60.4204 233.757 60.4198 234.514V234.855C60.419 235.022 60.4334 235.189 60.4626 235.354H59.3365C59.0549 235.354 58.7851 235.466 58.5862 235.663C58.3873 235.86 58.2756 236.127 58.2756 236.406V240.988C58.2756 242.234 58.7756 243.428 59.6656 244.309C60.5556 245.19 61.7626 245.685 63.0212 245.685H65.8231C66.4088 245.685 66.9888 245.571 67.53 245.349C68.0712 245.128 68.5629 244.802 68.9771 244.393C69.3913 243.983 69.7197 243.496 69.9437 242.961C70.1677 242.425 70.2829 241.851 70.2826 241.271V236.7C70.2838 236.523 70.2496 236.348 70.1819 236.185C70.1142 236.021 70.0145 235.872 69.8884 235.747C69.7623 235.622 69.6124 235.523 69.4473 235.455C69.2823 235.388 69.1053 235.353 68.9267 235.354ZM64.6226 239.968V242.096C64.613 242.178 64.5733 242.254 64.511 242.309C64.4487 242.364 64.3682 242.394 64.2847 242.394C64.2013 242.394 64.1208 242.364 64.0585 242.309C63.9962 242.254 63.9565 242.178 63.9469 242.096V239.968C63.5672 239.885 63.2317 239.667 63.0047 239.354C62.7778 239.042 62.6754 238.658 62.7173 238.275C62.7592 237.893 62.9424 237.539 63.2317 237.282C63.521 237.026 63.896 236.883 64.2847 236.883C64.6735 236.883 65.0485 237.026 65.3378 237.282C65.6271 237.539 65.8103 237.893 65.8522 238.275C65.8941 238.658 65.7917 239.042 65.5648 239.354C65.3378 239.667 65.0023 239.885 64.6226 239.968ZM66.8096 234.855C66.8096 235.024 66.7837 235.192 66.733 235.354H61.6473C61.5966 235.192 61.5707 235.024 61.5707 234.855V234.514C61.5713 234.059 61.754 233.624 62.0787 233.302C62.4034 232.981 62.8436 232.8 63.3028 232.8H65.0776C65.5367 232.8 65.9769 232.981 66.3016 233.302C66.6263 233.624 66.809 234.059 66.8096 234.514V234.855Z" fill="#EBF3FA"/>
<path d="M148.079 225.139C148.079 225.139 148.649 218.988 141.705 218.988C141.705 218.988 143.809 219.551 144.896 220.681C144.896 220.681 140.468 218.109 135.648 222.063C130.829 226.017 133.822 235.933 132.358 237.814C130.894 239.696 125.184 240.075 125.88 246.161C126.576 252.248 143.995 259.873 142.878 264.91C142.878 264.91 149.703 254.981 144.822 250.45C144.822 250.45 147.2 252.679 147.444 255.304C147.444 255.304 148.09 250.158 144.779 248.511C141.851 247.055 139.453 241.728 139.707 240.777C139.962 239.825 148.079 225.139 148.079 225.139Z" fill="#2C3A64"/>
<path d="M141.241 254.667C141.241 254.667 146.421 275.905 151.523 280.151C154.583 282.703 163.685 288.561 163.685 288.561L159.899 289.92C159.899 289.92 147.275 285.701 144.448 282.411C141.622 279.121 133.885 262.648 133.885 262.648L141.241 254.667Z" fill="#FFB27D"/>
<path d="M171.194 296.324L169.976 293.335C169.337 291.769 168.24 290.427 166.825 289.483C165.41 288.538 163.743 288.034 162.036 288.035H139.554V362.447H232.573V302.157H179.933C178.055 302.156 176.22 301.601 174.663 300.562C173.106 299.523 171.898 298.047 171.194 296.324Z" fill="#F99746"/>
<path d="M92.4811 291.98C92.5262 292.06 92.5735 292.145 92.623 292.229C93.7492 294.182 96.3618 298.967 99.2312 304.203C100.583 306.686 102.008 309.271 103.355 311.705C105.677 315.904 107.79 319.644 109.022 321.621C110.254 323.598 111.2 325.042 111.572 325.606C111.674 325.783 111.717 325.988 111.693 326.19C111.567 327.944 111.594 329.705 111.774 331.455C113.504 348.49 125.112 357.617 125.112 357.617L128.563 358.123C128.563 358.123 123.68 340.216 122.241 330.095C121.997 328.379 121.891 326.988 121.977 326.083C122.232 323.446 121.752 319.575 120.851 315.128C119.256 307.229 116.346 297.534 113.795 289.773C113.632 289.276 108.779 271.902 108.779 271.902C104.707 275.426 89.8482 276.879 89.8482 276.879C89.8482 276.879 87.3482 282.942 92.4811 291.98Z" fill="#2F539B"/>
<path d="M135.815 362.447H121.412C121.412 362.447 121.065 360.273 121.817 358.624C122.54 357.044 123.567 356.993 121.95 354.514C122.865 355.448 125.806 355.834 127.889 355.555C128.144 355.965 129.534 358.711 130.387 359.317C131.329 359.986 135.525 359.747 135.815 362.447Z" fill="#233862"/>
<path d="M92.4811 291.98C92.5262 292.06 92.5735 292.145 92.623 292.229C93.7492 294.182 99.8979 305.404 102.758 310.639C99.4362 297.106 101.747 283.575 101.747 283.575L92.4811 291.98Z" fill="#233862"/>
<path d="M146.113 224.274C146.207 223.898 137.887 227.994 137.466 228.458C133.563 232.742 134.675 238.332 136.907 238.385C138.34 238.418 138.063 240.777 138.063 240.777L154.016 234.09C154.016 234.09 152.097 223.013 146.113 224.274Z" fill="#2C3A64"/>
<path d="M140.752 251.477C140.752 251.477 143.18 256.278 142.876 260.17C142.876 260.17 139.948 264.743 132.358 265.9C132.358 265.902 138.878 251.475 140.752 251.477Z" fill="#739AF0"/>
<path d="M103.713 277.942L103.763 275.268C98.3957 275.937 85.2558 268.922 85.2558 268.922C85.2558 268.922 79.6409 272.618 78.8728 283.171C78.4967 288.324 76.1228 310.111 75.8615 316.617C75.7647 318.975 75.7331 320.658 75.7219 321.329C75.7107 321.531 75.6314 321.724 75.4966 321.877C74.4001 323.262 73.4272 324.739 72.5889 326.29C64.3974 341.368 68.6812 361.86 68.6812 361.86L70.5844 361.381C70.5844 361.381 77.5079 340.14 82.035 330.951C82.8031 329.391 83.5013 328.18 84.0846 327.478C85.7873 325.435 87.5802 321.96 89.3505 317.781C92.6906 309.891 103.713 277.942 103.713 277.942Z" fill="#2F539B"/>
<path d="M80.1342 362.447H65.7308C65.7308 362.447 65.3839 360.273 66.1362 358.624C66.8569 357.044 67.9876 356.324 67.7128 354.412C68.6272 355.343 70.1182 356.389 72.2016 356.112C72.4561 356.52 73.848 358.711 74.6994 359.317C75.6453 359.986 79.8436 359.747 80.1342 362.447Z" fill="#233862"/>
<path d="M131.385 268.965C129.45 269.29 131.7 270.812 129.04 271.098C125.252 271.508 121.342 271.786 119.292 272.595C118.547 272.892 118.047 273.264 117.891 273.71C116.991 276.351 111.38 280.891 111.38 280.891C86.2986 279.761 84.6837 268.699 84.6837 268.699C100.961 253.055 114.808 244.528 126.254 243.471C129.04 243.215 132.786 243.56 134.556 244.336C138.558 246.099 140.752 251.468 140.752 251.468C140.752 251.468 138.736 267.723 131.385 268.965Z" fill="#739AF0"/>
<path d="M129.04 271.109C125.252 271.519 121.342 271.798 119.292 272.607C118.457 260.228 124.36 250.918 124.36 250.918C124.36 250.918 128.209 266.415 129.04 271.109Z" fill="#5A7DE0"/>
<path d="M132.308 248.82C132.308 248.82 122.783 248.306 121.09 254.223C119.396 260.141 124.265 283.76 125.315 286.198C127.225 290.636 136.853 303.855 136.853 303.855L139.939 302.272C139.939 302.272 133.741 282.922 132.358 281.007C130.184 277.991 135.157 251.386 132.308 248.82Z" fill="#FFB27D"/>
<path d="M139.939 302.263C140.454 302.715 140.935 303.203 141.378 303.723C142.018 304.499 141.455 304.778 143.295 308.286C143.295 308.286 143.2 308.772 142.8 308.683C142.399 308.593 141.013 307.234 140.299 307.332C140.299 307.332 139.79 307.746 139.736 309.115C139.685 310.401 139.68 313.245 139.453 313.78C139.225 314.315 137.574 311.551 136.761 309.545C136.047 307.787 136.743 301.856 136.743 301.856L139.939 302.263Z" fill="#FFB27D"/>
<path d="M119.211 262.127C119.236 262.265 128.22 263.763 133.851 260.939C133.851 260.939 138.547 246.38 131.838 247.075C125.128 247.771 121.151 249.866 120.982 253.044C120.813 256.222 119.211 262.127 119.211 262.127Z" fill="#739AF0"/>
<path d="M134.342 245.368C134.439 246.545 134.592 247.927 136.144 249.514C137.338 250.731 139.072 251.68 140.275 250.481C140.982 249.81 141.611 249.062 142.151 248.252C143.198 246.469 144.446 244.65 144.446 244.65L139.054 239.97L138.732 239.689C137.75 241.47 136.378 243.012 134.716 244.2C134.353 244.465 134.304 244.916 134.342 245.368Z" fill="#FFB27D"/>
<path d="M144.448 244.641C144.448 244.641 143.203 246.456 142.155 248.241C138.804 246.195 138.802 242.092 139.058 239.965L144.448 244.641Z" fill="#ED985F"/>
<path d="M144.599 246.982C144.599 246.982 136.462 242.502 139.36 237.531C142.259 232.561 143.158 228.636 148.475 231.291C153.793 233.945 153.687 236.417 153.126 238.3C152.565 240.184 146.788 248.02 144.599 246.982Z" fill="#FFB27D"/>
<path d="M154.502 235.396C154.128 233.19 152.996 232.978 152.205 233.125C149.203 228.208 144.293 230.127 144.293 230.127C142.667 232.095 140.4 233.443 137.88 233.939C137.88 233.939 138.824 235.677 142.714 236.754C143.903 237.081 145.252 236.883 146.543 236.45C144.806 237.382 142.949 238.075 141.022 238.51C146.149 238.973 151.025 234.335 151.532 233.829C151.757 234.547 152.182 236.058 151.935 237.152C151.597 238.646 150.257 241.354 151.074 241.704C151.083 241.715 155.061 238.706 154.502 235.396Z" fill="#2C3A64"/>
<path d="M165.174 288.569C165.174 288.569 162.903 290.255 164.613 291.356C166.322 292.457 169.379 292.755 169.392 292.024C169.435 289.608 168.212 287.881 165.174 288.569Z" fill="#FFB27D"/>
<path d="M199.465 321.911H196.537C196.622 321.432 196.666 320.946 196.667 320.46V319.475C196.665 317.276 195.781 315.167 194.21 313.612C192.639 312.057 190.509 311.182 188.287 311.179H183.136C180.912 311.179 178.778 312.053 177.205 313.608C175.631 315.164 174.746 317.274 174.744 319.475V320.466C174.744 320.953 174.787 321.438 174.874 321.917H171.615C170.797 321.917 170.013 322.239 169.435 322.811C168.857 323.383 168.532 324.159 168.532 324.969V338.279C168.532 341.898 169.984 345.368 172.57 347.926C175.155 350.485 178.662 351.922 182.318 351.922H190.456C192.157 351.922 193.841 351.59 195.412 350.946C196.984 350.302 198.411 349.358 199.614 348.168C200.817 346.977 201.77 345.564 202.421 344.009C203.072 342.454 203.407 340.787 203.406 339.104V325.827C203.407 325.313 203.306 324.805 203.109 324.33C202.911 323.856 202.621 323.424 202.255 323.061C201.889 322.697 201.455 322.408 200.976 322.211C200.497 322.014 199.983 321.912 199.465 321.911ZM186.962 335.306V341.489C186.95 341.739 186.841 341.976 186.658 342.149C186.474 342.322 186.23 342.418 185.977 342.418C185.723 342.418 185.48 342.322 185.296 342.149C185.113 341.976 185.004 341.739 184.992 341.489V335.299C183.898 335.059 182.932 334.428 182.28 333.527C181.628 332.625 181.335 331.518 181.457 330.416C181.579 329.314 182.108 328.295 182.942 327.555C183.776 326.815 184.857 326.406 185.977 326.406C187.097 326.406 188.178 326.815 189.012 327.555C189.846 328.295 190.375 329.314 190.497 330.416C190.619 331.518 190.326 332.625 189.674 333.527C189.021 334.428 188.056 335.059 186.962 335.299V335.306ZM193.312 320.46C193.31 320.952 193.234 321.441 193.086 321.911H178.314C178.166 321.441 178.09 320.952 178.088 320.46V319.475C178.09 318.154 178.62 316.889 179.563 315.955C180.507 315.022 181.786 314.497 183.12 314.495H188.271C189.605 314.497 190.884 315.022 191.827 315.955C192.77 316.889 193.3 318.155 193.3 319.475L193.312 320.46Z" fill="#FFDAA4"/>
<path d="M543.715 362.578H430.79C415.047 344.674 415.7 322.876 437.18 303.081C441.036 299.529 447.766 295.704 453.203 294.422C463.221 292.058 474.581 291.525 474.671 291.465C474.703 291.465 487.3 289.717 490.888 285.393C502.048 271.96 504.915 270.039 504.915 270.039C516.291 267.839 525.994 267.193 533.188 271.173C539.853 274.867 544.364 282.541 546.053 296.625C546.373 299.299 546.594 302.183 546.706 305.317C547.118 316.753 549.387 326.937 550.733 335.54C552.693 348.03 554.071 357.519 543.715 362.578Z" fill="#F99746"/>
<path d="M527.558 285.458C520.654 289.18 519.9 301.437 509.089 304.602C498.278 307.766 479.947 307.479 469.545 318.643C459.509 329.417 448.439 302.007 453.205 294.3C463.223 291.946 474.584 291.402 474.672 291.356C474.705 291.342 490.082 291.282 493.672 286.978C504.834 273.605 504.922 270.026 504.922 270.026C516.298 267.837 526.001 267.193 533.195 271.156C541.121 279.264 534.459 281.738 527.558 285.458Z" fill="#ED7D2B"/>
<path d="M550.738 335.241C534.896 315.672 502.352 342.351 493.929 341.598C486.185 340.905 509.019 314.159 537.358 310.171C548.808 308.562 546.065 296.852 546.06 296.491C546.38 299.143 546.599 302.025 546.714 305.152C547.126 316.541 549.392 326.667 550.738 335.241Z" fill="#ED7D2B"/>
<path d="M462.383 345.895C461.275 348.01 461.032 351.897 460.696 353.215C460.361 354.532 454.561 359.01 454.063 358.787C452.793 358.218 454.007 356.03 454.782 354.429C454.813 354.365 454.843 354.3 454.872 354.238C455.638 352.624 454.98 349.024 455.376 347.163C455.773 345.302 453.867 340.301 453.867 340.301L457.075 336.289C457.075 336.289 459.327 340.524 460.942 341.306C461.222 341.439 461.485 341.606 461.726 341.801C462.82 342.699 463.293 344.157 462.383 345.895Z" fill="#FFB27D"/>
<path d="M505.366 239.272C502.274 239.556 499.373 240.881 497.15 243.026C495.733 244.363 494.161 246.204 493.19 248.399C491.073 253.176 491.803 258.737 490.593 261.786C489.384 264.835 488.658 265.367 490.593 266.749C492.528 268.131 492.845 269.446 490.539 270.91C488.233 272.375 486.519 276.928 492.972 277.334C499.424 277.74 511.931 275.413 513.539 274.231C515.148 273.05 519.54 271.296 521.648 268.138C525.857 261.821 522.504 257.58 519.254 256.51C514.296 254.885 516.116 238.381 505.366 239.272Z" fill="#163560"/>
<path d="M496.895 265.726C496.895 265.726 490.499 280.018 489.165 281.261C487.832 282.505 481.591 284.932 482.152 287.014C482.712 289.096 487.411 291.108 489.375 290.622C491.339 290.136 496.316 281.74 496.316 281.74L496.895 265.726Z" fill="#739AF0"/>
<path d="M482.672 288.271C482.672 288.271 483.019 285.819 489.082 285.019C492.445 284.573 498.075 275.295 498.075 275.295L492.445 289.936L486.992 292.269L482.672 288.271Z" fill="#5A7DE0"/>
<path d="M485.136 292.885C485.136 292.885 453.561 290.696 449.237 295.655C445.804 299.591 452.054 342.574 452.054 342.574C452.054 342.574 460.647 342.822 461.322 340.568C461.322 340.568 459.719 319.7 461.061 316.091C462.403 312.483 461.557 307.488 461.557 307.488C461.557 307.488 478.368 309.977 483.701 308.716C489.034 307.454 485.136 292.885 485.136 292.885Z" fill="#233862"/>
<path d="M451.108 358.276C448.885 359.184 446.153 361.996 445.05 362.792C443.946 363.588 436.581 363.307 436.345 362.817C435.721 361.524 438.293 360.603 439.928 359.859L440 359.825C441.617 359.019 443.426 355.929 444.919 354.779C446.412 353.629 448.241 348.572 448.241 348.572L453.304 347.556C453.304 347.556 452.261 352.236 452.989 353.857C453.057 354.007 453.116 354.162 453.164 354.32C453.635 355.82 453.124 357.454 451.108 358.276Z" fill="#FFB27D"/>
<path d="M499.019 294.409C499.019 294.409 464.559 297.875 461.541 301.354C458.523 304.833 446.61 350.081 446.61 350.081C446.61 350.081 450.126 352.02 453.322 350.208C453.322 350.208 462.437 334.858 466.469 330.039C470.5 325.221 471.937 312.636 474.086 311.281C474.663 310.918 494.931 313.174 502.366 307.528C509.8 301.882 499.019 294.409 499.019 294.409Z" fill="#2A4E96"/>
<path d="M514.035 294.472C513.188 296.096 512.227 297.66 511.159 299.152C508.58 302.718 505.596 305.268 502.359 305.932C497.661 306.897 481.904 297.848 482.701 292.856C483.136 290.139 491.891 285.255 493.303 283.272C494.715 281.288 495.555 271.419 496.318 267.387C496.879 264.384 498.76 264.07 501.109 263.274C511.093 259.889 518.204 263.471 518.204 263.471C522.772 266.02 520.231 282.743 514.035 294.472Z" fill="#739AF0"/>
<path d="M513.555 253.191C513.905 251.537 514.155 249.864 514.305 248.181C514.458 246.333 511.623 240.311 507.22 240.56C505.86 240.878 504.59 241.493 503.503 242.361C502.111 243.491 500.172 245.834 503.127 251.5L503.94 253.427L513.555 253.191Z" fill="#163560"/>
<path d="M504.629 262.924C504.773 263.956 505.701 264.547 507.783 264.416C509.864 264.284 512.848 263.025 512.6 262.069C512.375 261.231 511.452 259.263 511.071 254.268L510.693 254.375L504.292 256.158C504.292 256.158 504.6 258.164 504.755 260.078C504.875 261.67 504.557 262.401 504.629 262.924Z" fill="#FFB27D"/>
<path d="M504.28 256.149C504.28 256.149 504.589 258.155 504.744 260.069C508.375 259.684 510.037 256.251 510.681 254.37L504.28 256.149Z" fill="#F4A269"/>
<path d="M504.143 259.073C504.143 259.073 512.517 256.989 511.125 251.847C509.733 246.705 509.877 242.977 504.472 244.091C499.066 245.205 498.564 247.434 498.616 249.266C498.668 251.098 501.929 259.485 504.143 259.073Z" fill="#FFB27D"/>
<path d="M500.641 244.98C500.641 244.98 503.451 250.28 508.749 250.853C511.852 251.187 512.704 253.211 512.704 253.211C512.704 253.211 511.774 247.416 510.213 243.886C510.22 243.886 501.582 241.653 500.641 244.98Z" fill="#163560"/>
<path d="M501.6 245.682C501.6 245.682 499.767 247.532 499.201 248.838C498.363 250.771 499.996 254.856 500.672 255.723C500.672 255.723 496.776 249.179 498.077 246.349C499.469 243.344 501.6 245.682 501.6 245.682Z" fill="#163560"/>
<path d="M476.061 293.397C476.061 293.397 474.392 295.145 474.19 295.238C473.088 295.749 471.694 295.461 471.023 295.619C470.352 295.778 470.464 295.372 470.96 295.035C471.455 294.699 472.678 294.83 472.181 294.708C471.683 294.585 468.985 294.088 467.969 294.358C466.363 294.784 465.095 294.282 464.996 294.119C464.897 293.957 468.663 292.133 469.741 292.196C470.82 292.258 473.913 292.111 473.913 292.111L476.061 293.397Z" fill="#FFB27D"/>
<path d="M521.035 266.7C521.035 266.7 522.037 290.995 519.15 294.409C516.35 297.712 504.393 295.472 499.224 294.362C499.019 294.332 498.81 294.345 498.611 294.402C498.412 294.458 498.228 294.556 498.071 294.69C497.668 295.049 497.492 292.258 497.492 292.258C497.492 292.258 513.091 289.998 514.139 289.706C515.645 289.285 514.589 272.544 514.589 272.544L521.035 266.7Z" fill="#FFB27D"/>
<path d="M498.71 294.035C498.71 294.035 497.312 295.434 496.78 296.15C496.249 296.865 492.532 298.156 492.449 297.781C492.366 297.407 494.111 296.221 494.269 295.795C494.427 295.37 496.332 293.174 497.492 292.925C498.652 292.675 498.71 294.035 498.71 294.035Z" fill="#FFB27D"/>
<path d="M497.492 292.258C497.492 292.258 491.762 293.569 490.789 293.963C489.816 294.358 487.753 297.244 488.573 297.679C489.089 297.951 491.35 296.769 492.499 296.524C493.647 296.279 496.9 296.836 498.388 293.928C498.555 293.6 497.492 292.258 497.492 292.258Z" fill="#FFB27D"/>
<path d="M451.108 358.276C448.885 359.183 446.153 361.996 445.05 362.792C443.946 363.588 436.581 363.307 436.345 362.816C435.721 361.524 438.293 360.603 439.928 359.859L440 359.825L440.225 359.75C440.225 359.75 443.399 360.864 446.036 359.75C448.095 358.876 451.147 355.635 453.16 354.32C453.635 355.82 453.124 357.454 451.108 358.276Z" fill="#2A4E96"/>
<path d="M462.383 345.895C461.275 348.01 461.032 351.897 460.696 353.215C460.361 354.532 454.561 359.01 454.063 358.787C452.793 358.218 454.007 356.03 454.782 354.429C455.421 354.371 456.032 354.146 456.554 353.776C458.005 352.82 460.467 349.209 460.685 347.079C460.865 345.34 460.753 342.844 461.726 341.803C462.82 342.699 463.293 344.157 462.383 345.895Z" fill="#193B72"/>
<path d="M490.104 298.412H465.142L457.633 279.933H482.557L490.104 298.412Z" fill="#EF8035"/>
<path d="M464.849 297.69H497.812V298.412H465.142L464.849 297.69Z" fill="#ED7D2B"/>
<path d="M471.442 289.162C471.255 288.514 471.633 287.986 472.291 287.986C472.637 288.005 472.968 288.128 473.241 288.339C473.514 288.549 473.716 288.836 473.821 289.162C474.008 289.813 473.629 290.339 472.971 290.339C472.626 290.32 472.295 290.197 472.021 289.987C471.748 289.776 471.546 289.489 471.442 289.162Z" fill="white"/>
<path d="M514.035 294.471C513.188 296.096 512.227 297.66 511.159 299.152C503.159 298.856 501.231 295.657 501.231 295.657L514.035 294.471Z" fill="#5A7DE0"/>
<path d="M501.604 291.447C501.604 291.447 510.738 289.374 511.873 287.435C513.008 285.496 514.596 272.553 514.596 272.553L518.407 277.387L517.636 288.755C517.636 288.755 513.287 293.009 513.008 292.856C512.729 292.702 501.604 291.447 501.604 291.447Z" fill="#5A7DE0"/>
<path d="M518.204 263.477C518.204 263.477 520.368 264.554 521.204 266.065C522.78 268.936 524.485 291.184 519.974 294.859C515.463 298.535 502.366 297.801 500.83 295.198C500.83 295.198 500.724 292.76 501.609 291.447C501.609 291.447 513.397 289.907 513.924 289.171C514.451 288.436 513.542 272.678 514.098 271.245C514.654 269.812 518.204 263.477 518.204 263.477Z" fill="#739AF0"/>
<path d="M520.163 294.614C520.163 294.614 516.76 297.77 502.519 298.223C491.384 298.577 479.656 303.019 474.176 310.651C472.649 312.777 471.593 316.283 471.19 318.643C470.444 322.981 498.217 329.723 498.668 329.094C499.118 328.466 516.958 313.294 516.958 313.294L520.163 294.614Z" fill="#F99746"/>
<path d="M391.4 207.605C391.4 207.605 405.249 221.814 405.903 227.161C406.556 232.508 399.27 240.857 399.27 240.857L391.4 207.605Z" fill="#ED7D2B"/>
<path d="M385.143 354.86C385.143 354.86 384.655 362.397 383.179 362.502C382.983 362.516 375.706 362.502 375.706 362.502L366.416 362.429C366.416 362.429 366.481 360.213 369.197 359.754C371.913 359.295 376.465 357.412 378.118 353.863C379.857 350.126 385.143 354.86 385.143 354.86Z" fill="#0E2644"/>
<path d="M405.837 354.913C405.837 354.913 405.349 362.451 403.876 362.556C403.68 362.569 396.4 362.556 396.4 362.556L387.11 362.482C387.11 362.482 387.175 360.267 389.891 359.808C392.607 359.348 397.159 357.465 398.812 353.917C400.551 350.17 405.837 354.913 405.837 354.913Z" fill="#0E2644"/>
<path d="M375.031 273.828C375.031 273.828 377.427 289.207 386.432 316.532C395.436 343.858 396.646 355.68 396.646 355.68L406.371 355.43C406.371 355.43 406.52 325.593 402.373 311.856C398.227 298.12 401.58 262.361 401.58 262.361L375.031 273.828Z" fill="#163560"/>
<path d="M370.323 263.134C370.323 263.134 369.927 286.314 373.927 314.776C377.927 343.238 376.515 355.316 376.515 355.316L386.22 355.657C386.22 355.657 392.076 327.202 390.45 312.955C388.824 298.709 398.499 264.099 398.499 264.099L370.323 263.134Z" fill="#1C468A"/>
<path d="M389.229 208.94L384.049 212.283L376.578 210.89C376.684 210.293 377.181 207.819 377.636 205.579L377.718 205.187C378.105 203.279 378.443 201.643 378.443 201.643L385.425 198.609L388.031 197.479C388.031 197.519 387.824 199.594 387.806 199.898C387.306 205.28 389.229 208.94 389.229 208.94Z" fill="#FFB27D"/>
<path d="M378.504 207.224C378.648 207.164 387.513 204.598 388.47 204.915C389.427 205.231 389.995 207.072 389.995 207.072L375.506 210.282C375.506 210.282 376.65 207.99 378.504 207.224Z" fill="#ED7D2B"/>
<path d="M402.216 266.065C400.7 272.836 375.722 273.587 369.296 267.422C368.564 266.72 368.537 263.459 368.823 259.062C369.382 250.472 371.145 237.552 371.226 230.947C371.301 227.786 371.664 224.637 372.312 221.54C373.085 217.712 374.153 213.948 375.506 210.282C375.506 210.282 387.713 206.404 389.995 207.072C400.986 210.295 403.731 259.296 402.216 266.065Z" fill="#F99746"/>
<path d="M368.823 259.073C369.382 250.483 371.145 237.563 371.226 230.959C371.301 227.797 371.664 224.648 372.312 221.551L379.655 220.285C379.655 220.285 386.767 249.291 368.823 259.073Z" fill="#ED7D2B"/>
<path d="M372.823 247.095C372.823 247.095 373.321 248.279 372.267 249.072C371.213 249.866 370.533 251.15 370.769 252.09C371.006 253.031 373.31 254.571 374.109 254.319C374.909 254.067 376.537 252.837 376.362 252.34C376.186 251.843 377.463 247.989 375.519 246.5C373.576 245.011 372.823 247.095 372.823 247.095Z" fill="#FFB27D"/>
<path d="M381.114 208.554C381.114 208.554 373.954 209.865 368.233 218.17C362.512 226.474 358.747 232.657 359.789 235.648C360.832 238.639 370.386 249.066 372.037 249.068C373.688 249.07 376.355 247.891 376.51 245.216C376.51 245.216 369.792 235.202 371.123 233.709C371.69 233.069 379.891 226.512 381.053 229.474C382.977 234.402 381.114 208.554 381.114 208.554Z" fill="#F99746"/>
<path d="M387.276 199.991C385.738 202.559 380.022 204.768 377.639 205.579L377.72 205.187C378.107 203.279 378.445 201.643 378.445 201.643L385.427 198.609C386.972 198.591 387.911 198.937 387.276 199.991Z" fill="#FCA56B"/>
<path d="M375.819 201.217C375.819 201.217 387.053 204.712 389.146 197.753C391.238 190.795 394.101 186.562 387.01 184.037C379.92 181.512 377.726 183.754 376.458 185.907C375.19 188.06 372.945 200.129 375.819 201.217Z" fill="#FFB27D"/>
<path d="M376.898 185.239C376.898 185.239 377.596 193.34 379.29 192.993C380.983 192.645 382.519 192.386 382.267 194.829C382.015 197.272 379.659 200.085 384.875 200.528C390.092 200.972 397.623 187.672 396.195 185.149C392.076 177.863 370.938 176.35 376.898 185.239Z" fill="#163560"/>
<path d="M467.55 164.196C467.475 164.27 467.424 164.364 467.404 164.467C467.383 164.569 467.394 164.675 467.434 164.772C467.475 164.868 467.543 164.951 467.631 165.009C467.719 165.067 467.822 165.098 467.927 165.098C468.033 165.098 468.136 165.067 468.224 165.009C468.312 164.951 468.38 164.868 468.421 164.772C468.461 164.675 468.472 164.569 468.451 164.467C468.43 164.364 468.379 164.27 468.305 164.196C468.205 164.097 468.069 164.042 467.927 164.042C467.786 164.042 467.65 164.097 467.55 164.196Z" fill="#D5E5FB"/>
<path d="M469.289 165.932C469.214 166.006 469.163 166.1 469.142 166.203C469.121 166.305 469.131 166.412 469.171 166.508C469.212 166.605 469.28 166.688 469.368 166.746C469.456 166.804 469.559 166.835 469.665 166.835C469.771 166.835 469.874 166.804 469.962 166.746C470.05 166.688 470.118 166.605 470.158 166.508C470.199 166.412 470.209 166.305 470.188 166.203C470.167 166.1 470.116 166.006 470.041 165.932C469.992 165.883 469.933 165.845 469.869 165.818C469.804 165.792 469.735 165.778 469.665 165.778C469.595 165.778 469.526 165.792 469.461 165.818C469.397 165.845 469.338 165.883 469.289 165.932Z" fill="#D5E5FB"/>
<path d="M471.8 167.691C471.726 167.617 471.631 167.566 471.527 167.545C471.423 167.525 471.316 167.535 471.218 167.575C471.12 167.615 471.037 167.682 470.978 167.769C470.919 167.856 470.888 167.958 470.888 168.063C470.888 168.168 470.919 168.27 470.978 168.357C471.037 168.444 471.12 168.512 471.218 168.551C471.316 168.591 471.423 168.602 471.527 168.581C471.631 168.56 471.726 168.51 471.8 168.435C471.899 168.336 471.955 168.203 471.955 168.063C471.955 167.924 471.899 167.79 471.8 167.691Z" fill="#D5E5FB"/>
<path d="M472.805 169.445C472.73 169.519 472.679 169.613 472.658 169.715C472.638 169.818 472.648 169.924 472.689 170.021C472.729 170.117 472.797 170.2 472.885 170.258C472.973 170.316 473.076 170.347 473.182 170.347C473.287 170.347 473.391 170.316 473.478 170.258C473.566 170.2 473.635 170.117 473.675 170.021C473.715 169.924 473.726 169.818 473.705 169.715C473.685 169.613 473.634 169.519 473.559 169.445C473.459 169.346 473.323 169.29 473.182 169.29C473.04 169.29 472.905 169.346 472.805 169.445Z" fill="#D5E5FB"/>
<path d="M474.541 171.181C474.466 171.255 474.415 171.349 474.395 171.452C474.374 171.554 474.385 171.66 474.425 171.757C474.466 171.853 474.534 171.936 474.622 171.994C474.71 172.052 474.813 172.083 474.918 172.083C475.024 172.083 475.127 172.052 475.215 171.994C475.303 171.936 475.371 171.853 475.412 171.757C475.452 171.66 475.463 171.554 475.442 171.452C475.421 171.349 475.37 171.255 475.296 171.181C475.246 171.132 475.187 171.093 475.123 171.066C475.058 171.039 474.989 171.026 474.918 171.026C474.848 171.026 474.779 171.039 474.714 171.066C474.649 171.093 474.591 171.132 474.541 171.181Z" fill="#D5E5FB"/>
<path d="M477.055 172.942C476.98 172.868 476.885 172.817 476.781 172.796C476.678 172.776 476.57 172.786 476.473 172.826C476.375 172.866 476.291 172.933 476.232 173.02C476.174 173.107 476.142 173.21 476.142 173.314C476.142 173.419 476.174 173.521 476.232 173.608C476.291 173.695 476.375 173.763 476.473 173.803C476.57 173.842 476.678 173.853 476.781 173.832C476.885 173.811 476.98 173.761 477.055 173.686C477.154 173.588 477.21 173.454 477.21 173.314C477.21 173.175 477.154 173.041 477.055 172.942Z" fill="#D5E5FB"/>
<path d="M477.989 174.625C477.914 174.699 477.863 174.793 477.842 174.895C477.821 174.998 477.832 175.104 477.872 175.201C477.912 175.298 477.981 175.38 478.069 175.439C478.156 175.497 478.26 175.528 478.366 175.528C478.471 175.528 478.575 175.497 478.662 175.439C478.75 175.38 478.819 175.298 478.859 175.201C478.899 175.104 478.91 174.998 478.889 174.895C478.868 174.793 478.817 174.699 478.742 174.625C478.642 174.527 478.506 174.471 478.366 174.471C478.225 174.471 478.089 174.527 477.989 174.625Z" fill="#D5E5FB"/>
<path d="M479.726 176.359C479.651 176.433 479.6 176.527 479.579 176.629C479.558 176.732 479.568 176.838 479.608 176.935C479.649 177.032 479.717 177.114 479.805 177.173C479.893 177.231 479.996 177.262 480.102 177.262C480.208 177.262 480.311 177.231 480.399 177.173C480.487 177.114 480.555 177.032 480.595 176.935C480.636 176.838 480.646 176.732 480.625 176.629C480.604 176.527 480.553 176.433 480.478 176.359C480.378 176.261 480.243 176.205 480.102 176.205C479.961 176.205 479.826 176.261 479.726 176.359Z" fill="#D5E5FB"/>
<path d="M482.239 178.12C482.165 178.046 482.07 177.995 481.966 177.975C481.863 177.954 481.755 177.965 481.658 178.005C481.56 178.045 481.477 178.113 481.418 178.199C481.359 178.286 481.328 178.388 481.328 178.493C481.328 178.597 481.359 178.7 481.418 178.786C481.477 178.873 481.56 178.941 481.658 178.981C481.755 179.021 481.863 179.031 481.966 179.011C482.07 178.991 482.165 178.94 482.239 178.866C482.339 178.767 482.396 178.633 482.396 178.493C482.396 178.353 482.339 178.219 482.239 178.12Z" fill="#D5E5FB"/>
<path d="M483.253 179.874C483.178 179.948 483.127 180.042 483.107 180.144C483.086 180.247 483.097 180.353 483.137 180.449C483.177 180.546 483.246 180.629 483.334 180.687C483.421 180.745 483.525 180.776 483.63 180.776C483.736 180.776 483.839 180.745 483.927 180.687C484.015 180.629 484.083 180.546 484.123 180.449C484.164 180.353 484.174 180.247 484.154 180.144C484.133 180.042 484.082 179.948 484.007 179.874C483.907 179.775 483.772 179.719 483.63 179.719C483.489 179.719 483.353 179.775 483.253 179.874Z" fill="#D5E5FB"/>
<path d="M484.98 181.608C484.906 181.682 484.855 181.776 484.834 181.878C484.814 181.981 484.824 182.087 484.865 182.183C484.905 182.28 484.973 182.363 485.061 182.421C485.149 182.479 485.252 182.51 485.358 182.51C485.463 182.51 485.567 182.479 485.654 182.421C485.742 182.363 485.811 182.28 485.851 182.183C485.891 182.087 485.902 181.981 485.881 181.878C485.861 181.776 485.81 181.682 485.735 181.608C485.635 181.509 485.499 181.453 485.358 181.453C485.216 181.453 485.081 181.509 484.98 181.608Z" fill="#D5E5FB"/>
<path d="M487.494 183.369C487.419 183.295 487.324 183.244 487.221 183.224C487.117 183.203 487.01 183.214 486.912 183.254C486.815 183.294 486.731 183.361 486.673 183.448C486.614 183.535 486.583 183.637 486.583 183.742C486.583 183.846 486.614 183.948 486.673 184.035C486.731 184.122 486.815 184.19 486.912 184.23C487.01 184.27 487.117 184.28 487.221 184.26C487.324 184.239 487.419 184.189 487.494 184.115C487.594 184.016 487.65 183.882 487.65 183.742C487.65 183.602 487.594 183.468 487.494 183.369Z" fill="#D5E5FB"/>
<path d="M446.424 169.552C446.321 169.528 446.213 169.536 446.114 169.573C446.015 169.61 445.93 169.675 445.869 169.761C445.807 169.846 445.773 169.947 445.77 170.052C445.767 170.156 445.796 170.259 445.852 170.348C445.908 170.436 445.99 170.506 446.086 170.549C446.183 170.592 446.29 170.605 446.394 170.587C446.498 170.57 446.595 170.522 446.671 170.45C446.748 170.378 446.801 170.285 446.824 170.183C446.84 170.115 446.843 170.045 446.831 169.977C446.82 169.909 446.794 169.843 446.757 169.784C446.72 169.726 446.671 169.675 446.614 169.635C446.557 169.595 446.492 169.567 446.424 169.552Z" fill="#D5E5FB"/>
<path d="M445.865 171.926C445.762 171.902 445.654 171.909 445.556 171.946C445.457 171.982 445.371 172.047 445.31 172.132C445.248 172.217 445.213 172.319 445.21 172.423C445.207 172.528 445.235 172.631 445.29 172.719C445.346 172.808 445.428 172.878 445.524 172.921C445.62 172.964 445.727 172.978 445.831 172.961C445.936 172.944 446.032 172.896 446.109 172.825C446.186 172.753 446.24 172.661 446.264 172.559C446.295 172.422 446.271 172.279 446.196 172.161C446.122 172.042 446.003 171.957 445.865 171.926Z" fill="#D5E5FB"/>
<path d="M445.71 174.972C445.733 174.871 445.726 174.764 445.688 174.667C445.651 174.569 445.585 174.484 445.499 174.424C445.413 174.363 445.31 174.329 445.205 174.326C445.099 174.323 444.995 174.351 444.906 174.407C444.816 174.462 444.746 174.543 444.702 174.638C444.659 174.733 444.645 174.839 444.663 174.942C444.681 175.045 444.729 175.141 444.801 175.217C444.873 175.293 444.967 175.346 445.07 175.369C445.138 175.385 445.209 175.388 445.279 175.377C445.348 175.365 445.414 175.34 445.474 175.304C445.533 175.267 445.585 175.218 445.626 175.161C445.666 175.105 445.695 175.04 445.71 174.972Z" fill="#D5E5FB"/>
<path d="M444.75 176.751C444.647 176.727 444.539 176.734 444.441 176.771C444.342 176.808 444.256 176.873 444.195 176.958C444.133 177.043 444.098 177.144 444.095 177.249C444.092 177.353 444.12 177.456 444.176 177.545C444.231 177.634 444.313 177.704 444.409 177.747C444.505 177.79 444.612 177.804 444.716 177.786C444.821 177.769 444.917 177.722 444.994 177.65C445.071 177.579 445.125 177.486 445.149 177.384C445.18 177.248 445.156 177.105 445.082 176.986C445.007 176.867 444.888 176.783 444.75 176.751Z" fill="#D5E5FB"/>
<path d="M444.196 179.131C444.093 179.108 443.985 179.115 443.887 179.152C443.788 179.19 443.702 179.255 443.641 179.34C443.58 179.425 443.546 179.527 443.543 179.631C443.54 179.736 443.568 179.839 443.624 179.927C443.681 180.016 443.762 180.086 443.859 180.129C443.955 180.171 444.062 180.185 444.167 180.167C444.271 180.149 444.367 180.101 444.444 180.029C444.521 179.957 444.574 179.864 444.597 179.762C444.613 179.695 444.615 179.625 444.603 179.557C444.591 179.488 444.566 179.423 444.529 179.365C444.492 179.306 444.443 179.255 444.386 179.215C444.329 179.175 444.264 179.147 444.196 179.131Z" fill="#D5E5FB"/>
<path d="M444.036 182.178C444.06 182.076 444.052 181.97 444.015 181.872C443.977 181.775 443.911 181.69 443.825 181.63C443.739 181.569 443.637 181.535 443.531 181.532C443.426 181.529 443.322 181.557 443.232 181.613C443.143 181.668 443.072 181.749 443.029 181.844C442.985 181.939 442.972 182.045 442.989 182.148C443.007 182.251 443.055 182.347 443.127 182.423C443.2 182.499 443.293 182.552 443.396 182.575C443.534 182.606 443.679 182.581 443.799 182.507C443.918 182.433 444.004 182.315 444.036 182.178Z" fill="#D5E5FB"/>
<path d="M443.097 183.854C442.994 183.831 442.887 183.838 442.788 183.876C442.689 183.913 442.604 183.978 442.543 184.063C442.481 184.148 442.447 184.249 442.444 184.354C442.441 184.458 442.469 184.561 442.525 184.65C442.581 184.738 442.663 184.808 442.759 184.851C442.855 184.894 442.962 184.907 443.066 184.89C443.171 184.873 443.267 184.825 443.344 184.754C443.421 184.682 443.474 184.589 443.498 184.487C443.529 184.351 443.504 184.208 443.429 184.089C443.354 183.971 443.235 183.886 443.097 183.854Z" fill="#D5E5FB"/>
<path d="M442.543 186.235C442.44 186.21 442.331 186.216 442.232 186.252C442.132 186.288 442.045 186.353 441.983 186.438C441.921 186.523 441.885 186.625 441.882 186.73C441.878 186.835 441.906 186.938 441.962 187.028C442.019 187.117 442.101 187.187 442.198 187.23C442.295 187.273 442.403 187.286 442.507 187.268C442.612 187.25 442.709 187.201 442.785 187.128C442.862 187.055 442.915 186.962 442.937 186.859C442.966 186.725 442.941 186.585 442.867 186.468C442.794 186.352 442.677 186.268 442.543 186.235Z" fill="#D5E5FB"/>
<path d="M442.383 189.277C442.407 189.175 442.399 189.069 442.362 188.971C442.324 188.874 442.258 188.789 442.172 188.729C442.086 188.668 441.984 188.634 441.878 188.631C441.773 188.628 441.669 188.656 441.579 188.711C441.49 188.767 441.419 188.847 441.376 188.943C441.333 189.038 441.319 189.144 441.337 189.247C441.354 189.35 441.402 189.445 441.475 189.521C441.547 189.597 441.641 189.651 441.743 189.674C441.881 189.705 442.026 189.68 442.146 189.606C442.266 189.532 442.351 189.413 442.383 189.277Z" fill="#D5E5FB"/>
<path d="M441.421 191.056C441.318 191.032 441.211 191.04 441.112 191.077C441.013 191.114 440.928 191.179 440.867 191.264C440.806 191.35 440.771 191.451 440.768 191.555C440.765 191.66 440.793 191.763 440.85 191.851C440.906 191.94 440.987 192.01 441.083 192.053C441.18 192.095 441.287 192.109 441.391 192.091C441.495 192.074 441.591 192.027 441.668 191.955C441.745 191.883 441.799 191.791 441.822 191.689C441.838 191.621 441.84 191.551 441.829 191.483C441.817 191.414 441.792 191.348 441.755 191.29C441.718 191.231 441.669 191.18 441.612 191.14C441.554 191.1 441.49 191.071 441.421 191.056Z" fill="#D5E5FB"/>
<path d="M440.869 193.434C440.767 193.41 440.659 193.417 440.56 193.454C440.461 193.491 440.375 193.556 440.314 193.641C440.252 193.726 440.218 193.827 440.214 193.931C440.211 194.036 440.239 194.139 440.295 194.228C440.351 194.316 440.432 194.387 440.528 194.43C440.625 194.473 440.732 194.487 440.836 194.469C440.94 194.452 441.037 194.405 441.114 194.333C441.191 194.261 441.244 194.169 441.268 194.067C441.3 193.931 441.276 193.788 441.201 193.669C441.126 193.55 441.007 193.466 440.869 193.434Z" fill="#D5E5FB"/>
<path d="M440.707 196.479C440.731 196.377 440.724 196.27 440.687 196.172C440.65 196.074 440.584 195.99 440.498 195.929C440.412 195.868 440.31 195.834 440.205 195.83C440.099 195.827 439.995 195.855 439.905 195.91C439.815 195.965 439.744 196.046 439.701 196.141C439.657 196.236 439.643 196.342 439.661 196.445C439.678 196.548 439.726 196.644 439.799 196.72C439.871 196.796 439.965 196.85 440.067 196.873C440.136 196.889 440.206 196.891 440.275 196.88C440.345 196.869 440.411 196.844 440.47 196.807C440.53 196.771 440.581 196.723 440.622 196.666C440.662 196.61 440.691 196.546 440.707 196.479Z" fill="#D5E5FB"/>
<path d="M466.649 152.535C466.649 150.259 465.968 148.034 464.69 146.141C463.413 144.248 461.597 142.773 459.472 141.902C457.347 141.03 455.009 140.802 452.753 141.246C450.497 141.69 448.425 142.785 446.799 144.395C445.172 146.004 444.064 148.054 443.616 150.287C443.167 152.519 443.397 154.833 444.277 156.936C445.157 159.039 446.647 160.836 448.56 162.101C450.472 163.365 452.72 164.04 455.02 164.04C458.104 164.039 461.061 162.827 463.242 160.67C465.422 158.512 466.648 155.586 466.649 152.535Z" fill="#C6DCF7"/>
<path d="M458.752 147.921C458.752 147.191 458.534 146.477 458.124 145.869C457.713 145.262 457.131 144.789 456.449 144.509C455.767 144.23 455.016 144.156 454.292 144.299C453.568 144.441 452.903 144.793 452.382 145.31C451.86 145.826 451.504 146.484 451.36 147.201C451.216 147.917 451.29 148.66 451.573 149.334C451.855 150.009 452.333 150.586 452.947 150.992C453.561 151.398 454.282 151.614 455.02 151.614C455.511 151.615 455.996 151.519 456.449 151.334C456.902 151.148 457.313 150.876 457.66 150.533C458.007 150.19 458.282 149.783 458.469 149.335C458.656 148.887 458.753 148.406 458.752 147.921Z" fill="#EBF3FA"/>
<path d="M455.02 151.614C456.753 151.614 458.414 152.295 459.639 153.507C460.864 154.72 461.552 156.364 461.552 158.078H448.489C448.489 156.364 449.177 154.72 450.402 153.507C451.627 152.295 453.288 151.614 455.02 151.614Z" fill="#EBF3FA"/>
<path d="M483.359 188.047L482.926 186.99C482.7 186.437 482.313 185.963 481.812 185.629C481.312 185.296 480.723 185.118 480.12 185.118H472.172V211.418H505.055V190.111H486.449C485.784 190.111 485.135 189.915 484.584 189.547C484.034 189.179 483.607 188.657 483.359 188.047Z" fill="#C6DCF7"/>
<path d="M493.53 197.125H492.431C492.464 196.945 492.48 196.763 492.481 196.581V196.22C492.481 195.394 492.15 194.602 491.561 194.018C490.972 193.433 490.173 193.103 489.339 193.1H487.408C486.574 193.103 485.776 193.433 485.188 194.018C484.599 194.603 484.269 195.395 484.269 196.22V196.592C484.269 196.775 484.284 196.956 484.316 197.136H483.095C482.789 197.136 482.495 197.257 482.278 197.471C482.062 197.685 481.94 197.976 481.94 198.279V203.268C481.94 204.624 482.484 205.924 483.453 206.883C484.422 207.842 485.736 208.381 487.107 208.381H490.156C490.794 208.381 491.425 208.257 492.014 208.016C492.604 207.774 493.139 207.421 493.59 206.975C494.041 206.528 494.398 205.999 494.643 205.416C494.887 204.833 495.012 204.208 495.012 203.577V198.6C495.013 198.407 494.976 198.215 494.902 198.036C494.828 197.857 494.719 197.695 494.581 197.558C494.444 197.42 494.28 197.312 494.099 197.237C493.919 197.163 493.726 197.125 493.53 197.125ZM488.845 202.144V204.467C488.845 204.564 488.806 204.657 488.737 204.725C488.668 204.794 488.574 204.832 488.476 204.832C488.378 204.832 488.284 204.794 488.215 204.725C488.146 204.657 488.107 204.564 488.107 204.467V202.149C487.697 202.059 487.336 201.822 487.092 201.485C486.847 201.147 486.738 200.733 486.783 200.32C486.829 199.907 487.027 199.526 487.34 199.249C487.652 198.972 488.057 198.819 488.476 198.819C488.895 198.819 489.3 198.972 489.612 199.249C489.925 199.526 490.123 199.907 490.169 200.32C490.214 200.733 490.105 201.147 489.86 201.485C489.616 201.822 489.255 202.059 488.845 202.149V202.144ZM491.224 196.572C491.224 196.756 491.197 196.94 491.143 197.116H485.607C485.552 196.94 485.523 196.757 485.523 196.572V196.22C485.523 195.725 485.722 195.251 486.075 194.901C486.429 194.551 486.908 194.354 487.408 194.354H489.334C489.834 194.354 490.314 194.551 490.667 194.901C491.021 195.251 491.219 195.725 491.219 196.22L491.224 196.572Z" fill="#EBF3FA"/>
<path d="M427.75 212.811C427.75 218.687 437.804 229.414 437.804 229.414C437.804 229.414 447.858 218.687 447.858 212.811C447.858 206.936 443.354 202.175 437.804 202.175C432.254 202.175 427.75 206.936 427.75 212.811ZM431.971 211.733C431.971 210.59 432.313 209.474 432.954 208.524C433.595 207.574 434.507 206.834 435.573 206.397C436.64 205.96 437.813 205.846 438.946 206.069C440.078 206.292 441.117 206.842 441.933 207.65C442.749 208.458 443.305 209.487 443.53 210.607C443.755 211.728 443.639 212.889 443.197 213.944C442.755 214.999 442.007 215.901 441.047 216.535C440.087 217.17 438.958 217.508 437.804 217.508C437.038 217.508 436.279 217.358 435.571 217.068C434.863 216.778 434.22 216.352 433.678 215.816C433.137 215.28 432.707 214.643 432.414 213.942C432.121 213.242 431.97 212.491 431.971 211.733Z" fill="#C6DCF7"/>
<path d="M587.306 362.324H0.693704C0.310582 362.324 0 362.631 0 363.01V363.314C0 363.693 0.310582 364 0.693704 364H587.306C587.689 364 588 363.693 588 363.314V363.01C588 362.631 587.689 362.324 587.306 362.324Z" fill="#233862"/>
<path d="M195.458 208.628C195.21 207.614 195.658 206.816 196.609 206.816C197.559 206.816 198.386 207.598 198.636 208.623C198.886 209.649 198.44 210.433 197.485 210.435C196.53 210.438 195.71 209.653 195.458 208.628ZM197.83 208.628C197.674 207.993 197.24 207.513 196.769 207.513C196.298 207.513 196.107 207.979 196.267 208.628C196.426 209.277 196.85 209.742 197.325 209.742C197.8 209.742 197.987 209.27 197.83 208.623V208.628Z" fill="#F99746"/>
<path d="M181.726 182.325L181.138 182.477L180.82 181.846L181.775 181.545H182.311L183.174 185.071H182.397L181.726 182.325Z" fill="#2F539B"/>
<path d="M184.512 183.315C184.264 182.301 184.712 181.505 185.663 181.503C186.613 181.501 187.44 182.285 187.69 183.311C187.94 184.336 187.494 185.123 186.539 185.123C185.584 185.123 184.764 184.34 184.512 183.315ZM186.883 183.315C186.728 182.68 186.293 182.201 185.823 182.201C185.352 182.201 185.16 182.666 185.32 183.315C185.48 183.964 185.904 184.429 186.379 184.429C186.854 184.429 187.041 183.961 186.883 183.313V183.315Z" fill="#2F539B"/>
<path d="M201.267 232.017C201.019 231.001 201.467 230.205 202.418 230.203C203.368 230.201 204.192 230.985 204.445 232.011C204.697 233.036 204.249 233.823 203.294 233.823C202.339 233.823 201.508 233.043 201.267 232.017ZM203.636 232.017C203.481 231.382 203.048 230.903 202.577 230.903C202.107 230.903 201.915 231.369 202.073 232.017C202.231 232.666 202.659 233.132 203.134 233.132C203.609 233.132 203.787 232.657 203.627 232.013L203.636 232.017Z" fill="#2F539B"/>
<path d="M185.755 198.794L185.17 198.946L184.852 198.315L185.805 198.014H186.341L187.203 201.538H186.426L185.755 198.794Z" fill="#2F539B"/>
<path d="M188.541 199.786C188.293 198.77 188.744 197.974 189.694 197.972C190.645 197.97 191.469 198.754 191.721 199.779C191.974 200.805 191.526 201.591 190.571 201.591C189.616 201.591 188.793 200.809 188.541 199.786ZM190.913 199.786C190.758 199.151 190.323 198.672 189.852 198.672C189.381 198.672 189.19 199.137 189.35 199.786C189.51 200.435 189.933 200.901 190.408 200.901C190.884 200.901 191.071 200.426 190.906 199.786H190.913Z" fill="#2F539B"/>
<path d="M188.077 190.51L187.489 190.661L187.172 190.03L188.125 189.73H188.654L189.516 193.256H188.739L188.077 190.51Z" fill="#F99746"/>
<path d="M190.863 191.499C190.616 190.485 191.064 189.689 192.014 189.687C192.965 189.685 193.789 190.47 194.041 191.495C194.294 192.52 193.845 193.307 192.89 193.307C191.935 193.307 191.113 192.525 190.863 191.499ZM193.233 191.499C193.077 190.864 192.645 190.385 192.174 190.385C191.703 190.385 191.512 190.851 191.67 191.499C191.827 192.148 192.255 192.614 192.73 192.614C193.206 192.614 193.384 192.141 193.233 191.497V191.499Z" fill="#F99746"/>
<path d="M187.92 207.645L187.334 207.797L187.016 207.166L187.969 206.865H188.505L189.368 210.391H188.593L187.92 207.645Z" fill="#2F539B"/>
<path d="M190.708 208.637C190.46 207.62 190.908 206.825 191.859 206.823C192.809 206.82 193.634 207.605 193.886 208.63C194.138 209.655 193.69 210.442 192.735 210.442C191.78 210.442 190.958 209.66 190.708 208.637ZM193.077 208.637C192.922 208.002 192.489 207.522 192.019 207.522C191.548 207.522 191.357 207.988 191.514 208.637C191.672 209.285 192.1 209.751 192.575 209.751C193.05 209.751 193.235 209.276 193.077 208.632V208.637Z" fill="#2F539B"/>
<path d="M197.99 183.313C197.742 182.296 198.19 181.501 199.14 181.499C200.091 181.496 200.915 182.281 201.168 183.306C201.42 184.331 200.972 185.118 200.017 185.118C199.062 185.118 198.24 184.336 197.99 183.313ZM200.359 183.313C200.204 182.678 199.771 182.198 199.3 182.198C198.83 182.198 198.638 182.664 198.796 183.313C198.954 183.961 199.381 184.427 199.857 184.427C200.332 184.427 200.517 183.961 200.366 183.308L200.359 183.313Z" fill="#F99746"/>
<path d="M190.456 182.33L189.87 182.479L189.552 181.851L190.505 181.548H191.041L191.904 185.074H191.131L190.456 182.33Z" fill="#2F539B"/>
<path d="M193.239 183.319C192.989 182.305 193.44 181.51 194.39 181.507C195.341 181.505 196.165 182.29 196.417 183.315C196.67 184.34 196.224 185.125 195.266 185.127C194.309 185.129 193.489 184.345 193.239 183.319ZM195.609 183.319C195.453 182.684 195.019 182.205 194.55 182.205C194.082 182.205 193.875 182.671 194.046 183.319C194.217 183.968 194.631 184.434 195.107 184.434C195.582 184.434 195.766 183.961 195.609 183.315V183.319Z" fill="#2F539B"/>
<path d="M199.595 225.725C199.348 224.709 199.796 223.913 200.746 223.911C201.697 223.909 202.523 224.693 202.773 225.719C203.023 226.744 202.577 227.531 201.622 227.531C200.668 227.531 199.848 226.755 199.595 225.725ZM201.967 225.725C201.812 225.09 201.377 224.611 200.906 224.611C200.436 224.611 200.244 225.077 200.404 225.725C200.564 226.374 200.987 226.84 201.463 226.84C201.938 226.84 202.125 226.365 201.967 225.721V225.725Z" fill="#F99746"/>
<path d="M189.893 215.892L189.307 216.041L188.989 215.412L189.942 215.109H190.478L191.341 218.635H190.564L189.893 215.892Z" fill="#2F539B"/>
<path d="M192.681 216.881C192.431 215.867 192.881 215.071 193.83 215.069C194.778 215.067 195.607 215.852 195.857 216.877C196.107 217.902 195.661 218.687 194.706 218.689C193.751 218.691 192.933 217.907 192.681 216.881ZM195.05 216.881C194.895 216.246 194.46 215.767 193.989 215.767C193.519 215.767 193.327 216.233 193.487 216.881C193.647 217.53 194.071 217.996 194.546 217.996C195.021 217.996 195.208 217.523 195.05 216.877V216.881Z" fill="#2F539B"/>
<path d="M197.438 216.875C197.19 215.858 197.638 215.063 198.589 215.06C199.539 215.058 200.363 215.843 200.616 216.868C200.868 217.893 200.422 218.68 199.465 218.68C198.508 218.68 197.681 217.898 197.438 216.875ZM199.807 216.875C199.652 216.239 199.217 215.76 198.749 215.76C198.28 215.76 198.086 216.226 198.244 216.875C198.402 217.523 198.83 217.989 199.305 217.989C199.78 217.989 199.958 217.514 199.8 216.87L199.807 216.875Z" fill="#2F539B"/>
<path d="M202.546 215.869L201.958 216.021L201.641 215.39L202.595 215.089H203.132L203.994 218.613H203.217L202.546 215.869Z" fill="#2F539B"/>
<path d="M192.057 224.749L191.471 224.901L191.154 224.272L192.107 223.969H192.643L193.505 227.493H192.73L192.057 224.749Z" fill="#2F539B"/>
<path d="M194.845 225.732C194.598 224.718 195.046 223.92 195.996 223.92C196.947 223.92 197.771 224.702 198.023 225.728C198.276 226.753 197.827 227.537 196.872 227.54C195.917 227.542 195.095 226.755 194.845 225.732ZM197.215 225.732C197.059 225.097 196.627 224.618 196.156 224.618C195.685 224.618 195.494 225.083 195.652 225.732C195.809 226.381 196.237 226.846 196.712 226.846C197.188 226.846 197.372 226.374 197.212 225.728L197.215 225.732Z" fill="#2F539B"/>
<path d="M203.796 245.348C203.548 244.334 203.999 243.536 204.947 243.536C205.895 243.536 206.724 244.318 206.974 245.344C207.224 246.369 206.778 247.153 205.823 247.156C204.868 247.158 204.048 246.369 203.796 245.348ZM206.168 245.348C206.012 244.713 205.577 244.234 205.107 244.234C204.636 244.234 204.445 244.699 204.604 245.348C204.764 245.997 205.188 246.462 205.663 246.462C206.138 246.462 206.325 245.99 206.168 245.344V245.348Z" fill="#2F539B"/>
<path d="M208.924 244.345L208.337 244.494L208.019 243.866L208.972 243.565H209.51L210.373 247.091H209.596L208.924 244.345Z" fill="#2F539B"/>
<path d="M196.26 244.363L195.672 244.514L195.354 243.884L196.307 243.583H196.845L197.708 247.107H196.931L196.26 244.363Z" fill="#2F539B"/>
<path d="M199.046 245.357C198.798 244.341 199.246 243.545 200.197 243.543C201.147 243.54 201.974 244.325 202.224 245.35C202.474 246.375 202.028 247.162 201.073 247.164C200.118 247.167 199.296 246.38 199.046 245.357ZM201.415 245.357C201.262 244.722 200.827 244.242 200.357 244.242C199.886 244.242 199.695 244.708 199.852 245.357C200.01 246.005 200.438 246.471 200.913 246.471C201.388 246.471 201.575 245.997 201.415 245.352V245.357Z" fill="#2F539B"/>
<path d="M211.699 245.335C211.451 244.32 211.9 243.525 212.85 243.523C213.801 243.52 214.625 244.305 214.877 245.33C215.129 246.355 214.681 247.14 213.726 247.142C212.771 247.144 211.951 246.369 211.699 245.335ZM214.071 245.335C213.915 244.702 213.481 244.22 213.01 244.22C212.539 244.22 212.348 244.686 212.505 245.335C212.663 245.983 213.091 246.449 213.566 246.449C214.042 246.449 214.228 245.977 214.071 245.33V245.335Z" fill="#F99746"/>
<path d="M216.449 245.328C216.201 244.312 216.652 243.516 217.6 243.514C218.548 243.511 219.377 244.296 219.627 245.321C219.877 246.346 219.431 247.133 218.476 247.133C217.521 247.133 216.702 246.351 216.449 245.328ZM218.821 245.328C218.666 244.693 218.231 244.213 217.76 244.213C217.289 244.213 217.098 244.679 217.258 245.328C217.418 245.976 217.841 246.442 218.316 246.442C218.792 246.442 218.979 245.968 218.821 245.323V245.328Z" fill="#F99746"/>
<path d="M197.926 251.66C197.679 250.646 198.127 249.85 199.077 249.848C200.028 249.846 200.854 250.63 201.104 251.656C201.354 252.681 200.908 253.465 199.954 253.468C198.999 253.47 198.179 252.685 197.926 251.66ZM200.298 251.66C200.143 251.027 199.708 250.546 199.237 250.546C198.767 250.546 198.575 251.011 198.735 251.66C198.895 252.309 199.318 252.774 199.794 252.774C200.269 252.774 200.456 252.302 200.298 251.656V251.66Z" fill="#2F539B"/>
<path d="M203.041 250.657L202.456 250.809L202.138 250.178L203.091 249.877H203.627L204.49 253.403H203.715L203.041 250.657Z" fill="#2F539B"/>
<path d="M205.83 251.647C205.582 250.633 206.03 249.837 206.981 249.835C207.931 249.832 208.755 250.617 209.008 251.642C209.26 252.667 208.812 253.454 207.857 253.454C206.902 253.454 206.08 252.672 205.83 251.647ZM208.199 251.647C208.044 251.011 207.609 250.532 207.141 250.532C206.672 250.532 206.478 250.998 206.636 251.647C206.794 252.295 207.222 252.761 207.697 252.761C208.172 252.761 208.357 252.289 208.199 251.644V251.647Z" fill="#2F539B"/>
<path d="M210.58 251.64C210.332 250.624 210.78 249.828 211.731 249.828C212.681 249.828 213.508 250.61 213.758 251.633C214.008 252.656 213.562 253.445 212.607 253.448C211.652 253.45 210.83 252.665 210.58 251.64ZM212.951 251.64C212.796 251.005 212.361 250.526 211.891 250.526C211.42 250.526 211.228 250.994 211.388 251.64C211.548 252.286 211.972 252.754 212.447 252.754C212.922 252.754 213.109 252.28 212.951 251.636V251.64Z" fill="#2F539B"/>
<path d="M347.519 245.348C347.271 244.334 347.719 243.536 348.67 243.536C349.62 243.536 350.445 244.318 350.697 245.344C350.949 246.369 350.501 247.153 349.546 247.156C348.591 247.158 347.769 246.369 347.519 245.348ZM349.888 245.348C349.733 244.713 349.3 244.234 348.83 244.234C348.359 244.234 348.168 244.699 348.325 245.348C348.483 245.997 348.911 246.462 349.386 246.462C349.861 246.462 350.046 245.99 349.888 245.344V245.348Z" fill="#2F539B"/>
<path d="M352.634 244.345L352.048 244.494L351.731 243.866L352.683 243.565H353.219L354.082 247.091H353.296L352.634 244.345Z" fill="#2F539B"/>
<path d="M339.98 244.363L339.395 244.514L339.077 243.884L340.03 243.583H340.566L341.429 247.107H340.652L339.98 244.363Z" fill="#2F539B"/>
<path d="M342.769 245.357C342.519 244.341 342.969 243.545 343.92 243.543C344.87 243.54 345.694 244.325 345.947 245.35C346.199 246.375 345.753 247.162 344.796 247.164C343.839 247.167 343.019 246.38 342.769 245.357ZM345.138 245.357C344.983 244.722 344.548 244.242 344.08 244.242C343.611 244.242 343.415 244.708 343.575 245.357C343.735 246.005 344.161 246.471 344.634 246.471C345.107 246.471 345.296 245.997 345.138 245.352V245.357Z" fill="#2F539B"/>
<path d="M355.422 245.335C355.172 244.32 355.623 243.525 356.573 243.523C357.524 243.52 358.348 244.305 358.6 245.33C358.852 246.355 358.404 247.14 357.449 247.142C356.494 247.144 355.672 246.369 355.422 245.335ZM357.792 245.335C357.636 244.702 357.201 244.22 356.733 244.22C356.264 244.22 356.057 244.686 356.228 245.335C356.4 245.983 356.814 246.449 357.287 246.449C357.76 246.449 357.949 245.977 357.801 245.33L357.792 245.335Z" fill="#F99746"/>
<path d="M360.172 245.328C359.924 244.312 360.373 243.516 361.323 243.514C362.274 243.511 363.098 244.296 363.35 245.321C363.602 246.346 363.154 247.133 362.199 247.133C361.244 247.133 360.422 246.351 360.172 245.328ZM362.542 245.328C362.386 244.693 361.954 244.213 361.483 244.213C361.012 244.213 360.821 244.679 360.978 245.328C361.136 245.976 361.564 246.442 362.039 246.442C362.515 246.442 362.699 245.968 362.542 245.323V245.328Z" fill="#F99746"/>
<path d="M328.521 251.66C328.271 250.646 328.721 249.85 329.669 249.848C330.618 249.846 331.446 250.63 331.696 251.656C331.946 252.681 331.5 253.465 330.546 253.468C329.591 253.47 328.771 252.685 328.521 251.66ZM330.89 251.66C330.735 251.027 330.3 250.546 329.829 250.546C329.359 250.546 329.167 251.011 329.327 251.66C329.487 252.309 329.91 252.774 330.386 252.774C330.861 252.774 331.048 252.302 330.89 251.656V251.66Z" fill="#2F539B"/>
<path d="M333.636 250.657L333.048 250.809L332.73 250.178L333.683 249.877H334.221L335.084 253.403H334.307L333.636 250.657Z" fill="#2F539B"/>
<path d="M336.422 251.647C336.174 250.633 336.622 249.837 337.573 249.835C338.523 249.832 339.35 250.617 339.6 251.642C339.85 252.667 339.404 253.454 338.449 253.454C337.494 253.454 336.674 252.672 336.422 251.647ZM338.793 251.647C338.638 251.011 338.203 250.532 337.733 250.532C337.262 250.532 337.07 250.998 337.23 251.647C337.39 252.295 337.814 252.761 338.289 252.761C338.764 252.761 338.951 252.289 338.793 251.644V251.647Z" fill="#2F539B"/>
<path d="M341.172 251.64C340.924 250.624 341.375 249.828 342.323 249.828C343.271 249.828 344.1 250.61 344.35 251.633C344.6 252.656 344.154 253.445 343.199 253.448C342.244 253.45 341.424 252.665 341.172 251.64ZM343.543 251.64C343.388 251.005 342.953 250.526 342.483 250.526C342.012 250.526 341.82 250.994 341.98 251.64C342.14 252.286 342.564 252.754 343.039 252.754C343.514 252.754 343.701 252.28 343.543 251.636V251.64Z" fill="#2F539B"/>
<path d="M209.825 268.182C209.577 267.168 210.026 266.37 210.976 266.37C211.927 266.37 212.753 267.153 213.003 268.178C213.253 269.203 212.807 269.988 211.852 269.99C210.897 269.992 210.082 269.208 209.825 268.182ZM212.197 268.182C212.042 267.547 211.607 267.068 211.136 267.068C210.665 267.068 210.474 267.536 210.634 268.182C210.794 268.829 211.217 269.297 211.692 269.297C212.168 269.297 212.359 268.824 212.201 268.178L212.197 268.182Z" fill="#F99746"/>
<path d="M214.945 267.179L214.359 267.329L214.042 266.7L214.994 266.397H215.53L216.393 269.921H215.618L214.945 267.179Z" fill="#F99746"/>
<path d="M200.127 258.349L199.541 258.5L199.224 257.87L200.176 257.569H200.713L201.575 261.092H200.798L200.127 258.349Z" fill="#2F539B"/>
<path d="M202.915 259.341C202.665 258.324 203.116 257.529 204.066 257.526C205.017 257.524 205.841 258.309 206.093 259.334C206.346 260.359 205.897 261.146 204.942 261.146C203.987 261.146 203.165 260.364 202.915 259.341ZM205.285 259.341C205.129 258.705 204.695 258.226 204.224 258.226C203.753 258.226 203.562 258.692 203.722 259.341C203.882 259.989 204.305 260.455 204.78 260.455C205.255 260.455 205.442 259.98 205.285 259.336V259.341Z" fill="#2F539B"/>
<path d="M207.665 259.332C207.418 258.318 207.866 257.522 208.816 257.52C209.767 257.517 210.591 258.302 210.843 259.327C211.096 260.352 210.647 261.137 209.692 261.139C208.737 261.141 207.915 260.357 207.665 259.332ZM210.035 259.332C209.879 258.696 209.445 258.217 208.976 258.217C208.508 258.217 208.314 258.683 208.472 259.332C208.629 259.98 209.057 260.446 209.532 260.446C210.008 260.446 210.192 259.965 210.035 259.327V259.332Z" fill="#2F539B"/>
<path d="M212.78 258.329L212.195 258.478L211.875 257.85L212.83 257.546H213.366L214.229 261.072H213.451L212.78 258.329Z" fill="#2F539B"/>
<path d="M339.194 258.349L338.607 258.5L338.289 257.87L339.244 257.569H339.782L340.645 261.092H339.868L339.194 258.349Z" fill="#2F539B"/>
<path d="M341.98 259.341C341.733 258.324 342.181 257.529 343.131 257.526C344.082 257.524 344.908 258.309 345.158 259.334C345.408 260.359 344.962 261.146 344.007 261.146C343.052 261.146 342.233 260.364 341.98 259.341ZM344.352 259.341C344.197 258.705 343.762 258.226 343.291 258.226C342.82 258.226 342.629 258.692 342.789 259.341C342.949 259.989 343.372 260.455 343.848 260.455C344.323 260.455 344.512 259.98 344.352 259.336V259.341Z" fill="#2F539B"/>
<path d="M346.733 259.332C346.483 258.318 346.933 257.522 347.881 257.52C348.83 257.517 349.659 258.302 349.909 259.327C350.159 260.352 349.713 261.137 348.758 261.139C347.803 261.141 346.99 260.357 346.733 259.332ZM349.102 259.332C348.947 258.696 348.512 258.217 348.041 258.217C347.571 258.217 347.379 258.683 347.539 259.332C347.699 259.98 348.122 260.446 348.598 260.446C349.073 260.446 349.26 259.965 349.102 259.327V259.332Z" fill="#2F539B"/>
<path d="M351.848 258.329L351.26 258.478L350.942 257.85L351.895 257.546H352.433L353.296 261.079H352.519L351.848 258.329Z" fill="#2F539B"/>
<path d="M202.291 267.199L201.706 267.351L201.388 266.72L202.341 266.419H202.877L203.74 269.945H202.965L202.291 267.199Z" fill="#2F539B"/>
<path d="M205.08 268.191C204.832 267.175 205.28 266.379 206.231 266.377C207.181 266.375 208.005 267.159 208.258 268.185C208.51 269.21 208.062 269.997 207.107 269.997C206.152 269.997 205.321 269.214 205.08 268.191ZM207.449 268.191C207.294 267.556 206.861 267.077 206.391 267.077C205.92 267.077 205.728 267.543 205.886 268.191C206.044 268.84 206.472 269.306 206.947 269.306C207.422 269.306 207.607 268.831 207.449 268.187V268.191Z" fill="#2F539B"/>
<path d="M217.733 268.169C217.485 267.155 217.934 266.357 218.884 266.357C219.834 266.357 220.659 267.139 220.911 268.165C221.163 269.19 220.715 269.974 219.76 269.977C218.805 269.979 217.983 269.194 217.733 268.169ZM220.102 268.169C219.947 267.534 219.515 267.055 219.044 267.055C218.573 267.055 218.382 267.52 218.539 268.169C218.697 268.818 219.125 269.283 219.6 269.283C220.075 269.283 220.26 268.811 220.102 268.165V268.169Z" fill="#2F539B"/>
<path d="M222.483 268.16C222.235 267.146 222.684 266.35 223.634 266.348C224.585 266.346 225.411 267.13 225.661 268.156C225.911 269.181 225.465 269.968 224.51 269.968C223.555 269.968 222.735 269.185 222.483 268.16ZM224.855 268.16C224.699 267.525 224.265 267.046 223.794 267.046C223.323 267.046 223.132 267.511 223.292 268.16C223.452 268.809 223.875 269.274 224.35 269.274C224.826 269.274 225.012 268.802 224.855 268.158V268.16Z" fill="#2F539B"/>
<path d="M211.663 274.432C211.413 273.416 211.864 272.62 212.814 272.618C213.765 272.616 214.589 273.4 214.841 274.425C215.093 275.451 214.645 276.237 213.69 276.237C212.735 276.237 211.913 275.455 211.663 274.432ZM214.033 274.432C213.877 273.797 213.442 273.318 212.974 273.318C212.506 273.318 212.298 273.783 212.469 274.432C212.641 275.081 213.053 275.546 213.528 275.546C214.003 275.546 214.19 275.072 214.033 274.428V274.432Z" fill="#F99746"/>
<path d="M216.778 273.427L216.19 273.578L215.873 272.948L216.828 272.647H217.364L218.226 276.171H217.449L216.778 273.427Z" fill="#F99746"/>
<path d="M206.911 274.439C206.663 273.425 207.111 272.629 208.062 272.627C209.012 272.624 209.839 273.409 210.089 274.434C210.339 275.459 209.893 276.244 208.938 276.246C207.983 276.248 207.163 275.464 206.911 274.439ZM209.282 274.439C209.127 273.803 208.692 273.324 208.222 273.324C207.751 273.324 207.56 273.79 207.719 274.439C207.879 275.087 208.303 275.553 208.778 275.553C209.253 275.553 209.44 275.081 209.282 274.434V274.439Z" fill="#2F539B"/>
<path d="M219.564 274.419C219.316 273.402 219.765 272.607 220.715 272.604C221.666 272.602 222.492 273.387 222.742 274.412C222.992 275.437 222.546 276.224 221.591 276.226C220.636 276.229 219.816 275.444 219.564 274.419ZM221.936 274.419C221.78 273.783 221.346 273.304 220.875 273.304C220.404 273.304 220.213 273.77 220.373 274.419C220.533 275.067 220.956 275.533 221.431 275.533C221.907 275.533 222.093 275.058 221.936 274.414V274.419Z" fill="#2F539B"/>
<path d="M224.317 274.41C224.067 273.396 224.517 272.6 225.467 272.598C226.418 272.595 227.242 273.38 227.495 274.405C227.747 275.431 227.299 276.215 226.344 276.217C225.389 276.22 224.567 275.435 224.317 274.41ZM226.686 274.41C226.531 273.775 226.096 273.295 225.625 273.295C225.154 273.295 224.963 273.761 225.123 274.41C225.283 275.058 225.706 275.524 226.181 275.524C226.657 275.524 226.844 275.052 226.686 274.405V274.41Z" fill="#2F539B"/>
<path d="M240.661 274.432C240.414 273.416 240.862 272.62 241.812 272.618C242.763 272.616 243.587 273.4 243.839 274.425C244.092 275.451 243.643 276.237 242.688 276.237C241.733 276.237 240.907 275.455 240.661 274.432ZM243.031 274.432C242.878 273.797 242.443 273.318 241.972 273.318C241.501 273.318 241.31 273.783 241.468 274.432C241.625 275.081 242.053 275.546 242.528 275.546C243.004 275.546 243.191 275.072 243.031 274.428V274.432Z" fill="#F99746"/>
<path d="M245.776 273.427L245.191 273.578L244.873 272.948L245.826 272.647H246.362L247.224 276.171H246.447L245.776 273.427Z" fill="#F99746"/>
<path d="M235.911 274.439C235.663 273.425 236.112 272.629 237.062 272.627C238.013 272.624 238.837 273.409 239.089 274.434C239.342 275.459 238.893 276.244 237.938 276.246C236.983 276.248 236.161 275.464 235.911 274.439ZM238.281 274.439C238.125 273.803 237.691 273.324 237.222 273.324C236.754 273.324 236.56 273.79 236.718 274.439C236.875 275.087 237.303 275.553 237.778 275.553C238.254 275.553 238.429 275.081 238.281 274.434V274.439Z" fill="#2F539B"/>
<path d="M248.565 274.419C248.317 273.402 248.765 272.607 249.716 272.604C250.666 272.602 251.49 273.387 251.743 274.412C251.995 275.437 251.547 276.224 250.592 276.226C249.637 276.229 248.815 275.444 248.565 274.419ZM250.934 274.419C250.779 273.783 250.344 273.304 249.875 273.304C249.407 273.304 249.213 273.77 249.371 274.419C249.529 275.067 249.957 275.533 250.432 275.533C250.907 275.533 251.092 275.058 250.934 274.414V274.419Z" fill="#2F539B"/>
<path d="M253.315 274.41C253.067 273.396 253.515 272.6 254.466 272.598C255.416 272.595 256.24 273.38 256.493 274.405C256.745 275.431 256.297 276.215 255.342 276.217C254.387 276.22 253.565 275.435 253.315 274.41ZM255.684 274.41C255.529 273.775 255.096 273.295 254.626 273.295C254.155 273.295 253.963 273.761 254.121 274.41C254.279 275.058 254.707 275.524 255.182 275.524C255.657 275.524 255.842 275.052 255.684 274.405V274.41Z" fill="#2F539B"/>
<path d="M306.674 274.432C306.426 273.416 306.876 272.62 307.824 272.618C308.773 272.616 309.602 273.4 309.852 274.425C310.102 275.451 309.656 276.237 308.701 276.237C307.746 276.237 306.935 275.455 306.674 274.432ZM309.045 274.432C308.89 273.797 308.455 273.318 307.984 273.318C307.514 273.318 307.322 273.783 307.482 274.432C307.642 275.081 308.066 275.546 308.541 275.546C309.016 275.546 309.212 275.072 309.054 274.428L309.045 274.432Z" fill="#F99746"/>
<path d="M311.798 273.427L311.212 273.578L310.894 272.948L311.847 272.647H312.385L313.246 276.171H312.471L311.798 273.427Z" fill="#F99746"/>
<path d="M301.944 274.439C301.696 273.425 302.144 272.629 303.095 272.627C304.045 272.624 304.869 273.409 305.122 274.434C305.374 275.459 304.926 276.244 303.971 276.246C303.016 276.248 302.182 275.464 301.944 274.439ZM304.313 274.439C304.16 273.803 303.725 273.324 303.255 273.324C302.784 273.324 302.592 273.79 302.75 274.439C302.908 275.087 303.336 275.553 303.811 275.553C304.286 275.553 304.462 275.081 304.302 274.434L304.313 274.439Z" fill="#2F539B"/>
<path d="M314.586 274.419C314.338 273.402 314.786 272.607 315.737 272.604C316.687 272.602 317.514 273.387 317.764 274.412C318.014 275.437 317.568 276.224 316.613 276.226C315.658 276.229 314.836 275.444 314.586 274.419ZM316.955 274.419C316.8 273.783 316.367 273.304 315.897 273.304C315.426 273.304 315.234 273.77 315.392 274.419C315.55 275.067 315.978 275.533 316.453 275.533C316.928 275.533 317.115 275.058 316.955 274.414V274.419Z" fill="#2F539B"/>
<path d="M319.336 274.41C319.088 273.396 319.536 272.6 320.487 272.598C321.437 272.595 322.264 273.38 322.514 274.405C322.764 275.431 322.318 276.215 321.363 276.217C320.408 276.22 319.588 275.435 319.336 274.41ZM321.708 274.41C321.552 273.775 321.118 273.295 320.647 273.295C320.176 273.295 319.985 273.761 320.144 274.41C320.304 275.058 320.728 275.524 321.203 275.524C321.678 275.524 321.865 275.052 321.708 274.405V274.41Z" fill="#2F539B"/>
<path d="M335.683 274.432C335.435 273.416 335.883 272.62 336.834 272.618C337.784 272.616 338.609 273.4 338.861 274.425C339.113 275.451 338.665 276.237 337.71 276.237C336.755 276.237 335.933 275.455 335.683 274.432ZM338.052 274.432C337.897 273.797 337.465 273.318 336.994 273.318C336.523 273.318 336.332 273.783 336.489 274.432C336.647 275.081 337.075 275.546 337.55 275.546C338.025 275.546 338.206 275.072 338.052 274.428V274.432Z" fill="#F99746"/>
<path d="M340.798 273.427L340.212 273.578L339.895 272.948L340.848 272.647H341.384L342.246 276.171H341.469L340.798 273.427Z" fill="#F99746"/>
<path d="M330.933 274.439C330.683 273.425 331.134 272.629 332.084 272.627C333.034 272.624 333.859 273.409 334.111 274.434C334.363 275.459 333.915 276.244 332.96 276.246C332.005 276.248 331.183 275.464 330.933 274.439ZM333.302 274.439C333.147 273.803 332.712 273.324 332.244 273.324C331.775 273.324 331.568 273.79 331.739 274.439C331.911 275.087 332.323 275.553 332.798 275.553C333.273 275.553 333.46 275.081 333.302 274.434V274.439Z" fill="#2F539B"/>
<path d="M343.586 274.419C343.336 273.402 343.787 272.607 344.737 272.604C345.688 272.602 346.512 273.387 346.764 274.412C347.017 275.437 346.568 276.224 345.613 276.226C344.658 276.229 343.836 275.444 343.586 274.419ZM345.956 274.419C345.8 273.783 345.366 273.304 344.897 273.304C344.429 273.304 344.222 273.77 344.393 274.419C344.564 275.067 344.976 275.533 345.451 275.533C345.927 275.533 346.113 275.058 345.956 274.414V274.419Z" fill="#2F539B"/>
<path d="M348.341 274.41C348.093 273.396 348.541 272.6 349.492 272.598C350.442 272.595 351.267 273.38 351.519 274.405C351.771 275.431 351.325 276.215 350.37 276.217C349.415 276.22 348.586 275.435 348.341 274.41ZM350.71 274.41C350.555 273.775 350.12 273.295 349.652 273.295C349.183 273.295 348.99 273.761 349.147 274.41C349.305 275.058 349.733 275.524 350.208 275.524C350.683 275.524 350.863 275.052 350.706 274.405L350.71 274.41Z" fill="#2F539B"/>
<path d="M227.233 268.153C226.985 267.139 227.436 266.341 228.386 266.341C229.337 266.341 230.161 267.124 230.414 268.149C230.666 269.174 230.218 269.959 229.263 269.961C228.308 269.963 227.485 269.179 227.233 268.153ZM229.605 268.153C229.449 267.518 229.015 267.039 228.544 267.039C228.073 267.039 227.882 267.507 228.042 268.153C228.202 268.8 228.625 269.268 229.1 269.268C229.576 269.268 229.763 268.795 229.605 268.149V268.153Z" fill="#2F539B"/>
<path d="M231.985 268.144C231.738 267.13 232.186 266.335 233.136 266.332C234.087 266.33 234.911 267.115 235.164 268.14C235.416 269.165 234.968 269.952 234.01 269.952C233.053 269.952 232.236 269.17 231.985 268.144ZM234.355 268.144C234.2 267.509 233.765 267.03 233.296 267.03C232.828 267.03 232.634 267.496 232.792 268.144C232.949 268.793 233.377 269.259 233.853 269.259C234.328 269.259 234.513 268.786 234.355 268.142V268.144Z" fill="#2F539B"/>
<path d="M318.836 268.153C318.588 267.139 319.036 266.341 319.987 266.341C320.937 266.341 321.762 267.124 322.014 268.149C322.266 269.174 321.818 269.959 320.863 269.961C319.908 269.963 319.079 269.179 318.836 268.153ZM321.205 268.153C321.05 267.518 320.617 267.039 320.147 267.039C319.676 267.039 319.485 267.507 319.642 268.153C319.8 268.8 320.228 269.268 320.703 269.268C321.178 269.268 321.356 268.795 321.199 268.149L321.205 268.153Z" fill="#2F539B"/>
<path d="M323.579 268.144C323.331 267.13 323.78 266.335 324.73 266.332C325.681 266.33 326.507 267.115 326.757 268.14C327.007 269.165 326.561 269.952 325.606 269.952C324.651 269.952 323.832 269.17 323.579 268.144ZM325.951 268.144C325.796 267.509 325.361 267.03 324.89 267.03C324.419 267.03 324.228 267.496 324.388 268.144C324.548 268.793 324.971 269.259 325.446 269.259C325.922 269.259 326.109 268.786 325.951 268.142V268.144Z" fill="#2F539B"/>
</svg>
