<svg width="235" height="71" viewBox="0 0 235 71" fill="none" xmlns="http://www.w3.org/2000/svg">
<g clip-path="url(#clip0)">
<path d="M0 1.42725H9.40739L13.7785 37.9553H13.9116L33.4025 1.42725H43.6191L17.407 48.3908H6.17799L0 1.42725Z" fill="#002AA8"/>
<path d="M45.2301 13.7378H54.2385L46.8485 48.3799H37.8365L45.2301 13.7378Z" fill="#002AA8"/>
<path d="M82.867 22.0691C80.3803 20.7564 78.7398 19.647 75.7579 19.3475C72.7761 19.0479 67.6068 20.357 67.6068 23.1156C67.6068 27.4866 81.6699 28.2668 81.6699 36.7425C81.6699 45.7543 73.2564 49.1896 65.5266 49.1896C61.8981 49.1896 58.3325 48.0211 55.0366 46.4717L57.1316 39.4456C59.5259 41.2391 62.0311 42.6037 65.5266 42.6037C68.5527 42.6037 73.286 40.7732 73.286 37.948C73.286 32.3641 59.5222 32.8485 59.5222 24.1732C59.5222 16.0378 67.8766 12.939 75.0005 12.939C78.2964 12.939 81.4999 14.2295 84.6554 15.0394L82.867 22.0691Z" fill="#002AA8"/>
<path d="M108.34 43.0659H108.203C105.114 46.9672 102.114 49.0861 96.9486 49.4818C90.8815 49.9477 85.2466 47.2889 86.5029 41.3649C89.0894 29.2542 99.6311 27.531 107.601 26.9911H110.746C110.968 26.0217 111.058 25.0264 111.012 24.0328C111.012 20.5345 107.25 19.525 104.091 19.525C100.126 19.525 97.4955 20.0834 93.9335 21.7659L94.0074 15.0209C97.7818 13.6608 101.761 12.9555 105.772 12.9353C112.693 12.9353 119.214 15.4906 119.214 23.6297C119.214 28.2706 115.786 41.8604 114.98 48.3835H107.398L108.34 43.0659ZM98.9291 43.2952C105.65 43.2952 109.323 38.2069 109.083 32.4344L106.592 32.3715C101.907 32.4344 94.3806 34.2871 94.3806 40.1372C94.3806 42.563 96.6456 43.2952 98.9217 43.2952H98.9291Z" fill="#002AA8"/>
<path d="M132.812 1.33858L144.606 1.30899L157.018 37.2416H157.147L162.265 1.26462L171.059 1.24243L164.263 48.6386L152.273 48.6719L140.039 12.399H139.906L135.014 48.7163L126.087 48.7385L132.812 1.33858Z" fill="#F79F0E"/>
<path d="M182.173 33.9173C182.616 40.3628 186.178 42.7294 192.308 42.7146C195.974 42.7146 200.042 41.1911 203.6 39.7563L202.381 47.1595C198.568 48.5056 194.917 49.3783 191.252 49.3783C181.39 49.4042 174.388 44.5377 173.671 34.154C172.932 23.3006 180.466 12.8318 191.724 12.8022C200.164 12.7689 206.076 17.1657 206.689 26.0518C206.849 28.6571 206.738 31.2719 206.36 33.8544L182.173 33.9173ZM198.061 27.6308C198.137 26.8417 198.148 26.0477 198.095 25.2568C197.847 21.5293 195.767 19.4252 192.035 19.4252C186.492 19.4252 184.342 22.8383 182.942 27.6604L198.061 27.6308Z" fill="#F79F0E"/>
<path d="M212.084 13.5528L218.55 13.5343L219.902 3.06177L228.959 3.12833L227.481 13.5121H234.091L234.505 20.1461L226.542 20.1794L224.325 35.4518C224.137 36.5729 224.081 37.7123 224.159 38.8465C224.303 40.9506 225.792 42.2338 227.795 42.2301C229.258 42.2337 230.709 41.9536 232.066 41.4055L231.021 48.4648C229.513 48.8087 227.813 49.2894 226.28 49.2931C220.216 49.2931 215.786 46.8747 215.321 40.1593C215.132 37.445 215.483 34.7973 215.893 32.0239L217.608 20.2127L212.524 20.2423L212.084 13.5528Z" fill="#F79F0E"/>
<path d="M55.2398 4.8258C54.7077 7.44762 52.3282 9.53325 49.9264 9.48887C47.5247 9.4445 46.0024 7.27012 46.5345 4.68158C47.0665 2.09304 49.4461 -0.0258682 51.8515 0.0185068C54.2569 0.0628818 55.7719 2.20767 55.2398 4.8258Z" fill="#002AA8"/>
<path d="M184.859 56.2861C186.117 56.0556 187.394 55.9405 188.673 55.9422C190.18 55.9422 191.303 56.1344 192.271 56.715C192.773 56.9548 193.196 57.331 193.494 57.8006C193.791 58.2702 193.95 58.8142 193.953 59.3701C193.953 61.2191 192.593 62.3654 191.023 62.8166V62.8831C191.705 63.076 192.301 63.4941 192.716 64.0695C193.131 64.6448 193.339 65.3436 193.306 66.0523C193.298 66.7493 193.112 67.4327 192.764 68.0368C192.417 68.641 191.92 69.1457 191.322 69.5024C190.095 70.3197 188.262 70.6894 185.853 70.6894C184.625 70.7106 183.398 70.6165 182.188 70.4084L184.859 56.2861ZM185.635 68.1859C186.029 68.2328 186.425 68.255 186.821 68.2525C188.503 68.2525 190.032 67.5832 190.032 65.9672C190.032 64.5213 188.824 64.0887 187.379 64.0887H186.411L185.635 68.1859ZM186.884 61.8255H187.919C189.622 61.8255 190.786 61.086 190.786 59.8656C190.786 58.808 189.921 58.3569 188.739 58.3569C188.333 58.3445 187.928 58.3805 187.531 58.4641L186.884 61.8255Z" fill="#002AA8"/>
<path d="M194.577 70.5785L195.763 64.2921C196.062 62.6946 196.192 60.927 196.299 60.021H198.993C198.93 60.7347 198.863 61.4447 198.8 62.1769H198.863C199.602 60.7754 200.781 59.7843 202.226 59.7843C202.419 59.7807 202.613 59.7881 202.806 59.8065L202.203 62.824C202.052 62.824 201.878 62.8018 201.708 62.8018C199.724 62.8018 198.8 64.5731 198.412 66.6403L197.673 70.5638L194.577 70.5785Z" fill="#002AA8"/>
<path d="M209.246 70.5785C209.268 69.9535 209.335 69.2436 209.398 68.4892H209.335C208.363 70.2346 207.029 70.8189 205.802 70.8189C203.903 70.8189 202.614 69.3397 202.614 67.1505C202.614 63.5931 204.96 59.7991 210.151 59.7991C211.334 59.806 212.509 59.9803 213.643 60.3168L212.535 65.8378C212.25 67.4017 212.112 68.9889 212.124 70.5785H209.246ZM210.14 62.236C209.864 62.1823 209.583 62.1539 209.301 62.151C207.299 62.151 205.832 64.6064 205.832 66.57C205.832 67.6054 206.242 68.3154 207.103 68.3154C208.03 68.3154 209.172 67.2578 209.645 64.6729L210.14 62.236Z" fill="#002AA8"/>
<path d="M214.678 67.7975C215.534 68.2353 216.474 68.4873 217.434 68.5371C218.317 68.5371 218.772 68.1081 218.772 67.5904C218.772 67.0727 218.424 66.7066 217.456 66.2333C216.226 65.6268 215.213 64.7541 215.213 63.4303C215.213 61.2522 217.131 59.8063 219.847 59.8063C220.783 59.7635 221.715 59.9488 222.563 60.3462L221.824 62.5465C221.165 62.2312 220.444 62.0682 219.714 62.0695C218.897 62.0695 218.336 62.4392 218.336 62.9976C218.336 63.4303 218.768 63.7964 219.629 64.2068C220.771 64.7874 221.975 65.6268 221.975 67.0949C221.964 69.5023 219.932 70.8261 217.161 70.8261C215.827 70.7817 214.556 70.4563 213.931 69.983L214.678 67.7975Z" fill="#002AA8"/>
<path d="M223.25 70.5784L225.253 60.0356H228.356L226.354 70.5784H223.25ZM227.17 58.7229C226.972 58.7298 226.774 58.6954 226.59 58.6216C226.405 58.5479 226.238 58.4365 226.099 58.2945C225.96 58.1526 225.852 57.9832 225.782 57.7972C225.712 57.6112 225.681 57.4126 225.692 57.2141C225.692 56.9798 225.738 56.7477 225.828 56.5314C225.918 56.315 226.05 56.1187 226.216 55.9539C226.383 55.7891 226.58 55.659 226.797 55.5713C227.014 55.4836 227.247 55.4399 227.481 55.4428C227.685 55.4324 227.89 55.4647 228.081 55.5377C228.273 55.6107 228.447 55.7227 228.593 55.8667C228.739 56.0106 228.854 56.1834 228.929 56.374C229.005 56.5646 229.04 56.7688 229.033 56.9738C229.037 57.2132 228.991 57.4509 228.899 57.6717C228.806 57.8925 228.668 58.0915 228.494 58.2561C228.321 58.4207 228.114 58.5472 227.889 58.6276C227.663 58.7079 227.424 58.7404 227.185 58.7229H227.17Z" fill="#002AA8"/>
<path d="M228.959 70.5784L231.889 55.2727H234.993L232.063 70.5784H228.959Z" fill="#002AA8"/>
</g>
<defs>
<clipPath id="clip0">
<rect width="235" height="71" fill="white"/>
</clipPath>
</defs>
</svg>
